<svg width="110" height="45" viewBox="0 0 110 45" fill="none" xmlns="http://www.w3.org/2000/svg">
<path d="M37.6497 26.0967V25.8826C37.6056 25.0262 37.9078 24.212 38.2525 23.4838C38.6842 22.5279 39.2665 21.6464 39.9776 20.8725C40.225 20.5986 40.5165 20.3673 40.8401 20.188C41.358 19.9301 42.3937 20.4443 42.5227 20.7865C42.6959 21.1287 42.2205 21.1725 41.8693 21.5147C40.6179 22.8415 39.6688 24.3401 39.1951 26.1388C39.066 26.8249 39.1951 27.2093 39.5398 27.1671C39.9139 27.0299 40.2424 26.7924 40.4889 26.481C42.214 24.0482 42.2581 22.7133 42.9474 22.9274C43.6009 23.1853 43.7642 23.6978 43.81 24.298C43.8557 24.8981 43.8966 25.4544 43.8966 26.0107C43.939 26.267 43.8966 26.6108 44.1122 26.6951C44.5435 26.8249 46.4842 23.5275 46.9579 22.8415C47.0017 22.7814 47.0608 22.734 47.1291 22.7041C47.1974 22.6742 47.2725 22.6628 47.3467 22.6712C47.5624 22.7993 47.5624 23.2697 47.3026 23.8276C46.8289 24.6386 45.4485 26.9092 45.1904 27.1671C44.715 27.8159 44.0256 27.7234 43.5078 27.3374C42.9474 26.953 42.7318 26.3107 42.691 25.6685V24.8981C42.691 24.8543 42.691 24.7683 42.6469 24.7683C42.5603 24.7261 42.5603 24.8121 42.5178 24.8981C42.3888 25.1965 42.2597 25.4965 42.0865 25.8388C41.8377 26.391 41.5188 26.9094 41.1374 27.3812C40.484 28.1095 39.8011 28.3235 38.9386 28.03C38.5513 27.876 38.2204 27.6085 37.9901 27.2631C37.7598 26.9177 37.6411 26.5108 37.6497 26.0967Z" fill="white"/>
<path d="M48.9915 33.4109C49.0488 32.6355 49.1497 31.8639 49.2937 31.0997C49.5094 29.8995 49.6809 28.7447 49.5518 27.5445C49.3787 26.1318 48.9474 24.805 47.6536 23.9487C47.1374 23.6065 46.6195 23.2204 46.1017 22.8344C44.5057 21.6796 43.9878 19.9653 44.161 18.2103C44.29 16.204 45.3257 14.1101 46.533 12.6504C46.953 12.1114 47.5015 11.6844 48.129 11.408C48.7824 11.1096 49.4228 11.0236 50.0697 11.4518C50.1122 11.4518 50.1563 11.4518 50.1563 11.494C51.8814 12.1801 52.097 13.4614 51.8814 14.9211C51.5791 16.8479 50.7591 18.6045 49.7675 20.2734C49.4196 20.8804 49.0155 21.4538 48.5603 21.9862C48.3912 22.1982 48.2465 22.4283 48.129 22.6722C47.9999 22.8863 48.0424 23.0145 48.2156 23.1426C48.4917 23.3193 48.7514 23.5201 48.9915 23.7427C50.1988 24.7272 50.7591 26.0539 50.9747 27.5964C51.1479 29.0561 50.8881 30.4217 50.63 31.8344C50.501 32.5627 50.3278 33.3347 50.2412 34.1051C50.2412 34.1911 50.1988 34.2332 50.1988 34.3192C50.1988 34.4051 50.1988 34.4814 50.2853 34.5333C50.4144 34.6176 50.4569 34.4895 50.501 34.4473C50.7562 34.1765 50.9758 33.8746 51.1544 33.5488C51.6282 32.6924 52.0594 31.8344 52.4907 30.9359C53.5587 28.7366 54.7391 26.5928 56.0274 24.5131C56.3941 23.8671 56.8125 23.2515 57.2788 22.6722C57.4944 22.33 57.6235 22.33 57.9322 22.5863C58.0188 22.6722 58.0613 22.7582 58.0188 22.8425L57.9322 22.9723C55.9474 25.8398 54.4379 28.9231 52.9726 32.0923C52.6263 32.8205 52.2816 33.552 51.8503 34.2754C51.6891 34.5623 51.5015 34.8337 51.29 35.0864C50.8163 35.6427 50.0828 35.6865 49.5224 35.1723C49.034 34.7084 48.9474 34.0597 48.9915 33.4109ZM47.0933 21.8953L47.6977 20.6546C48.3446 19.5123 48.9064 18.3246 49.3787 17.101C49.7455 16.2819 50.0051 15.4196 50.1514 14.5351C50.2363 13.9772 50.2804 13.4208 50.1073 12.8645C49.9782 12.4785 49.8916 12.4363 49.4538 12.6083C49.077 12.7589 48.7412 12.9956 48.4737 13.2992C46.8401 15.0119 46.0151 17.1107 45.9285 19.4625C45.9073 19.6327 45.9073 19.8048 45.9285 19.975C45.9453 20.7024 46.2207 21.4005 46.7061 21.9456C46.9218 22.1565 46.9642 22.1565 47.0933 21.8953Z" fill="white"/>
<path d="M56.1959 42.5818C55.5049 41.5114 55.2027 40.3111 54.9871 39.0704C54.6849 37.2717 54.6849 35.5168 54.8237 33.7181C55.0179 31.279 55.4068 28.859 55.9868 26.4811C57.1957 21.1288 59.352 16.1187 61.8956 11.2351C62.8022 9.43638 63.8363 7.67985 64.872 5.92494C64.9585 5.79681 65.1301 5.66868 65.0876 5.45459C64.7429 5.41079 64.4342 5.58272 64.1385 5.66868C60.8615 6.52505 57.627 7.63768 54.6081 9.22229C53.9463 9.54101 53.3209 9.92925 52.7425 10.3803C52.5269 10.5425 52.3553 10.4663 52.1822 10.3803C52.1316 10.3641 52.0856 10.3363 52.0479 10.2991C52.0102 10.262 51.9819 10.2165 51.9651 10.1664C51.9484 10.1164 51.9439 10.0631 51.9518 10.0109C51.9597 9.95875 51.9798 9.90917 52.0106 9.86619C52.0878 9.63747 52.2208 9.43129 52.3978 9.26608C52.7473 8.92009 53.1385 8.61829 53.5626 8.36754C55.5474 7.12516 57.7462 6.22662 59.9891 5.4481C61.8713 4.84268 63.7862 4.34235 65.7247 3.94945C66.0074 3.88664 66.2545 3.71745 66.4141 3.47747C66.9693 2.59142 67.5742 1.73695 68.2257 0.918093C68.4333 0.655007 68.6646 0.411252 68.9168 0.189854C69.0198 0.0963019 69.1479 0.0344084 69.2856 0.0116673C69.4233 -0.0110737 69.5647 0.0063131 69.6927 0.0617225C69.9949 0.207609 70.2835 0.379657 70.5553 0.575869C70.8134 0.789962 70.8575 0.961885 70.6843 1.26032C70.4839 1.72065 70.223 2.1526 69.9084 2.54487C69.7841 2.70989 69.669 2.88153 69.5637 3.05902C69.4771 3.27311 69.4771 3.3169 69.7352 3.27311C70.6843 3.18715 71.6334 3.05902 72.5826 2.97306C74.5233 2.81087 76.4199 2.63083 78.3606 2.63083C79.1118 2.62595 79.862 2.68346 80.6035 2.80276C81.252 2.9171 81.8692 3.16518 82.4152 3.531C82.7823 3.73825 83.0589 4.07349 83.1911 4.47171C83.2609 4.60319 83.291 4.75186 83.2777 4.89989C83.2777 5.02964 83.1911 5.11398 83.1144 5.07181C82.768 5.02964 82.3809 4.98585 82.2518 4.60146C82.0787 4.12948 81.6899 3.91539 81.2586 3.82943C80.9128 3.75161 80.5626 3.69474 80.2098 3.65913C79.1317 3.65913 78.0535 3.65913 77.0178 3.7013C75.724 3.78726 74.4302 3.91539 73.1788 4.04352C71.756 4.21544 70.3331 4.38737 68.9102 4.60146C68.6505 4.64363 68.5214 4.81555 68.3924 5.02964C67.3142 6.82673 66.236 8.66922 65.2003 10.5101C62.4036 15.6061 60.0757 20.9228 58.4356 26.5249C57.6819 29.1355 57.1201 31.797 56.7546 34.4885C56.5597 35.7766 56.4728 37.0786 56.4949 38.3811C56.539 39.5797 56.6239 40.7361 57.0568 41.8487C57.2148 42.4018 57.4937 42.9135 57.8736 43.3474C58.4781 44.1583 59.3439 44.2897 60.2456 44.2475C61.3238 44.2037 62.3154 43.8193 63.2645 43.3474C65.2052 42.3629 66.8878 41.0767 68.492 39.7078C71.0355 37.5247 73.2295 35.0415 75.3531 32.4708C77.7496 29.6163 79.9403 26.5974 81.9088 23.4367L82.0395 23.2227C82.1685 23.0086 82.2976 23.0945 82.5132 23.1805C82.7288 23.3086 82.6864 23.4367 82.5557 23.6087C81.8238 24.7635 81.1328 25.9637 80.3144 27.0763C77.3739 31.23 74.2325 35.2118 70.5667 38.8092C68.8986 40.4153 67.0951 41.8766 65.1758 43.1771C64.1453 43.8862 63.0108 44.4333 61.8122 44.799C60.9959 45.0192 60.1393 45.0487 59.3096 44.8849C57.8753 44.6027 56.9261 43.7382 56.1959 42.5818Z" fill="white"/>
<path d="M3.88143 14.8818L6.91666 23.0563H6.02144L3.45833 15.9669L0.893578 23.0563H0L3.03523 14.8818H3.88143Z" fill="white"/>
<path d="M22.0878 14.8818H22.9046V23.0563H22.1989L17.6117 16.4064V23.0563H16.7949V14.8818H17.5006L22.0878 21.5317V14.8818Z" fill="white"/>
<path d="M38.6267 14.8818V15.6522H36.1028V23.0563H35.286V15.6522H32.7457V14.8818H38.6267Z" fill="white"/>
<path d="M53.5247 14.8818H54.3414V23.0563H53.5247V14.8818Z" fill="white"/>
<path d="M69.1356 19.2497V23.0563H69.9524V20.0201H72.0761C72.7624 20.0201 73.4206 19.7494 73.9058 19.2676C74.3911 18.7858 74.6637 18.1323 74.6637 17.4509C74.6637 16.7696 74.3911 16.1161 73.9058 15.6343C73.4206 15.1525 72.7624 14.8818 72.0761 14.8818H69.1356V15.6522H72.0761C72.3122 15.6439 72.5474 15.6848 72.7666 15.7722C72.9857 15.8597 73.184 15.9917 73.3487 16.1599C73.6704 16.5137 73.8486 16.9734 73.8486 17.4501C73.8486 17.9268 73.6704 18.3866 73.3487 18.7404C73.185 18.9075 72.988 19.039 72.7703 19.1264C72.5526 19.2138 72.319 19.2552 72.0843 19.248H69.1438" fill="white"/>
<path d="M91.9714 21.9637C91.3764 22.5575 90.6171 22.9624 89.7899 23.127C88.9627 23.2917 88.1049 23.2088 87.3253 22.8888C86.5456 22.5687 85.8793 22.026 85.4108 21.3294C84.9423 20.6328 84.6927 19.8138 84.6937 18.9761C84.6946 18.2814 84.8678 17.5977 85.1981 16.9852C85.5284 16.3728 86.0056 15.8506 86.5875 15.4649C87.1694 15.0791 87.838 14.8416 88.5343 14.7734C89.2307 14.7052 89.9332 14.8083 90.5798 15.0738C91.2264 15.3392 91.7972 15.7587 92.2416 16.2952C92.6861 16.8318 92.9906 17.4688 93.1282 18.1499C93.2658 18.831 93.2322 19.5353 93.0304 20.2005C92.8287 20.8657 92.465 21.4713 91.9714 21.9637ZM86.5054 21.409C87.1573 22.0504 88.038 22.4103 88.9558 22.4103C89.8736 22.4103 90.7543 22.0504 91.4062 21.409C92.0388 20.7548 92.392 19.883 92.392 18.9761C92.392 18.0692 92.0388 17.1975 91.4062 16.5433C90.7543 15.9018 89.8736 15.542 88.9558 15.542C88.038 15.542 87.1573 15.9018 86.5054 16.5433C85.8728 17.1975 85.5196 18.0692 85.5196 18.9761C85.5196 19.883 85.8728 20.7548 86.5054 21.409Z" fill="white"/>
<path d="M106.119 23.0563L103.08 14.8818H103.974L106.538 21.9696L109.102 14.8818H109.997L106.961 23.0563H106.119Z" fill="white"/>
</svg>
