<svg width="136" height="136" viewBox="0 0 136 136" fill="none" xmlns="http://www.w3.org/2000/svg">
<path d="M65.1332 117.959C65.5322 117.987 65.8732 118.056 66.1563 118.166C66.4294 118.275 66.6818 118.393 66.9136 118.519C67.0099 118.576 67.1098 118.653 67.2133 118.751C67.3161 118.858 67.3729 118.977 67.3839 119.108C67.3992 119.32 67.4168 119.572 67.4366 119.864C67.4557 120.166 67.4558 120.452 67.4371 120.721C67.4329 120.781 67.3995 120.829 67.3369 120.864C67.2636 120.909 67.192 120.929 67.1222 120.925C67.0624 120.92 66.9579 120.693 66.8089 120.241C66.6355 119.708 66.37 119.273 66.0124 118.938C65.6541 118.612 65.2705 118.435 64.8615 118.407C64.3327 118.37 63.8901 118.464 63.5336 118.69C63.1771 118.916 62.9055 119.218 62.7188 119.596C62.5314 119.984 62.4228 120.392 62.393 120.821C62.3659 121.21 62.4054 121.579 62.5115 121.927C62.6077 122.275 62.7831 122.562 63.0379 122.791C63.282 123.028 63.6086 123.161 64.0176 123.19C64.0874 123.194 64.1576 123.194 64.2281 123.189C64.2986 123.184 64.3741 123.179 64.4546 123.175C64.5351 123.171 64.631 123.162 64.7421 123.15C64.8525 123.147 64.9825 123.152 65.1322 123.162C65.202 123.167 65.2865 123.178 65.3855 123.195C65.4739 123.221 65.5566 123.257 65.6337 123.302C65.7 123.357 65.7301 123.429 65.7238 123.519C65.7148 123.649 65.6384 123.738 65.4946 123.789C65.3408 123.838 65.214 123.859 65.1142 123.852C64.9746 123.843 64.8652 123.83 64.7861 123.814C64.6963 123.808 64.6172 123.793 64.5487 123.768C64.4696 123.752 64.3855 123.736 64.2964 123.72C64.1974 123.703 64.068 123.689 63.9084 123.678C63.6191 123.658 63.3834 123.732 63.2013 123.9C63.0186 124.077 62.8825 124.304 62.7933 124.578C62.6934 124.862 62.6333 125.148 62.6132 125.438C62.5931 125.727 62.6168 126.034 62.6844 126.36C62.742 126.685 62.8929 126.966 63.137 127.203C63.3804 127.451 63.7615 127.592 64.2802 127.629C64.6792 127.656 65.0438 127.531 65.3739 127.254C65.694 126.975 65.9674 126.503 66.1941 125.837C66.2217 125.729 66.2878 125.643 66.3924 125.58C66.497 125.517 66.5693 125.487 66.6092 125.49C66.6491 125.493 66.6809 125.54 66.7046 125.632C66.7283 125.724 66.7377 125.805 66.7328 125.875C66.7148 126.134 66.6839 126.362 66.6401 126.56C66.5956 126.767 66.5447 126.994 66.4874 127.241C66.4619 127.319 66.4375 127.383 66.414 127.431C66.3899 127.49 66.3426 127.521 66.2721 127.527C66.0997 127.555 65.926 127.603 65.7508 127.671C65.5757 127.739 65.3956 127.806 65.2104 127.874C65.0153 127.94 64.8163 127.992 64.6133 128.028C64.4096 128.074 64.1931 128.089 63.9636 128.073C63.4648 128.038 62.9969 127.92 62.5598 127.719C62.1219 127.529 61.7752 127.254 61.5194 126.895C61.2637 126.537 61.1549 126.083 61.1931 125.534C61.2312 124.986 61.3915 124.556 61.6737 124.245C61.9553 123.943 62.3371 123.714 62.8192 123.557C62.8598 123.55 62.8814 123.527 62.8842 123.487C62.8863 123.457 62.8681 123.43 62.8296 123.408C62.5365 123.297 62.2363 123.146 61.9289 122.954C61.6108 122.772 61.3534 122.508 61.1569 122.164C60.9596 121.829 60.8811 121.373 60.9213 120.794C60.9609 120.225 61.1192 119.75 61.3964 119.369C61.6629 118.996 62.0043 118.699 62.4207 118.477C62.8271 118.255 63.2685 118.105 63.745 118.028C64.2215 117.951 64.6842 117.928 65.1332 117.959Z" fill="#363138"/>
<path d="M60.52 117.902C60.6462 117.933 60.7433 117.978 60.8114 118.036C60.8819 118.084 60.91 118.138 60.8956 118.196C60.8788 118.264 60.8256 118.312 60.736 118.342C60.6342 118.379 60.4997 118.402 60.3324 118.412C60.0608 118.428 59.799 118.487 59.5471 118.589C59.2952 118.692 59.0473 118.904 58.8033 119.225C58.3782 119.779 57.9869 120.3 57.6295 120.789C57.2623 121.275 56.9122 121.755 56.5789 122.229C56.2457 122.703 55.9029 123.196 55.5504 123.706C55.1857 124.224 54.7995 124.788 54.3915 125.398C54.3094 125.522 54.2322 125.647 54.1598 125.773C54.0874 125.899 54.0272 126.039 53.9792 126.192C53.8847 126.2 53.7901 126.207 53.6955 126.215C53.601 126.222 53.5028 126.245 53.401 126.281C53.2993 126.318 53.2195 126.391 53.1616 126.5C53.094 126.607 53.0409 126.676 53.0022 126.708C52.9901 126.715 52.9792 126.718 52.9695 126.715C52.9501 126.711 52.9379 126.697 52.933 126.676C52.9231 126.632 52.9205 126.58 52.9252 126.519C52.9202 126.456 52.9151 126.393 52.9101 126.33C52.8591 125.535 52.802 124.722 52.7387 123.893C52.6755 123.064 52.616 122.261 52.5602 121.485C52.4923 120.717 52.4319 120.022 52.3791 119.401C52.3141 118.788 52.2664 118.292 52.2362 117.914C52.196 117.492 52.1223 117.165 52.0148 116.932C51.9074 116.7 51.7807 116.524 51.6348 116.406C51.4792 116.285 51.3091 116.181 51.1245 116.095C50.9666 116.025 50.8572 115.946 50.7963 115.859C50.733 115.782 50.7098 115.709 50.7265 115.641C50.7409 115.583 50.7893 115.553 50.8718 115.553C50.9542 115.553 51.0586 115.568 51.1848 115.6C51.3207 115.633 51.5028 115.688 51.731 115.765C51.9616 115.832 52.2056 115.908 52.463 115.992C52.7227 116.066 52.9643 116.131 53.1876 116.186C53.372 116.232 53.5614 116.278 53.7555 116.326C53.9497 116.374 54.1305 116.414 54.298 116.445C54.463 116.485 54.6038 116.52 54.7203 116.549C54.8465 116.58 54.9449 116.62 55.0154 116.668C55.0859 116.716 55.1139 116.77 55.0996 116.828C55.0828 116.896 55.0199 116.942 54.9108 116.967C54.8017 116.991 54.6817 116.998 54.5507 116.986C54.2183 116.956 53.9698 116.982 53.8051 117.065C53.6405 117.148 53.539 117.267 53.5007 117.422C53.4647 117.568 53.4472 117.785 53.4481 118.074C53.4369 118.37 53.4367 118.684 53.4474 119.016C53.4558 119.358 53.4689 119.66 53.4867 119.922C53.4869 120.004 53.515 120.057 53.5708 120.081C53.6146 120.113 53.7044 120.145 53.8404 120.179L56.5928 120.858C56.6317 120.867 56.6802 120.859 56.7383 120.832C56.7843 120.812 56.8399 120.754 56.9051 120.657C56.9582 120.567 57.045 120.423 57.1657 120.227C57.2839 120.04 57.4058 119.838 57.5312 119.622C57.6567 119.405 57.7664 119.211 57.8605 119.038C57.9545 118.866 58.0075 118.755 58.0195 118.707C58.0722 118.493 58.034 118.293 57.9049 118.107C57.7733 117.93 57.5982 117.784 57.3796 117.668C57.0808 117.502 56.9445 117.365 56.9709 117.259C56.9852 117.2 57.0348 117.166 57.1197 117.156C57.2022 117.156 57.3065 117.171 57.4327 117.203C57.5589 117.234 57.7422 117.284 57.9825 117.354C58.2229 117.423 58.479 117.492 58.7508 117.559C59.0712 117.638 59.3855 117.7 59.6936 117.745C60.0018 117.79 60.2772 117.842 60.52 117.902ZM56.0811 121.241L53.8237 120.685C53.6878 120.651 53.6139 120.659 53.6019 120.707C53.5971 120.727 53.5972 120.747 53.6021 120.769C53.5949 120.798 53.5926 120.828 53.5951 120.86L53.8545 124.694C53.8696 124.883 53.8918 124.981 53.9209 124.988C53.9403 124.993 53.9995 124.92 54.0985 124.769L56.3039 121.528C56.3377 121.475 56.357 121.438 56.3618 121.419C56.3737 121.37 56.3567 121.335 56.3105 121.313C56.2546 121.289 56.1782 121.265 56.0811 121.241Z" fill="#363138"/>
<path d="M50.2911 115.384C50.4076 115.442 50.495 115.502 50.5534 115.564C50.6162 115.618 50.6343 115.671 50.6077 115.725C50.5545 115.832 50.3667 115.84 50.0443 115.747C49.6727 115.641 49.3618 115.616 49.1116 115.67C48.8613 115.725 48.6586 115.909 48.5033 116.223L45.4952 122.299C45.3399 122.613 45.2962 122.87 45.3641 123.071C45.423 123.268 45.6072 123.482 45.9167 123.713C46.1858 123.913 46.2893 124.076 46.2272 124.201C46.2006 124.255 46.147 124.273 46.0664 124.256C45.9814 124.247 45.8807 124.214 45.7642 124.156C45.5222 124.036 45.3362 123.939 45.2062 123.863C45.0673 123.783 44.9373 123.708 44.8162 123.637C44.6952 123.566 44.5451 123.486 44.3658 123.397C43.7295 123.082 43.1851 122.807 42.7325 122.572C42.2664 122.341 41.787 122.104 41.2941 121.86C40.8012 121.616 40.3195 121.383 39.849 121.161C39.3696 120.935 38.8163 120.666 38.1889 120.356C37.9918 120.258 37.8304 120.178 37.705 120.116C37.5751 120.063 37.4362 120.005 37.2884 119.943C37.1406 119.881 36.9457 119.791 36.7037 119.671C36.5872 119.613 36.4997 119.553 36.4414 119.491C36.3785 119.437 36.3604 119.384 36.3871 119.33C36.4492 119.204 36.6414 119.188 36.9638 119.281C37.3264 119.382 37.6172 119.403 37.8361 119.344C38.055 119.285 38.2421 119.099 38.3974 118.785L41.4055 112.709C41.5608 112.395 41.5798 112.12 41.4626 111.884C41.3454 111.647 41.1365 111.415 40.836 111.189C40.5668 110.988 40.4589 110.835 40.5121 110.727C40.5388 110.673 40.5924 110.655 40.6729 110.673C40.7579 110.681 40.8587 110.714 40.9752 110.772C41.2172 110.892 41.4144 111.001 41.5668 111.098C41.7147 111.183 41.8582 111.265 41.9971 111.345C42.1361 111.425 42.3086 111.516 42.5147 111.618C42.7388 111.729 42.9382 111.822 43.1129 111.897C43.2786 111.968 43.4533 112.044 43.637 112.123C43.8162 112.19 44.0267 112.283 44.2687 112.403C44.3852 112.46 44.4726 112.52 44.531 112.583C44.5938 112.636 44.6119 112.69 44.5853 112.743C44.5543 112.806 44.494 112.838 44.4046 112.838C44.3151 112.838 44.1876 112.814 44.0219 112.766C43.6503 112.66 43.3394 112.646 43.0893 112.723C42.8347 112.809 42.6342 112.988 42.4877 113.262C41.9062 114.369 41.3449 115.491 40.8038 116.629C40.2538 117.763 39.7014 118.89 39.1468 120.01C39.1246 120.055 39.1248 120.088 39.1472 120.111C39.1607 120.128 39.1809 120.144 39.2078 120.157C39.5752 120.339 39.9023 120.501 40.1891 120.643C40.4625 120.79 40.7224 120.929 40.9689 121.063C41.2154 121.196 41.4866 121.336 41.7823 121.482C42.1318 121.655 42.4701 121.817 42.7972 121.968C43.1198 122.127 43.5096 122.309 43.9666 122.513C44.0114 122.535 44.0582 122.497 44.107 122.399C44.693 121.305 45.2633 120.198 45.8179 119.078C46.368 117.967 46.9025 116.842 47.4212 115.704C47.5498 115.422 47.5666 115.151 47.4717 114.892C47.3633 114.638 47.1589 114.397 46.8584 114.17C46.7193 114.068 46.6228 113.981 46.5689 113.91C46.5149 113.838 46.5035 113.771 46.5345 113.708C46.5612 113.655 46.6147 113.637 46.6953 113.654C46.7803 113.663 46.8811 113.696 46.9976 113.754C47.2396 113.873 47.4368 113.982 47.5892 114.08C47.7371 114.164 47.8805 114.246 48.0195 114.326C48.1585 114.406 48.331 114.497 48.5371 114.599C48.7612 114.71 48.9605 114.803 49.1353 114.879C49.301 114.95 49.4757 115.025 49.6594 115.105C49.8385 115.171 50.0491 115.264 50.2911 115.384Z" fill="#363138"/>
<path d="M39.7518 110.044C39.852 110.127 39.9233 110.206 39.9659 110.28C40.0148 110.346 40.0201 110.402 39.9819 110.449C39.9054 110.541 39.7209 110.505 39.4284 110.341C39.0909 110.153 38.8288 110.086 38.6421 110.139C38.4553 110.192 38.2473 110.357 38.0179 110.635L33.6976 115.86C33.4746 116.13 33.3493 116.344 33.3217 116.503C33.2801 116.663 33.3834 116.891 33.6317 117.188C33.8477 117.444 33.9112 117.626 33.822 117.734C33.7837 117.78 33.7274 117.786 33.653 117.75C33.5723 117.722 33.4818 117.667 33.3816 117.584C33.1735 117.412 33.0148 117.274 32.9056 117.171C32.7964 117.068 32.6949 116.971 32.601 116.88C32.5009 116.798 32.3737 116.692 32.2196 116.565C32.0577 116.431 31.9267 116.323 31.8265 116.24C31.7122 116.158 31.5941 116.074 31.4721 115.986C31.3424 115.892 31.1736 115.759 30.9655 115.586C30.8653 115.504 30.7939 115.425 30.7514 115.351C30.7025 115.285 30.6971 115.228 30.7354 115.182C30.78 115.128 30.849 115.107 30.9425 115.12C31.0361 115.132 31.1579 115.181 31.308 115.266C31.6378 115.448 31.9217 115.521 32.1597 115.484C32.3836 115.448 32.588 115.319 32.7728 115.096L36.3953 110.714C36.459 110.637 36.4889 110.577 36.4849 110.535C36.4809 110.493 36.4437 110.475 36.3733 110.482L28.2195 111.234C28.1069 111.244 28.0251 111.28 27.9741 111.342L27.9359 111.388C27.797 111.572 27.7517 111.768 27.7999 111.977C27.834 112.186 27.9514 112.413 28.152 112.657C28.3681 112.914 28.4316 113.096 28.3424 113.204C28.3041 113.25 28.2478 113.255 28.1734 113.22C28.0927 113.192 28.0022 113.136 27.902 113.054C27.6939 112.882 27.5275 112.737 27.4029 112.621C27.2705 112.499 27.1459 112.383 27.029 112.273C26.9056 112.171 26.7592 112.05 26.5897 111.91C26.4509 111.795 26.343 111.706 26.266 111.643C26.1748 111.58 26.076 111.511 25.9694 111.436C25.8551 111.355 25.694 111.228 25.4859 111.056C25.3857 110.973 25.3143 110.895 25.2718 110.821C25.2229 110.754 25.2175 110.698 25.2558 110.652C25.3004 110.598 25.3694 110.577 25.4629 110.589C25.5565 110.602 25.6783 110.651 25.8284 110.736C26.1582 110.918 26.4119 110.972 26.5896 110.898C26.7673 110.824 26.9485 110.676 27.1333 110.452L31.4536 105.227C31.6894 104.942 31.8197 104.706 31.8446 104.519C31.8695 104.332 31.7616 104.093 31.5211 103.804C31.4092 103.672 31.3351 103.566 31.299 103.484C31.2628 103.402 31.267 103.334 31.3116 103.28C31.3499 103.234 31.4062 103.228 31.4806 103.264C31.5613 103.292 31.6518 103.347 31.752 103.43C31.9601 103.602 32.1194 103.747 32.23 103.864C32.3392 103.968 32.4446 104.068 32.5461 104.165C32.6399 104.255 32.7678 104.367 32.9296 104.501C33.0915 104.635 33.2295 104.743 33.3438 104.824C33.4504 104.899 33.5685 104.984 33.6982 105.078C33.8342 105.165 34.0063 105.294 34.2144 105.466C34.3146 105.549 34.3859 105.627 34.4285 105.701C34.4774 105.768 34.4827 105.824 34.4445 105.87C34.368 105.963 34.1835 105.927 33.8909 105.763C33.6061 105.605 33.3567 105.522 33.1429 105.514C32.9213 105.5 32.7181 105.604 32.5334 105.828L28.7292 110.429C28.6209 110.56 28.6371 110.619 28.7779 110.605L36.9528 109.852C37.0372 109.844 37.0897 109.835 37.1102 109.826C37.1229 109.811 37.1579 109.768 37.2153 109.699C37.4128 109.46 37.4651 109.224 37.372 108.991C37.2789 108.759 37.1204 108.511 36.8966 108.248C36.7847 108.117 36.7107 108.01 36.6745 107.928C36.6384 107.846 36.6426 107.779 36.6872 107.725C36.7254 107.678 36.7817 107.673 36.8561 107.709C36.9369 107.736 37.0274 107.792 37.1276 107.875C37.3357 108.047 37.5027 108.198 37.6287 108.328C37.7533 108.444 37.8741 108.557 37.9911 108.666C38.108 108.776 38.2551 108.904 38.4323 109.051C38.5942 109.185 38.7361 109.295 38.8581 109.383C38.9723 109.465 39.0982 109.556 39.2356 109.656C39.3716 109.743 39.5437 109.872 39.7518 110.044Z" fill="#363138"/>
<path d="M27.6408 98.1101C28.0709 98.6623 28.3911 99.2686 28.6011 99.9289C28.8112 100.589 28.8994 101.256 28.8656 101.928C28.824 102.607 28.6508 103.256 28.346 103.873C28.0272 104.489 27.568 105.031 26.9684 105.498C26.3924 105.946 25.7647 106.239 25.085 106.375C24.4054 106.511 23.7182 106.508 23.0235 106.365C22.3288 106.221 21.6708 105.954 21.0496 105.563C20.4143 105.171 19.8601 104.671 19.387 104.064C19.1473 103.756 18.9564 103.486 18.8141 103.255C18.6719 103.023 18.5476 102.791 18.4413 102.557C18.321 102.321 18.1919 102.041 18.054 101.717C17.9934 101.575 17.9762 101.455 18.0024 101.358C18.0225 101.254 18.0847 101.155 18.189 101.061C18.3582 100.904 18.5401 100.73 18.7346 100.541C18.9213 100.357 19.1654 100.142 19.467 99.8944C19.5161 99.8435 19.5849 99.8342 19.6735 99.8666C19.7481 99.8973 19.8051 99.9542 19.8447 100.038C19.878 100.113 19.8605 100.196 19.7922 100.288C19.5539 100.6 19.3681 100.89 19.235 101.159C19.094 101.433 19.0323 101.729 19.0501 102.044C19.0696 102.346 19.1584 102.663 19.3165 102.997C19.4606 103.328 19.6586 103.656 19.9105 103.979C20.2669 104.437 20.6934 104.789 21.19 105.036C21.6725 105.281 22.1862 105.42 22.7308 105.452C23.2615 105.482 23.7894 105.42 24.3147 105.264C24.8399 105.108 25.3195 104.862 25.7534 104.524C26.2347 104.149 26.6496 103.705 26.9984 103.193C27.3409 102.672 27.5909 102.123 27.7484 101.544C27.8919 100.963 27.9244 100.386 27.8459 99.8136C27.7534 99.2392 27.5167 98.7075 27.1357 98.2183C26.6933 97.6503 26.1975 97.2823 25.6483 97.1142C25.0992 96.9462 24.4905 96.9133 23.8222 97.0155C23.6766 97.0402 23.5639 97.0012 23.484 96.8987C23.398 96.7882 23.4181 96.6838 23.5443 96.5855C23.6075 96.5364 23.7223 96.4723 23.8889 96.3932C24.0476 96.3203 24.2273 96.25 24.4281 96.1823C24.6149 96.1129 24.7859 96.0558 24.9411 96.011C25.0946 95.9802 25.2024 95.9722 25.2647 95.9871C25.3209 95.994 25.4178 96.0453 25.5556 96.1408C25.9013 96.3405 26.2615 96.624 26.6362 96.9912C27.0049 97.3506 27.3397 97.7235 27.6408 98.1101Z" fill="#363138"/>
<path d="M24.8657 94.7917C24.9242 94.9078 24.9537 95.0105 24.954 95.1C24.9632 95.1849 24.9411 95.2409 24.8875 95.2679C24.825 95.2994 24.7534 95.2907 24.6727 95.2418C24.5786 95.1885 24.4732 95.1016 24.3565 94.9813C24.168 94.7852 23.9528 94.6249 23.7109 94.5005C23.469 94.3762 23.1468 94.3258 22.7444 94.3496C22.0468 94.3878 21.3963 94.4303 20.7927 94.4771C20.1846 94.515 19.5922 94.5617 19.0155 94.6174C18.4388 94.6731 17.842 94.7333 17.225 94.798C16.5947 94.8583 15.9152 94.9322 15.1865 95.0197C15.039 95.0381 14.8937 95.061 14.7507 95.0883C14.6077 95.1157 14.4625 95.1609 14.3151 95.224C14.2478 95.1571 14.1805 95.0903 14.1132 95.0234C14.0459 94.9566 13.9652 94.8965 13.8711 94.8432C13.777 94.7898 13.6696 94.7768 13.5489 94.804C13.4238 94.8223 13.3366 94.8271 13.2874 94.8183C13.2739 94.8139 13.265 94.8072 13.2605 94.7983C13.2515 94.7805 13.2536 94.7626 13.267 94.7446C13.2937 94.7088 13.3316 94.6728 13.3807 94.6369C13.4252 94.592 13.4698 94.5472 13.5144 94.5023C14.0849 93.9458 14.6643 93.3735 15.2526 92.7857C15.8409 92.1978 16.4113 91.6301 16.964 91.0826C17.5032 90.5306 17.9912 90.0325 18.4279 89.5883C18.8512 89.1396 19.1966 88.7806 19.464 88.5114C19.7581 88.2062 19.9584 87.9372 20.0649 87.7043C20.1714 87.4714 20.2221 87.261 20.217 87.0732C20.2074 86.8764 20.1754 86.6798 20.1211 86.4832C20.0713 86.3179 20.0597 86.1838 20.0861 86.0808C20.1037 85.9824 20.1437 85.9174 20.2062 85.8859C20.2598 85.8588 20.3135 85.8765 20.3674 85.939C20.4213 86.0014 20.4775 86.0906 20.536 86.2067C20.5991 86.3317 20.6757 86.5059 20.7659 86.7292C20.8651 86.948 20.9665 87.1824 21.0702 87.4325C21.1829 87.6781 21.291 87.9035 21.3945 88.1089C21.4801 88.2785 21.5679 88.4526 21.658 88.6312C21.748 88.8098 21.8358 88.9727 21.9213 89.12C21.9978 89.2718 22.0631 89.4013 22.1172 89.5084C22.1757 89.6245 22.2096 89.725 22.2188 89.8099C22.2281 89.8949 22.2059 89.9508 22.1523 89.9779C22.0898 90.0094 22.0137 89.9918 21.9241 89.925C21.8344 89.8582 21.7514 89.7713 21.675 89.6642C21.4817 89.3921 21.3 89.2205 21.1298 89.1496C20.9596 89.0786 20.8031 89.0792 20.6602 89.1512C20.5263 89.2188 20.3501 89.3468 20.1316 89.5354C19.8997 89.7196 19.6612 89.9239 19.416 90.1483C19.1618 90.3773 18.9412 90.5838 18.754 90.7678C18.6916 90.8217 18.6694 90.8776 18.6875 90.9357C18.6921 90.9894 18.726 91.0787 18.789 91.2037L20.0657 93.735C20.0837 93.7707 20.1218 93.8019 20.18 93.8285C20.2248 93.8507 20.3053 93.8549 20.4216 93.8411C20.5244 93.8229 20.6897 93.7954 20.9177 93.7589C21.1367 93.7268 21.3691 93.688 21.6149 93.6424C21.8608 93.5969 22.0797 93.5536 22.2719 93.5127C22.4641 93.4718 22.5825 93.4401 22.6271 93.4176C22.8235 93.3185 22.9504 93.1593 23.0078 92.94C23.0563 92.7251 23.0532 92.497 22.9987 92.2557C22.9305 91.9206 22.9455 91.7282 23.0437 91.6787C23.0973 91.6517 23.1555 91.6671 23.2183 91.725C23.2722 91.7875 23.3284 91.8767 23.3869 91.9928C23.4455 92.1089 23.5266 92.2807 23.6302 92.5085C23.7338 92.7362 23.8487 92.9751 23.9748 93.2251C24.1234 93.5197 24.2809 93.7987 24.4473 94.062C24.6137 94.3252 24.7531 94.5685 24.8657 94.7917ZM19.4413 93.5963L18.3943 91.5203C18.3313 91.3953 18.2775 91.3441 18.2328 91.3666C18.215 91.3756 18.1994 91.3891 18.186 91.407C18.1592 91.4205 18.1347 91.4385 18.1124 91.4609L15.3713 94.1537C15.2376 94.2884 15.1775 94.3691 15.191 94.3959C15.2001 94.4137 15.294 94.4111 15.4728 94.3882L19.3687 93.9521C19.4313 93.9429 19.4715 93.9338 19.4894 93.9248C19.534 93.9023 19.5496 93.8665 19.536 93.8173C19.5179 93.7592 19.4863 93.6856 19.4413 93.5963Z" fill="#363138"/>
<path d="M19.6197 83.1307C19.6537 83.2562 19.6667 83.3614 19.6586 83.4465C19.6602 83.5289 19.6321 83.578 19.5742 83.5937C19.5066 83.612 19.4431 83.5878 19.3835 83.521C19.324 83.4543 19.2575 83.3428 19.1841 83.1866C19.0172 82.8381 18.8255 82.5896 18.6091 82.441C18.383 82.295 18.0963 82.2691 17.7488 82.3633L12.1314 83.8856C11.6874 84.0059 11.3522 84.1071 11.1258 84.1892C10.8898 84.2739 10.73 84.3534 10.6466 84.4278C10.5605 84.4926 10.5231 84.5649 10.5344 84.6447C10.5421 84.7877 10.5668 84.9364 10.6087 85.0908C10.6382 85.2382 10.687 85.4374 10.755 85.6884L10.9394 86.3688C11.0022 86.6005 11.1133 86.819 11.2725 87.0245C11.4196 87.223 11.604 87.3491 11.8258 87.403C11.8819 87.4189 11.9674 87.4475 12.0822 87.4889C12.1874 87.5329 12.2842 87.5844 12.3727 87.6433C12.4612 87.7022 12.5159 87.7703 12.5368 87.8475C12.5473 87.8861 12.5358 87.9203 12.5024 87.95C12.4665 87.9702 12.4243 87.9867 12.3761 87.9998C12.2795 88.026 12.1765 88.028 12.0669 88.0059C11.7504 87.9466 11.4781 87.9168 11.2501 87.9164C11.0098 87.909 10.7348 87.9266 10.4251 87.969C10.2558 87.9942 10.1501 87.9866 10.1081 87.9462C10.0634 87.8961 10.0359 87.8518 10.0254 87.8132C10.0149 87.7746 10.0572 87.701 10.1521 87.5924C10.2443 87.4741 10.3239 87.3852 10.3906 87.3257C10.4714 87.2416 10.5085 87.0917 10.5019 86.8759C10.4926 86.6505 10.4605 86.4364 10.4055 86.2338L9.0245 81.1376C8.93295 80.7998 8.8391 80.5299 8.74295 80.328C8.6468 80.1261 8.54402 79.9571 8.43461 79.821C8.34531 79.7209 8.25772 79.6462 8.17185 79.597C8.08336 79.538 8.02343 79.4507 7.99204 79.3349C7.98419 79.3059 8.01626 79.2713 8.08825 79.2311C8.15058 79.1935 8.22035 79.1642 8.29757 79.1433C8.34582 79.1302 8.416 79.1215 8.5081 79.1173C8.59758 79.1034 8.66776 79.0948 8.71864 79.0913C8.90022 79.0732 9.03354 79.0682 9.1186 79.0762C9.20105 79.0746 9.27253 79.0707 9.33306 79.0647C9.39359 79.0587 9.48659 79.0386 9.61206 79.0046L9.7858 78.9575C9.87266 78.934 9.97924 78.9258 10.1055 78.9331C10.2222 78.9429 10.2909 78.9864 10.3119 79.0636C10.3302 79.1312 10.2915 79.1987 10.1958 79.2661C10.1001 79.3334 9.96574 79.4113 9.79282 79.4996C9.60059 79.5931 9.47272 79.7521 9.40921 79.9765C9.33605 80.2036 9.36224 80.5487 9.48779 81.012L9.88405 82.4743C9.94159 82.6866 10.0137 82.838 10.1004 82.9285C10.1871 83.019 10.3502 83.0473 10.5897 83.0135C10.8291 82.9797 11.2143 82.8908 11.7452 82.747L17.4349 81.2051C17.7824 81.1109 18.0156 80.939 18.1344 80.6892C18.2435 80.442 18.2835 80.1307 18.2543 79.7553C18.2388 79.5834 18.2398 79.4536 18.2575 79.3659C18.2752 79.2782 18.3178 79.2252 18.3854 79.2069C18.4433 79.1912 18.4924 79.2194 18.5326 79.2914C18.5825 79.3607 18.6244 79.4581 18.6584 79.5836C18.7291 79.8442 18.7783 80.064 18.806 80.243C18.8408 80.4097 18.8743 80.5715 18.9065 80.7286C18.9387 80.8856 18.9849 81.0751 19.0451 81.2971C19.1105 81.5384 19.1728 81.7495 19.2322 81.9302C19.2889 82.1014 19.3483 82.2821 19.4102 82.4726C19.4792 82.6507 19.549 82.8701 19.6197 83.1307Z" fill="#363138"/>
<path d="M17.7749 75.7469C17.786 75.8764 17.7799 75.9823 17.7568 76.0646C17.7437 76.146 17.7072 76.1892 17.6474 76.1943C17.5278 76.2045 17.4242 76.0477 17.3364 75.724C17.2345 75.3513 17.0953 75.0721 16.9189 74.8864C16.7426 74.7006 16.47 74.6234 16.1014 74.6548L9.3906 75.2256C9.03189 75.2561 8.78417 75.3524 8.64742 75.5146C8.51067 75.6768 8.42352 75.9501 8.38598 76.3347C8.35416 76.6686 8.2685 76.8415 8.12901 76.8534C8.06922 76.8584 8.02598 76.822 7.99927 76.744C7.9626 76.6668 7.93875 76.5634 7.92774 76.4339C7.90485 76.1649 7.89119 75.9452 7.88675 75.775C7.88146 75.5948 7.87702 75.4246 7.87342 75.2643C7.85986 75.1049 7.84333 74.9106 7.82384 74.6814C7.8052 74.4622 7.78994 74.2828 7.77808 74.1433C7.75625 74.0047 7.73357 73.8561 7.71005 73.6975C7.68653 73.5389 7.66332 73.3251 7.64044 73.0561C7.62942 72.9266 7.63547 72.8207 7.65858 72.7384C7.67173 72.657 7.7082 72.6138 7.76798 72.6087C7.83773 72.6027 7.90091 72.6375 7.95751 72.713C8.01411 72.7885 8.06456 72.9096 8.10885 73.0765C8.20996 73.4392 8.34287 73.7039 8.50758 73.8705C8.67145 74.0272 8.92776 74.0907 9.2765 74.0611L11.7725 73.8488C12.0017 73.8293 12.1095 73.7398 12.0959 73.5804C12.0942 73.5605 12.0925 73.5405 12.0908 73.5206C12.0792 73.5015 12.0675 73.4824 12.0558 73.4634C12.005 73.3372 11.9378 73.1372 11.8543 72.8633C11.7707 72.5894 11.7159 72.298 11.6896 71.9891C11.6125 71.0824 11.7947 70.3342 12.2363 69.7447C12.668 69.156 13.3173 68.8248 14.1841 68.751C14.7322 68.7044 15.1732 68.7572 15.5073 68.9095C15.8406 69.0517 16.1021 69.2352 16.2918 69.46C16.4807 69.6747 16.6376 69.8671 16.7624 70.0372C16.9672 70.3208 17.1264 70.6586 17.24 71.0503C17.3536 71.4421 17.4316 71.8871 17.474 72.3853C17.4816 72.475 17.4868 72.595 17.4895 72.7453C17.4914 72.8856 17.4955 73.0509 17.5016 73.2411C17.5069 73.4213 17.518 73.611 17.535 73.8103C17.557 74.0693 17.5806 74.2881 17.6058 74.4666C17.6311 74.6451 17.6571 74.8336 17.684 75.032C17.7201 75.2197 17.7504 75.4579 17.7749 75.7469ZM16.9928 72.2155C16.9589 71.8169 16.8724 71.4479 16.7331 71.1085C16.583 70.76 16.3343 70.4901 15.9868 70.2988C15.6285 70.0985 15.1156 70.0267 14.448 70.0835C14.0793 70.1148 13.7656 70.2017 13.5067 70.3442C13.2379 70.4875 13.026 70.651 12.871 70.8348C12.7052 71.0095 12.593 71.1646 12.5342 71.3C12.4655 71.4364 12.3998 71.6075 12.337 71.8136C12.2734 72.0097 12.2577 72.2971 12.2899 72.6757C12.3009 72.8052 12.3303 72.9733 12.378 73.18C12.4248 73.3768 12.4716 73.5133 12.5182 73.5896C12.554 73.6568 12.6081 73.7024 12.6804 73.7264C12.7527 73.7503 12.8287 73.7589 12.9084 73.7522L15.9574 73.4928C16.0869 73.4818 16.2251 73.455 16.3721 73.4124C16.509 73.3706 16.6185 73.3011 16.7006 73.2038C16.7735 73.1173 16.8472 72.9806 16.9216 72.7936C16.9852 72.5975 17.0089 72.4048 16.9928 72.2155Z" fill="#363138"/>
<path d="M17.7326 62.1069C17.6653 62.8036 17.4808 63.4639 17.1794 64.0878C16.878 64.7117 16.4837 65.2563 15.9967 65.7216C15.4997 66.1859 14.9282 66.5375 14.2822 66.7764C13.6272 67.0045 12.9215 67.0819 12.165 67.0087C11.4384 66.9385 10.7814 66.7192 10.1941 66.351C9.60685 65.9828 9.11027 65.5078 8.70438 64.926C8.29849 64.3442 8.00433 63.6979 7.8219 62.9871C7.63048 62.2653 7.57183 61.5212 7.64594 60.7548C7.68348 60.3666 7.73017 60.0395 7.78602 59.7737C7.84187 59.5078 7.91168 59.2534 7.99547 59.0103C8.07026 58.7563 8.16881 58.4645 8.29112 58.1347C8.34537 57.9892 8.4152 57.8905 8.5006 57.8385C8.58697 57.7765 8.7003 57.7473 8.84062 57.7508C9.07147 57.753 9.32272 57.7522 9.59435 57.7483C9.85603 57.7435 10.1815 57.7549 10.5706 57.7825C10.6412 57.7792 10.6976 57.8199 10.7397 57.9043C10.7727 57.9778 10.775 58.0584 10.7464 58.1461C10.7188 58.2238 10.6488 58.2723 10.5364 58.2915C10.1486 58.3545 9.81402 58.4377 9.53277 58.5411C9.24155 58.6435 8.99385 58.8155 8.78966 59.057C8.59639 59.2894 8.44261 59.581 8.32834 59.9316C8.20507 60.2713 8.1237 60.6452 8.08424 61.0533C8.02841 61.6306 8.09588 62.1797 8.28664 62.7005C8.46841 63.2103 8.74602 63.6641 9.11947 64.0619C9.48392 64.4488 9.91034 64.7663 10.3987 65.0145C10.8871 65.2626 11.405 65.4132 11.9525 65.4661C12.5596 65.5248 13.166 65.488 13.7715 65.3557C14.3781 65.2134 14.9375 64.9862 15.4499 64.6741C15.9534 64.351 16.3735 63.9546 16.7103 63.4849C17.038 63.0042 17.2318 62.4553 17.2914 61.8382C17.3607 61.1215 17.2538 60.5134 16.9705 60.0138C16.6873 59.5142 16.268 59.0718 15.7125 58.6866C15.5898 58.6044 15.5347 58.4986 15.5472 58.3692C15.5607 58.2298 15.6471 58.1679 15.8063 58.1833C15.886 58.191 16.0134 58.2234 16.1887 58.2805C16.3541 58.3367 16.533 58.4092 16.7253 58.4982C16.9086 58.5762 17.0721 58.6523 17.2156 58.7264C17.3482 58.8096 17.432 58.8779 17.467 58.9316C17.503 58.9752 17.5382 59.0791 17.5725 59.2432C17.6862 59.6259 17.7529 60.0794 17.7725 60.6037C17.7931 61.1181 17.7798 61.6191 17.7326 62.1069Z" fill="#363138"/>
<path d="M18.3057 57.3679C18.236 57.5975 18.1635 57.7845 18.0883 57.9289C18.016 58.0637 17.9318 58.1688 17.8357 58.2441C17.8079 58.267 17.7767 58.2837 17.7422 58.2941C17.6981 58.3016 17.6569 58.2995 17.6186 58.2879C17.5708 58.2734 17.5369 58.2474 17.5169 58.21C17.4874 58.1696 17.4784 58.1303 17.49 58.0921C17.554 57.8816 17.5553 57.6364 17.494 57.3565C17.4261 57.0641 17.2878 56.7451 17.0792 56.3996C16.8707 56.054 16.587 55.6804 16.2283 55.2788C15.8275 54.8435 15.491 54.386 15.2187 53.9061C14.9398 53.4138 14.8154 52.9631 14.8455 52.5543C14.8476 52.5131 14.8362 52.4991 14.8112 52.5125C14.7892 52.5162 14.7603 52.5597 14.7245 52.6429C14.5555 53.0619 14.2957 53.401 13.9452 53.6603C13.5976 53.91 13.2191 54.072 12.8099 54.1463C12.4006 54.2205 12.0238 54.2053 11.6793 54.1007C11.0191 53.9001 10.5423 53.5776 10.2488 53.1331C9.95534 52.6886 9.80533 52.1675 9.79879 51.5698C9.79225 50.9721 9.88781 50.3479 10.0855 49.6973C10.1494 49.4867 10.2157 49.3031 10.2842 49.1462C10.3461 48.9769 10.4113 48.8138 10.4799 48.657C10.5484 48.5001 10.6118 48.326 10.6699 48.1347C10.7339 47.9242 10.7862 47.7519 10.8269 47.618C10.858 47.4811 10.892 47.3347 10.929 47.1787C10.9659 47.0227 11.0236 46.8155 11.1021 46.5572C11.1399 46.4328 11.1848 46.3367 11.2367 46.2689C11.2791 46.1981 11.329 46.1715 11.3864 46.1889C11.5204 46.2296 11.5681 46.4166 11.5296 46.7498C11.489 47.1241 11.5158 47.4144 11.6099 47.6207C11.704 47.827 11.9185 47.981 12.2534 48.0827L18.7406 50.0535C19.0755 50.1552 19.35 50.1289 19.5642 49.9745C19.7783 49.82 19.9726 49.576 20.1472 49.2423C20.3005 48.944 20.4346 48.8123 20.5494 48.8472C20.6068 48.8646 20.6334 48.9145 20.6293 48.9969C20.6348 49.0821 20.6186 49.187 20.5808 49.3113C20.5023 49.5697 20.4274 49.7821 20.3559 49.9485C20.2969 50.1082 20.2394 50.2632 20.1833 50.4134C20.1272 50.5636 20.0658 50.7487 19.9989 50.9688C19.9263 51.208 19.8671 51.4199 19.8214 51.6046C19.7787 51.7798 19.733 51.9645 19.6844 52.1587C19.6484 52.3463 19.5911 52.5693 19.5126 52.8277C19.4748 52.952 19.4299 53.0481 19.378 53.116C19.3356 53.1867 19.2857 53.2134 19.2283 53.1959C19.1613 53.1756 19.1203 53.1213 19.1053 53.0331C19.0903 52.945 19.0931 52.8152 19.1138 52.6438C19.1386 52.3901 19.1327 52.1688 19.096 51.98C19.0622 51.7816 18.9866 51.6175 18.8693 51.4878C18.7519 51.3581 18.5928 51.2627 18.3918 51.2017L15.9663 50.4648C15.7271 50.3921 15.5815 50.3897 15.5295 50.4575C15.4805 50.5158 15.4196 50.6645 15.347 50.9037C15.3063 51.0377 15.3072 51.1895 15.3497 51.3592C15.3951 51.5193 15.4362 51.6938 15.4729 51.8826C15.5471 52.2919 15.7626 52.7179 16.1193 53.1607C16.476 53.6035 16.836 54.0525 17.1993 54.5078C17.4511 54.8142 17.6794 55.1292 17.8842 55.4527C18.0824 55.7637 18.2269 56.0793 18.3177 56.3996C18.4086 56.7198 18.4046 57.0426 18.3057 57.3679ZM14.692 51.2535C14.7908 50.9281 14.8406 50.6611 14.8414 50.4523C14.8354 50.231 14.7081 50.0826 14.4593 50.007L11.9046 49.2309C11.5218 49.1146 11.2109 49.1404 10.9719 49.3081C10.7357 49.4663 10.5682 49.708 10.4693 50.0333C10.356 50.4065 10.3345 50.7867 10.405 51.1739C10.4784 51.5515 10.6329 51.8859 10.8685 52.1769C11.0945 52.4651 11.3989 52.6673 11.7816 52.7835C12.5662 53.0219 13.1922 53.0083 13.6596 52.7427C14.1299 52.4675 14.474 51.9711 14.692 51.2535Z" fill="#363138"/>
<path d="M24.4301 41.25C24.3506 41.3528 24.2706 41.4237 24.19 41.4625C24.1173 41.5074 24.0573 41.5115 24.0098 41.4749C23.9307 41.4137 23.9652 41.2382 24.1135 40.9483C24.2905 40.6049 24.3494 40.3407 24.2901 40.1558C24.2369 39.963 24.0679 39.7565 23.783 39.5363L18.4189 35.3897C18.142 35.1756 17.9237 35.0574 17.764 35.0351C17.6026 34.9987 17.3779 35.1095 17.0901 35.3673C16.8408 35.5917 16.6687 35.6672 16.5738 35.5938C16.5263 35.5571 16.5121 35.5019 16.5312 35.4281C16.5423 35.3483 16.5938 35.249 16.6855 35.1304C16.8507 34.9167 16.9831 34.7537 17.0827 34.6411C17.1824 34.5285 17.2759 34.4239 17.3633 34.3272C17.4428 34.2243 17.5437 34.0938 17.6661 33.9355C17.7945 33.7694 17.8985 33.6349 17.978 33.532C18.0557 33.4152 18.1365 33.2943 18.2203 33.1695C18.3102 33.0368 18.4378 32.8637 18.6029 32.6501C18.7803 32.4206 18.9204 32.3457 19.0232 32.4252C19.0786 32.468 19.0977 32.5333 19.0804 32.621C19.0631 32.7088 19.0143 32.8291 18.9341 32.9819C18.7632 33.3175 18.7 33.6036 18.7446 33.8403C18.7873 34.0629 18.9234 34.2629 19.1529 34.4403L21.4908 36.2476C21.5382 36.2843 21.5852 36.2889 21.6316 36.2616C21.6701 36.2282 21.7015 36.1956 21.726 36.164L25.1296 31.7612C25.1724 31.7058 25.1463 31.6414 25.0514 31.568L22.7372 29.779C22.5236 29.6139 22.3028 29.5317 22.0748 29.5324C21.8467 29.533 21.5888 29.6623 21.301 29.9201C21.1733 30.0363 21.0692 30.1138 20.9886 30.1526C20.908 30.1914 20.84 30.1894 20.7847 30.1466C20.6818 30.0671 20.7191 29.9126 20.8964 29.6832C21.0616 29.4696 21.2001 29.2986 21.312 29.1702C21.43 29.0339 21.5418 28.9055 21.6476 28.7851C21.7455 28.6585 21.8617 28.5081 21.9962 28.3341C22.1063 28.1917 22.1919 28.0809 22.2531 28.0018C22.3063 27.9166 22.3688 27.8195 22.4404 27.7105C22.512 27.6015 22.6303 27.4402 22.7955 27.2266C22.8811 27.1159 22.9611 27.045 23.0356 27.0141C23.1082 26.9692 23.1683 26.965 23.2158 27.0017C23.3107 27.0751 23.281 27.2607 23.1266 27.5585C22.9557 27.894 22.9131 28.1454 22.9986 28.3127C23.0842 28.48 23.2417 28.6523 23.4711 28.8297L28.8352 32.9763C29.128 33.2026 29.3652 33.3291 29.5468 33.3557C29.7345 33.3745 29.9692 33.2589 30.2509 33.009C30.4941 32.7925 30.6553 32.7148 30.7344 32.776C30.7818 32.8127 30.793 32.8719 30.7678 32.9535C30.7505 33.0413 30.7021 33.1366 30.6226 33.2394C30.4575 33.453 30.3211 33.6131 30.2136 33.7195C30.1139 33.8321 30.0204 33.9367 29.9329 34.0334C29.8455 34.1302 29.7376 34.2616 29.6092 34.4278C29.4807 34.5939 29.3776 34.7354 29.2999 34.8523C29.2283 34.9613 29.1476 35.0821 29.0576 35.2148C28.9756 35.3536 28.852 35.5298 28.6869 35.7435C28.6074 35.8463 28.5273 35.9171 28.4467 35.956C28.3741 36.0009 28.314 36.005 28.2665 35.9683C28.2112 35.9255 28.193 35.8673 28.2121 35.7935C28.2373 35.7119 28.29 35.5946 28.3702 35.4418C28.5185 35.1519 28.5804 34.8838 28.556 34.6374C28.5298 34.377 28.3901 34.149 28.1369 33.9532L25.8228 32.1643C25.7832 32.1337 25.7436 32.1031 25.7041 32.0726C25.6645 32.042 25.6295 32.0465 25.5989 32.086L22.0944 36.6194C22.0638 36.659 22.092 36.7124 22.1791 36.7797L24.4339 38.5227C24.6791 38.7123 24.9631 38.7865 25.2857 38.7452C25.6005 38.6978 25.8855 38.5579 26.1409 38.3256C26.2687 38.2094 26.3658 38.1329 26.4323 38.0958C26.505 38.0509 26.569 38.0498 26.6244 38.0926C26.6719 38.1293 26.683 38.1885 26.6578 38.2701C26.6405 38.3579 26.5921 38.4532 26.5126 38.556C26.3475 38.7697 26.202 38.9416 26.0761 39.0717C25.9642 39.2001 25.8553 39.3245 25.7496 39.445C25.6438 39.5655 25.5206 39.7167 25.3799 39.8987C25.2515 40.0648 25.1454 40.2103 25.0615 40.3351C24.9838 40.4519 24.8969 40.5807 24.8009 40.7213C24.7188 40.8601 24.5952 41.0363 24.4301 41.25Z" fill="#363138"/>
<path d="M31.4377 32.3277C31.3381 32.4113 31.2448 32.4634 31.1578 32.4842C31.0772 32.5127 31.0177 32.5039 30.9791 32.4579C30.9341 32.4043 30.9262 32.3327 30.9553 32.2429C30.9857 32.1391 31.0461 32.0166 31.1365 31.8755C31.2843 31.6471 31.391 31.4009 31.4566 31.1369C31.5223 30.8729 31.4975 30.5478 31.3823 30.1615C31.1853 29.4913 30.995 28.8677 30.8112 28.2909C30.6351 27.7076 30.4539 27.1417 30.2677 26.5931C30.0814 26.0444 29.8861 25.4772 29.6818 24.8915C29.4788 24.2917 29.2512 23.6472 28.9992 22.9579C28.9475 22.8185 28.892 22.6824 28.8326 22.5494C28.7733 22.4164 28.696 22.2855 28.6008 22.1565C28.6505 22.0756 28.7001 21.9948 28.7498 21.914C28.7995 21.8331 28.8395 21.7408 28.8699 21.637C28.9002 21.5332 28.8883 21.4257 28.8342 21.3145C28.7877 21.1968 28.7631 21.1131 28.7603 21.0631C28.7616 21.049 28.766 21.0388 28.7737 21.0324C28.789 21.0195 28.8069 21.0175 28.8274 21.0264C28.8685 21.0442 28.9121 21.0729 28.9583 21.1124C29.0122 21.1455 29.0661 21.1786 29.12 21.2117C29.7924 21.6396 30.4821 22.0726 31.189 22.5106C31.896 22.9487 32.5793 23.374 33.2388 23.7866C33.8996 24.1851 34.4962 24.546 35.0286 24.8694C35.5623 25.1787 35.9908 25.4327 36.3142 25.6313C36.6785 25.8478 36.9863 25.9811 37.2374 26.0315C37.4885 26.0819 37.7049 26.083 37.8866 26.035C38.0759 25.9806 38.26 25.9045 38.4389 25.8065C38.5884 25.7202 38.7163 25.6782 38.8226 25.6804C38.9224 25.6749 38.9949 25.699 39.0399 25.7526C39.0784 25.7986 39.0735 25.8549 39.0251 25.9217C38.9766 25.9884 38.9026 26.0636 38.8031 26.1471C38.6958 26.2371 38.5438 26.3516 38.3471 26.4906C38.1569 26.6372 37.9519 26.7896 37.7322 26.9478C37.5189 27.1137 37.3242 27.2706 37.148 27.4185C37.0025 27.5406 36.8531 27.6659 36.6999 27.7945C36.5467 27.9231 36.4082 28.0458 36.2844 28.1627C36.1542 28.272 36.0431 28.3652 35.9512 28.4424C35.8516 28.5259 35.7615 28.5819 35.6809 28.6104C35.6004 28.6388 35.5408 28.6301 35.5022 28.5841C35.4572 28.5305 35.457 28.4524 35.5014 28.3498C35.5459 28.2472 35.6115 28.1465 35.6982 28.0476C35.9189 27.7972 36.0443 27.581 36.0744 27.3991C36.1045 27.2172 36.0681 27.0649 35.9653 26.9423C35.8688 26.8274 35.7038 26.6852 35.4702 26.5158C35.2378 26.3322 34.9843 26.1467 34.7097 25.9595C34.4286 25.7645 34.1771 25.597 33.9551 25.4569C33.8884 25.4085 33.8288 25.3997 33.7764 25.4307C33.7253 25.4475 33.646 25.5009 33.5388 25.5909L31.3671 27.4132C31.3365 27.4389 31.3148 27.4832 31.3023 27.546C31.2909 27.5947 31.3053 27.674 31.3453 27.784C31.3866 27.8799 31.4512 28.0346 31.539 28.2481C31.6203 28.4539 31.7113 28.6713 31.812 28.9001C31.9126 29.129 32.0049 29.3322 32.0887 29.5099C32.1725 29.6876 32.2305 29.7956 32.2627 29.8339C32.4041 30.0024 32.5881 30.0895 32.8148 30.0951C33.035 30.0931 33.2563 30.0379 33.4787 29.9296C33.7894 29.7864 33.98 29.757 34.0507 29.8413C34.0893 29.8872 34.0876 29.9474 34.0456 30.0218C33.9972 30.0885 33.9232 30.1637 33.8236 30.2473C33.724 30.3308 33.5752 30.4491 33.3773 30.6022C33.1794 30.7552 32.9732 30.9217 32.7587 31.1017C32.5059 31.3138 32.2704 31.531 32.0522 31.7533C31.834 31.9755 31.6292 32.167 31.4377 32.3277ZM31.3592 26.7737L33.1402 25.2792C33.2474 25.1892 33.285 25.125 33.2528 25.0867C33.24 25.0714 33.2233 25.0593 33.2028 25.0504C33.1835 25.0274 33.1604 25.0077 33.1334 24.9911L29.8845 22.9395C29.7229 22.8402 29.6305 22.8002 29.6076 22.8195C29.5922 22.8323 29.6162 22.9232 29.6795 23.0919L30.9962 26.7845C31.0195 26.8434 31.0375 26.8804 31.0504 26.8957C31.0825 26.9341 31.1209 26.941 31.1657 26.9165C31.2181 26.8856 31.2826 26.838 31.3592 26.7737Z" fill="#363138"/>
<path d="M45.8531 21.9299C45.7304 21.9728 45.6264 21.9933 45.5409 21.9914C45.4588 21.999 45.4079 21.9744 45.388 21.9178C45.3484 21.8045 45.4745 21.6651 45.7662 21.4995C46.1018 21.308 46.3375 21.1037 46.4735 20.8866C46.6095 20.6696 46.6197 20.3959 46.5042 20.0655L44.266 13.6656C44.1505 13.3352 43.9971 13.124 43.806 13.0319C43.6244 12.9365 43.3426 12.9185 42.9608 12.9779C42.6295 13.0302 42.4408 12.9902 42.3945 12.8581C42.3747 12.8015 42.3993 12.7505 42.4682 12.7052C42.5338 12.6505 42.628 12.6017 42.7507 12.5587C43.0055 12.4696 43.2054 12.405 43.3503 12.3649C43.5047 12.3216 43.6495 12.2815 43.785 12.2447C43.9205 12.2079 44.0826 12.1565 44.2714 12.0905C44.9416 11.8561 45.519 11.6595 46.0037 11.5006C46.4946 11.3289 46.9996 11.1523 47.5188 10.9707C48.0379 10.7892 48.5413 10.6078 49.0288 10.4267C49.5258 10.2423 50.1047 10.0346 50.7655 9.80353C50.9731 9.7309 51.143 9.67148 51.2752 9.62527C51.404 9.56961 51.5423 9.51066 51.69 9.4484C51.8378 9.38614 52.0391 9.31045 52.2939 9.22132C52.4167 9.1784 52.5207 9.1579 52.6061 9.15981C52.6883 9.15228 52.7392 9.17684 52.759 9.23347C52.8052 9.36562 52.6825 9.51449 52.3908 9.68006C52.0647 9.86828 51.8461 10.0612 51.7351 10.2589C51.6242 10.4567 51.6265 10.7207 51.742 11.0511L53.9802 17.451C54.0957 17.7814 54.279 17.9874 54.5301 18.0691C54.7811 18.1509 55.0928 18.1637 55.4652 18.1076C55.7965 18.0553 55.9819 18.0858 56.0216 18.1991C56.0414 18.2557 56.0168 18.3067 55.9479 18.352C55.8823 18.4067 55.7881 18.4555 55.6654 18.4984C55.4105 18.5875 55.1949 18.6524 55.0183 18.6929C54.8546 18.7396 54.6955 18.7846 54.5412 18.828C54.3869 18.8714 54.2011 18.931 53.984 19.007C53.748 19.0895 53.542 19.1668 53.366 19.239C53.1994 19.3079 53.0233 19.38 52.8378 19.4555C52.6651 19.5371 52.4513 19.6224 52.1964 19.7116C52.0737 19.7545 51.9696 19.775 51.8842 19.7731C51.8021 19.7806 51.7511 19.7561 51.7313 19.6994C51.7082 19.6333 51.7278 19.5682 51.7901 19.5041C51.8525 19.4399 51.9589 19.3656 52.1095 19.2812C52.4451 19.0896 52.6728 18.8776 52.7927 18.6449C52.9094 18.4029 52.9212 18.1339 52.8283 17.8379C52.444 16.6481 52.0344 15.4618 51.5996 14.279C51.1743 13.093 50.7552 11.91 50.3426 10.7301C50.3261 10.6829 50.302 10.6595 50.2704 10.66C50.2482 10.6571 50.223 10.6606 50.1947 10.6706C49.8077 10.8059 49.4631 10.9264 49.1611 11.032C48.8651 11.1249 48.5834 11.2129 48.3158 11.2959C48.0482 11.3788 47.7586 11.4748 47.4471 11.5837C47.079 11.7125 46.7266 11.841 46.3901 11.9693C46.0503 12.0881 45.6477 12.2395 45.1823 12.4234C45.1351 12.4399 45.1297 12.5001 45.166 12.604C45.5376 13.7876 45.9297 14.9695 46.3423 16.1494C46.7517 17.3199 47.1815 18.4885 47.6319 19.6552C47.7437 19.9445 47.9254 20.1458 48.1769 20.2592C48.4345 20.3598 48.7495 20.382 49.1219 20.326C49.2923 20.2982 49.4218 20.2899 49.5105 20.3013C49.5992 20.3126 49.6552 20.3513 49.6783 20.4174C49.6981 20.474 49.6735 20.525 49.6046 20.5703C49.539 20.625 49.4448 20.6738 49.3221 20.7168C49.0673 20.8059 48.8516 20.8707 48.6751 20.9113C48.5113 20.9579 48.3522 21.003 48.1979 21.0464C48.0436 21.0897 47.8578 21.1494 47.6407 21.2253C47.4048 21.3078 47.1987 21.3852 47.0227 21.4573C46.8561 21.5262 46.68 21.5984 46.4945 21.6738C46.3218 21.7554 46.108 21.8408 45.8531 21.9299Z" fill="#363138"/>
<path d="M57.0069 18.2965C56.8781 18.3145 56.7721 18.3142 56.6887 18.2955C56.6067 18.2868 56.5615 18.2527 56.5533 18.1933C56.5367 18.0744 56.6876 17.9625 57.0062 17.8574C57.3729 17.7356 57.6293 17.5837 57.7756 17.4017C57.9317 17.2183 57.9842 16.9435 57.9331 16.577L57.0581 10.3078C56.9959 9.86209 56.8887 9.5287 56.7367 9.30759C56.5946 9.0851 56.3305 8.96546 55.9445 8.94866C55.772 8.94244 55.6427 8.92011 55.5565 8.88165C55.4704 8.84318 55.4225 8.78929 55.4128 8.71996C55.4045 8.66054 55.4386 8.61539 55.515 8.58453C55.5901 8.54375 55.692 8.51438 55.8208 8.49641C56.0882 8.45909 56.2863 8.43144 56.415 8.41347C56.5537 8.39412 56.6831 8.3811 56.8034 8.37442C56.9222 8.35783 57.0807 8.33571 57.2788 8.30807C57.4768 8.28042 57.6742 8.24782 57.8709 8.21027C58.0761 8.16143 58.2672 8.11962 58.4441 8.08484C58.6196 8.04015 58.7767 8.00813 58.9153 7.98877C60.0444 7.83119 60.9831 7.93745 61.7314 8.30756C62.4897 8.67628 62.9269 9.27661 63.043 10.1085C63.1273 10.7127 63.0866 11.2889 62.9207 11.837C62.7535 12.3753 62.4438 12.8325 61.9914 13.2087C61.549 13.5834 60.9465 13.824 60.1839 13.9305C59.966 13.9609 59.7934 13.9547 59.6663 13.9118C59.5477 13.8577 59.4842 13.8009 59.4759 13.7415C59.4704 13.7019 59.4889 13.6539 59.5316 13.5974C59.5841 13.5396 59.6351 13.5073 59.6846 13.5003C59.7341 13.4934 59.8091 13.488 59.9095 13.4841C60.0198 13.4788 60.174 13.4623 60.3721 13.4347C60.9664 13.3517 61.3775 13.0419 61.6055 12.5053C61.8434 11.9672 61.9015 11.2624 61.7799 10.3909C61.6693 9.59854 61.355 9.04669 60.837 8.73531C60.3176 8.41402 59.6964 8.30383 58.9734 8.40474C58.6961 8.44345 58.4752 8.52476 58.3108 8.64868C58.1449 8.7627 58.0779 8.93361 58.1097 9.1614L59.0988 16.2477C59.1485 16.6043 59.2629 16.8811 59.4419 17.0783C59.6208 17.2754 59.8984 17.3831 60.2745 17.4013C60.447 17.4075 60.5757 17.4249 60.6604 17.4534C60.7452 17.482 60.7924 17.5309 60.8021 17.6002C60.8104 17.6597 60.7763 17.7048 60.6998 17.7357C60.6247 17.7764 60.5228 17.8058 60.3941 17.8238C60.1266 17.8611 59.9173 17.8802 59.766 17.8812C59.6245 17.8807 59.4937 17.8838 59.3735 17.8905C59.2618 17.8859 59.1118 17.8967 58.9237 17.923C58.6761 17.9576 58.4546 17.9986 58.2593 18.046C58.0725 18.0822 57.8814 18.124 57.6861 18.1714C57.5007 18.2175 57.2743 18.2592 57.0069 18.2965Z" fill="#363138"/>
<path d="M70.1216 17.4902C69.4625 17.4546 68.8396 17.3057 68.2529 17.0437C67.6668 16.7716 67.1556 16.4085 66.7195 15.9543C66.284 15.4901 65.9476 14.9512 65.7104 14.3375C65.4737 13.7138 65.3753 13.0325 65.4153 12.2935C65.452 11.6145 65.5969 10.9714 65.8501 10.3642C66.1038 9.747 66.4586 9.20537 66.9144 8.7393C67.3702 8.27323 67.9255 7.91269 68.5802 7.65767C69.2349 7.40265 69.9767 7.29754 70.8055 7.34236C71.4645 7.378 72.0871 7.53184 72.6733 7.80388C73.26 8.06595 73.7711 8.42907 74.2067 8.89327C74.6428 9.34748 74.9792 9.88643 75.2159 10.5101C75.4531 11.1238 75.5517 11.8001 75.5118 12.5391C75.4756 13.2081 75.3306 13.8512 75.0769 14.4684C74.8233 15.0856 74.4685 15.6272 74.0127 16.0933C73.5568 16.5594 73.0016 16.9199 72.3468 17.1749C71.6921 17.4299 70.9503 17.5351 70.1216 17.4902ZM70.3786 16.9033C71.1475 16.9448 71.7952 16.8196 72.3217 16.5276C72.8488 16.2256 73.2528 15.7918 73.5338 15.2262C73.8253 14.6511 73.9921 13.9741 74.0342 13.1952C74.0714 12.5062 74.0266 11.8529 73.8998 11.2351C73.773 10.6174 73.5622 10.0702 73.2675 9.59358C72.9834 9.10753 72.6136 8.722 72.1584 8.437C71.7031 8.15201 71.1609 7.9925 70.5318 7.95848C69.7829 7.91799 69.1452 8.04374 68.6187 8.33573C68.0921 8.62773 67.6834 9.05628 67.3924 9.6214C67.1021 10.1765 66.9358 10.8435 66.8937 11.6224C66.8559 12.3214 66.8954 12.9795 67.0123 13.5967C67.1391 14.2144 67.3446 14.7663 67.6288 15.2524C67.9229 15.739 68.2974 16.1298 68.7521 16.4247C69.2074 16.7097 69.7495 16.8692 70.3786 16.9033Z" fill="#363138"/>
<path d="M76.3963 17.9189C76.2701 17.8878 76.1718 17.8481 76.1013 17.7998C76.0284 17.7612 75.9991 17.7128 76.0135 17.6545C76.0422 17.538 76.224 17.4902 76.5588 17.511C76.9445 17.534 77.2536 17.4918 77.4861 17.3844C77.7186 17.2769 77.8767 17.0533 77.9606 16.7135L79.5844 10.1308C79.6682 9.79098 79.6552 9.53029 79.5455 9.34873C79.4455 9.16957 79.2195 9.0005 78.8673 8.84153C78.5612 8.70424 78.425 8.56763 78.4585 8.43171C78.4729 8.37345 78.5213 8.3442 78.6038 8.34394C78.6886 8.33397 78.7942 8.34456 78.9204 8.37569C79.1825 8.44035 79.3949 8.4979 79.5576 8.54832C79.73 8.60114 79.8926 8.65157 80.0456 8.6996C80.2009 8.73791 80.3902 8.78462 80.6135 8.8397L84.2253 9.73064C84.2447 9.73543 84.3345 9.74728 84.4946 9.76618C84.6668 9.77777 84.7724 9.78835 84.8112 9.79793C84.8598 9.80991 84.8865 9.84741 84.8916 9.91046C84.9087 9.96619 84.9137 10.0086 84.9065 10.0377C84.8396 10.3508 84.7944 10.6178 84.7708 10.8385C84.757 11.0617 84.7201 11.2947 84.6602 11.5374C84.6363 11.6345 84.5928 11.7062 84.5299 11.7524C84.4694 11.789 84.4197 11.8025 84.3809 11.7929C84.3323 11.781 84.2763 11.7156 84.2129 11.597C84.1592 11.4808 84.1322 11.3814 84.1319 11.2989C84.1413 11.1776 84.136 11.0321 84.116 10.8624C84.1082 10.6854 84.047 10.5158 83.9325 10.3537C83.8277 10.1939 83.6297 10.0781 83.3384 10.0063L81.4161 9.53206C81.2899 9.50092 81.1747 9.52918 81.0707 9.61681C80.9667 9.70445 80.8991 9.81138 80.868 9.9376L80.2393 12.4862C80.1818 12.7192 80.1472 12.9012 80.1355 13.0322C80.1238 13.1632 80.1568 13.2383 80.2344 13.2575C80.2539 13.2623 80.2684 13.2659 80.2781 13.2683C80.2878 13.2707 80.2988 13.2682 80.3109 13.2609C80.5 13.2457 80.7219 13.2438 80.9766 13.2552C81.2434 13.2592 81.5613 13.3067 81.9302 13.3977C82.8137 13.6156 83.4602 14.0223 83.8695 14.6177C84.2812 15.2033 84.3829 15.9185 84.1745 16.7632C84.0428 17.2971 83.8512 17.6979 83.5998 17.9655C83.3581 18.2355 83.1004 18.4243 82.8267 18.5318C82.5627 18.6418 82.3301 18.7286 82.129 18.7923C81.7946 18.8952 81.4237 18.9376 81.0161 18.9195C80.6086 18.9014 80.1621 18.8324 79.6767 18.7127C79.5796 18.6887 79.4364 18.6431 79.247 18.5758C79.0576 18.5084 78.8488 18.4363 78.6206 18.3594C78.3923 18.2825 78.1714 18.2178 77.9578 18.1651C77.7539 18.1148 77.5865 18.0838 77.4555 18.072C77.3245 18.0603 77.1789 18.045 77.0188 18.0261C76.866 18.0193 76.6585 17.9836 76.3963 17.9189ZM80.0279 18.1659C80.4065 18.2593 80.7897 18.2508 81.1774 18.1404C81.5748 18.0325 81.9259 17.841 82.2307 17.566C82.5378 17.2812 82.7429 16.9301 82.8458 16.5126C82.9392 16.134 82.9528 15.8077 82.8864 15.5339C82.8225 15.2503 82.7271 15.0105 82.6004 14.8144C82.4737 14.6184 82.3507 14.4696 82.2316 14.3681C82.1245 14.2593 81.9495 14.1337 81.7065 13.9914C81.4756 13.8418 81.1757 13.7214 80.8068 13.6304C80.5932 13.5777 80.3943 13.5699 80.2101 13.6068C80.038 13.6365 79.9268 13.7532 79.8765 13.9571L79.1616 16.8552C79.0801 17.1853 79.1138 17.4666 79.2624 17.6989C79.4135 17.9216 79.6686 18.0772 80.0279 18.1659Z" fill="#363138"/>
<path d="M84.1805 19.7266C84.0629 19.6711 83.9765 19.6082 83.9212 19.5379C83.8617 19.4766 83.8447 19.4188 83.8704 19.3646C83.9131 19.2742 84.0919 19.2701 84.4069 19.3525C84.7804 19.4514 85.051 19.4521 85.2188 19.3543C85.3957 19.2609 85.5609 19.0514 85.7146 18.7259L88.6094 12.5949C88.7588 12.2784 88.8273 12.0398 88.8147 11.879C88.8155 11.7135 88.659 11.518 88.3452 11.2924C88.0724 11.0973 87.9617 10.9454 88.0129 10.8369C88.0385 10.7827 88.0894 10.7569 88.1655 10.7597C88.2459 10.7534 88.3539 10.7823 88.4895 10.8463C88.7337 10.9616 88.9214 11.0558 89.0528 11.1289C89.1842 11.202 89.3065 11.2708 89.4198 11.3353C89.5373 11.3908 89.6865 11.4613 89.8674 11.5467C90.0573 11.6363 90.211 11.7089 90.3286 11.7644C90.4594 11.8151 90.5948 11.868 90.7347 11.923C90.8837 11.9823 91.0802 12.0696 91.3244 12.1848C91.5866 12.3087 91.69 12.4293 91.6345 12.5469C91.6046 12.6102 91.545 12.6428 91.4555 12.6449C91.3661 12.6469 91.2381 12.6252 91.0716 12.5797C90.7071 12.485 90.4141 12.4849 90.1926 12.5794C89.9844 12.6691 89.8183 12.845 89.6945 13.1073L88.4329 15.7794C88.4072 15.8336 88.4128 15.8805 88.4495 15.9199C88.4904 15.9503 88.529 15.974 88.5651 15.9911L93.5974 18.3671C93.6607 18.397 93.718 18.3577 93.7692 18.2492L95.018 15.6042C95.1333 15.3601 95.1661 15.1267 95.1163 14.9042C95.0666 14.6816 94.8849 14.4576 94.5711 14.232C94.4302 14.1323 94.3321 14.0473 94.2769 13.977C94.2216 13.9066 94.2089 13.8398 94.2388 13.7765C94.2943 13.659 94.4532 13.6621 94.7154 13.7859C94.9596 13.9012 95.1564 13.9997 95.3058 14.0813C95.4643 14.1672 95.6138 14.2488 95.7542 14.3262C95.8989 14.3945 96.0707 14.4756 96.2696 14.5695C96.4324 14.6464 96.559 14.7062 96.6494 14.7489C96.7441 14.7825 96.8524 14.8226 96.9742 14.869C97.096 14.9155 97.279 14.9964 97.5232 15.1116C97.6498 15.1714 97.7362 15.2343 97.7824 15.3004C97.8419 15.3617 97.8589 15.4194 97.8333 15.4737C97.782 15.5822 97.5944 15.5931 97.2704 15.5065C96.9059 15.4118 96.6512 15.4243 96.5063 15.5438C96.3614 15.6634 96.227 15.8543 96.1032 16.1166L93.2084 22.2475C93.0504 22.5821 92.978 22.8409 92.991 23.0241C93.0132 23.2114 93.1766 23.4158 93.4812 23.637C93.745 23.8279 93.8555 23.9686 93.8128 24.059C93.7872 24.1133 93.7318 24.1369 93.6467 24.1298C93.5573 24.1319 93.4538 24.1051 93.3362 24.0496C93.0921 23.9343 92.9064 23.8356 92.7793 23.7535C92.648 23.6804 92.5256 23.6116 92.4123 23.547C92.2991 23.4825 92.1475 23.4054 91.9576 23.3157C91.7677 23.2261 91.6073 23.1559 91.4764 23.1051C91.3546 23.0587 91.2192 23.0058 91.0703 22.9465C90.917 22.8963 90.7183 22.8136 90.4742 22.6983C90.3566 22.6428 90.2702 22.5799 90.215 22.5095C90.1554 22.4482 90.1385 22.3905 90.1641 22.3362C90.194 22.2729 90.247 22.2426 90.3231 22.2454C90.4082 22.2524 90.5341 22.2787 90.7006 22.3241C91.0156 22.4065 91.2908 22.4093 91.5261 22.3324C91.7748 22.2507 91.9674 22.0652 92.1041 21.7759L93.3529 19.1309C93.3743 19.0857 93.3956 19.0404 93.417 18.9952C93.4383 18.95 93.4264 18.9167 93.3812 18.8954L88.1997 16.4489C88.1545 16.4276 88.1084 16.4666 88.0614 16.5661L86.8446 19.1433C86.7122 19.4236 86.7009 19.7168 86.8107 20.023C86.9248 20.3202 87.1227 20.5684 87.4045 20.7679C87.5455 20.8676 87.6412 20.9459 87.6917 21.003C87.7512 21.0642 87.766 21.1265 87.7361 21.1898C87.7105 21.2441 87.6551 21.2677 87.57 21.2607C87.4806 21.2627 87.3771 21.2359 87.2595 21.1804C87.0154 21.0652 86.8162 20.9601 86.6619 20.8651C86.5125 20.7835 86.3675 20.704 86.2271 20.6266C86.0867 20.5493 85.9125 20.4615 85.7045 20.3633C85.5146 20.2736 85.3497 20.2013 85.2098 20.1463C85.079 20.0956 84.9345 20.0384 84.7765 19.9749C84.6233 19.9247 84.4246 19.8419 84.1805 19.7266Z" fill="#363138"/>
<path d="M98.3732 27.8632C97.8539 27.4558 97.4293 26.9764 97.0993 26.425C96.7755 25.8658 96.5653 25.2751 96.4689 24.6528C96.3787 24.0227 96.4126 23.3883 96.5706 22.7496C96.7348 22.103 97.0453 21.4887 97.5021 20.9065C97.9219 20.3716 98.4097 19.9281 98.9656 19.5762C99.5276 19.2164 100.129 18.9765 100.77 18.8565C101.411 18.7365 102.072 18.76 102.755 18.9269C103.437 19.0939 104.105 19.4336 104.758 19.946C105.277 20.3535 105.699 20.8368 106.022 21.396C106.352 21.9474 106.563 22.5381 106.653 23.1682C106.749 23.7905 106.715 24.4249 106.551 25.0715C106.393 25.7101 106.086 26.3206 105.629 26.9027C105.215 27.4298 104.727 27.8732 104.165 28.233C103.603 28.5928 103.002 28.8327 102.361 28.9527C101.721 29.0727 101.059 29.0493 100.376 28.8823C99.6938 28.7153 99.0261 28.3756 98.3732 27.8632ZM98.9206 27.5301C99.5263 28.0055 100.129 28.2747 100.727 28.3378C101.332 28.3931 101.912 28.2697 102.467 27.9678C103.036 27.6642 103.561 27.2056 104.042 26.5919C104.468 26.0491 104.807 25.4884 105.057 24.9097C105.308 24.3311 105.45 23.762 105.482 23.2026C105.528 22.6415 105.447 22.1136 105.237 21.6189C105.028 21.1242 104.676 20.6824 104.18 20.2934C103.59 19.8304 102.996 19.5674 102.397 19.5043C101.798 19.4411 101.218 19.5575 100.655 19.8532C100.098 20.1411 99.5795 20.5919 99.098 21.2055C98.6658 21.7562 98.3204 22.3178 98.0619 22.8902C97.8111 23.4689 97.6626 24.0388 97.6164 24.5999C97.5779 25.1672 97.6603 25.7021 97.8633 26.2047C98.0725 26.6994 98.425 27.1412 98.9206 27.5301Z" fill="#363138"/>
<path d="M103.394 31.9245C103.309 31.8264 103.251 31.7374 103.221 31.6573C103.184 31.5839 103.187 31.5274 103.233 31.488C103.323 31.4092 103.499 31.4746 103.761 31.6841C104.064 31.9247 104.334 32.0604 104.573 32.0911C104.812 32.1218 105.067 32.0189 105.339 31.7825L110.43 27.3503C110.701 27.1139 110.844 26.8899 110.859 26.6783C110.88 26.4742 110.792 26.2059 110.596 25.8733C110.507 25.7254 110.455 25.6048 110.44 25.5117C110.425 25.4185 110.444 25.3489 110.497 25.303C110.542 25.2636 110.599 25.2675 110.666 25.3147C110.741 25.3553 110.822 25.4247 110.907 25.5227C111.156 25.8093 111.363 26.0539 111.526 26.2566C111.696 26.4668 111.859 26.6695 112.016 26.8646C112.186 27.0607 112.387 27.2907 112.616 27.5547C112.833 27.8036 113.06 28.0638 113.296 28.3353C113.546 28.6078 113.773 28.8609 113.977 29.0947C114.208 29.3446 114.399 29.5563 114.55 29.7297C114.715 29.9042 114.811 30.0065 114.837 30.0367C114.87 30.0744 114.898 30.1224 114.923 30.1808C114.947 30.2392 114.943 30.2886 114.912 30.3289C114.734 30.5505 114.556 30.7721 114.377 30.9937C114.206 31.2087 114.046 31.3818 113.895 31.5131C113.827 31.5722 113.765 31.5928 113.71 31.5748C113.661 31.5643 113.62 31.5402 113.587 31.5025C113.554 31.4648 113.539 31.4318 113.541 31.4036C113.55 31.3688 113.567 31.3275 113.592 31.2796C113.687 31.1302 113.775 30.9875 113.856 30.8512C113.943 30.7085 113.991 30.5877 113.998 30.4889C114.026 30.2783 114.004 30.0924 113.93 29.9314C113.863 29.7638 113.768 29.6083 113.643 29.465L112.353 27.983C112.3 27.9227 112.194 27.8693 112.034 27.8228C111.874 27.7763 111.742 27.799 111.636 27.8909L109.238 29.979C109.17 30.0381 109.126 30.1095 109.106 30.1932C109.1 30.2778 109.12 30.3465 109.166 30.3993L110.141 31.5193C110.332 31.738 110.501 31.8561 110.648 31.8734C110.804 31.8841 111.01 31.8239 111.267 31.6929C111.472 31.5937 111.614 31.5893 111.693 31.6798C111.719 31.71 111.731 31.7533 111.727 31.8097C111.729 31.8737 111.7 31.932 111.64 31.9845C111.61 32.0107 111.539 32.0661 111.427 32.1505C111.321 32.2424 111.208 32.3338 111.089 32.4248C110.969 32.5157 110.879 32.5875 110.819 32.64C110.743 32.7057 110.641 32.7943 110.513 32.9059C110.399 33.0185 110.285 33.1241 110.172 33.2226C110.066 33.3286 109.997 33.3948 109.967 33.421C109.914 33.467 109.863 33.4989 109.812 33.5166C109.768 33.5419 109.726 33.5319 109.686 33.4867C109.588 33.3735 109.633 33.1817 109.822 32.9113C109.956 32.715 110.032 32.543 110.049 32.3954C110.066 32.2477 110.009 32.0985 109.878 31.9476L108.962 30.8955C108.85 30.7673 108.746 30.6857 108.649 30.6506C108.566 30.6165 108.461 30.6553 108.333 30.767L106.161 32.6581C105.874 32.9076 105.727 33.1419 105.719 33.3611C105.718 33.5737 105.829 33.8082 106.053 34.0646L106.782 34.9018C106.992 35.1432 107.177 35.3332 107.338 35.4719C107.512 35.6115 107.69 35.7089 107.87 35.7639C108.058 35.8123 108.26 35.8227 108.474 35.795C108.695 35.7749 108.971 35.7266 109.303 35.6503C109.368 35.6335 109.428 35.6271 109.485 35.631C109.541 35.6349 109.582 35.659 109.607 35.7033C109.633 35.7476 109.64 35.7941 109.63 35.843C109.627 35.8854 109.603 35.9262 109.557 35.9656C109.489 36.0247 109.352 36.1109 109.146 36.2242C108.947 36.331 108.731 36.433 108.498 36.5302C108.271 36.635 108.085 36.7108 107.94 36.7574C107.867 36.7808 107.802 36.7976 107.745 36.8078C107.694 36.8255 107.649 36.8118 107.609 36.7665C107.294 36.4045 107.006 36.0656 106.744 35.7498C106.483 35.434 106.234 35.1333 105.999 34.8477C105.763 34.562 105.531 34.2802 105.302 34.0021C105.08 33.7316 104.844 33.453 104.594 33.1664C104.45 33.0005 104.321 32.8604 104.209 32.7463C104.089 32.6388 103.969 32.5242 103.85 32.4025C103.723 32.2875 103.571 32.1281 103.394 31.9245Z" fill="#363138"/>
<path d="M113.242 46.3293C113.079 45.9638 112.98 45.6303 112.944 45.3288C112.912 45.0364 112.898 44.7582 112.901 44.4942C112.906 44.3825 112.927 44.2581 112.965 44.121C113.011 43.9799 113.09 43.8737 113.201 43.8026C113.38 43.6898 113.594 43.5562 113.843 43.4017C114.101 43.2431 114.353 43.109 114.6 42.9992C114.655 42.9748 114.713 42.9818 114.773 43.0204C114.848 43.064 114.899 43.1178 114.927 43.1817C114.952 43.2366 114.8 43.4357 114.471 43.779C114.081 44.1823 113.822 44.6206 113.693 45.0938C113.574 45.563 113.597 45.9849 113.764 46.3594C113.98 46.8436 114.271 47.1902 114.637 47.3991C115.004 47.6081 115.398 47.7064 115.819 47.6939C116.25 47.6774 116.662 47.5818 117.054 47.4069C117.411 47.2483 117.718 47.0405 117.975 46.7835C118.237 46.5356 118.409 46.2456 118.491 45.9135C118.587 45.5865 118.551 45.2357 118.384 44.8612C118.356 44.7972 118.323 44.7353 118.285 44.6754C118.247 44.6155 118.208 44.5511 118.166 44.4821C118.124 44.413 118.072 44.3324 118.009 44.24C117.955 44.1436 117.898 44.0268 117.837 43.8898C117.808 43.8258 117.778 43.7462 117.747 43.6507C117.728 43.5604 117.721 43.4705 117.725 43.3812C117.742 43.2969 117.792 43.2365 117.874 43.1999C117.993 43.147 118.108 43.1723 118.22 43.2758C118.336 43.3884 118.414 43.4904 118.455 43.5818C118.512 43.7097 118.552 43.8122 118.575 43.8894C118.612 43.9716 118.635 44.0488 118.646 44.1208C118.669 44.198 118.694 44.2797 118.722 44.366C118.753 44.4614 118.802 44.5822 118.867 44.7284C118.985 44.9933 119.16 45.1669 119.394 45.249C119.637 45.327 119.9 45.3411 120.185 45.2912C120.482 45.2463 120.763 45.1649 121.028 45.047C121.293 44.9291 121.553 44.7639 121.809 44.5516C122.069 44.3483 122.247 44.0832 122.342 43.7562C122.446 43.4252 122.393 43.0221 122.181 42.5471C122.018 42.1816 121.737 41.9183 121.337 41.7571C120.941 41.605 120.396 41.585 119.701 41.6971C119.593 41.7236 119.486 41.7054 119.381 41.6425C119.277 41.5796 119.216 41.5299 119.2 41.4933C119.184 41.4568 119.211 41.4065 119.281 41.3425C119.351 41.2785 119.418 41.2322 119.482 41.2038C119.719 41.098 119.935 41.0182 120.13 40.9643C120.334 40.9063 120.559 40.8447 120.803 40.7796C120.885 40.7654 120.952 40.7572 121.006 40.7551C121.069 40.749 121.119 40.7759 121.157 40.8358C121.262 40.9748 121.386 41.1057 121.529 41.2285C121.671 41.3513 121.815 41.4786 121.961 41.6105C122.112 41.7516 122.25 41.9033 122.377 42.0657C122.513 42.224 122.628 42.4082 122.722 42.6183C122.925 43.0751 123.041 43.5436 123.068 44.0239C123.105 44.5001 123.025 44.9352 122.829 45.3292C122.632 45.7233 122.282 46.0322 121.78 46.2558C121.277 46.4795 120.822 46.5397 120.415 46.4363C120.017 46.3289 119.636 46.0992 119.271 45.7471C119.246 45.7146 119.215 45.7065 119.178 45.7227C119.151 45.7349 119.136 45.7634 119.134 45.8081C119.174 46.1187 119.181 46.4548 119.156 46.8163C119.144 47.1828 119.032 47.5337 118.82 47.8689C118.617 48.2 118.251 48.4835 117.721 48.7194C117.2 48.9512 116.706 49.0342 116.239 48.9685C115.785 48.9078 115.363 48.7456 114.972 48.4818C114.585 48.2272 114.245 47.9076 113.954 47.5229C113.662 47.1383 113.425 46.7404 113.242 46.3293Z" fill="#363138"/>
<path d="M115.368 50.4379C115.336 50.3118 115.33 50.2051 115.35 50.1177C115.359 50.0328 115.393 49.9831 115.451 49.9685C115.519 49.9515 115.587 49.9757 115.655 50.0411C115.735 50.1138 115.819 50.2217 115.906 50.3647C116.047 50.5975 116.222 50.8011 116.431 50.9756C116.639 51.1501 116.943 51.2699 117.34 51.3351C118.029 51.4511 118.673 51.5525 119.272 51.6394C119.874 51.736 120.462 51.8205 121.037 51.8929C121.612 51.9653 122.207 52.0376 122.823 52.11C123.452 52.1896 124.131 52.2668 124.861 52.3414C125.009 52.3559 125.156 52.3655 125.301 52.3703C125.447 52.375 125.598 52.3628 125.756 52.3336C125.807 52.4136 125.858 52.4936 125.909 52.5736C125.96 52.6536 126.025 52.7299 126.105 52.8026C126.186 52.8753 126.287 52.9117 126.411 52.9116C126.537 52.9212 126.623 52.9357 126.669 52.9551C126.682 52.9623 126.689 52.9708 126.691 52.9805C126.696 52.9999 126.69 53.0169 126.673 53.0315C126.639 53.0606 126.594 53.0873 126.539 53.1116C126.485 53.1456 126.432 53.1796 126.379 53.2136C125.7 53.6312 125.009 54.0621 124.306 54.5065C123.603 54.9508 122.921 55.3793 122.262 55.7921C121.615 56.2121 121.029 56.5908 120.506 56.9283C119.994 57.273 119.578 57.5474 119.258 57.7513C118.904 57.9844 118.65 58.2029 118.495 58.4067C118.34 58.6105 118.244 58.8046 118.208 58.989C118.174 59.183 118.162 59.3819 118.172 59.5856C118.184 59.7578 118.166 59.8912 118.118 59.9859C118.079 60.078 118.025 60.1327 117.958 60.1497C117.899 60.1643 117.851 60.1352 117.812 60.0625C117.773 59.9897 117.738 59.8903 117.706 59.7642C117.672 59.6284 117.636 59.4417 117.597 59.204C117.548 58.9688 117.501 58.7178 117.454 58.4511C117.398 58.1867 117.342 57.943 117.287 57.7199C117.24 57.5356 117.193 57.3465 117.144 57.1525C117.096 56.9585 117.046 56.7803 116.995 56.6178C116.953 56.4529 116.918 56.3123 116.889 56.1959C116.857 56.0698 116.846 55.9643 116.856 55.8794C116.866 55.7945 116.9 55.7447 116.958 55.7301C117.026 55.7131 117.096 55.747 117.169 55.8319C117.242 55.9167 117.304 56.0197 117.355 56.141C117.483 56.4489 117.623 56.6562 117.773 56.7628C117.924 56.8694 118.077 56.9033 118.232 56.8643C118.377 56.8279 118.577 56.7416 118.832 56.6056C119.099 56.4769 119.376 56.33 119.665 56.1649C119.963 55.9973 120.224 55.8444 120.447 55.706C120.519 55.6671 120.553 55.6174 120.548 55.5567C120.556 55.5034 120.542 55.4088 120.508 55.273L119.819 52.5231C119.809 52.4843 119.779 52.4455 119.728 52.4067C119.689 52.3752 119.611 52.3535 119.495 52.3414C119.391 52.3366 119.223 52.3271 118.993 52.3127C118.772 52.2958 118.537 52.2826 118.287 52.2731C118.037 52.2636 117.814 52.2577 117.618 52.2554C117.421 52.2531 117.299 52.258 117.25 52.2702C117.037 52.3237 116.878 52.4511 116.774 52.6525C116.679 52.8514 116.632 53.0746 116.632 53.322C116.625 53.664 116.568 53.8483 116.462 53.8751C116.404 53.8897 116.35 53.8618 116.302 53.7915C116.263 53.7188 116.228 53.6194 116.196 53.4933C116.164 53.3672 116.123 53.1817 116.072 52.9367C116.021 52.6918 115.961 52.4335 115.893 52.1619C115.813 51.8419 115.72 51.5351 115.616 51.2417C115.511 50.9483 115.429 50.6804 115.368 50.4379ZM120.397 52.7956L120.963 55.0508C120.997 55.1866 121.038 55.2484 121.087 55.2362C121.106 55.2314 121.124 55.2216 121.141 55.2071C121.17 55.1998 121.198 55.1876 121.225 55.1706L124.49 53.1457C124.65 53.0437 124.727 52.9782 124.719 52.9491C124.715 52.9297 124.622 52.9116 124.443 52.8947L120.546 52.4644C120.483 52.4596 120.442 52.4596 120.423 52.4645C120.374 52.4766 120.351 52.5082 120.354 52.5591C120.358 52.6198 120.373 52.6986 120.397 52.7956Z" fill="#363138"/>
<path d="M117.93 60.5196C117.926 60.3897 117.943 60.2841 117.98 60.2029C118.008 60.122 118.051 60.0806 118.111 60.0788C118.211 60.0757 118.296 60.2331 118.366 60.5511C118.448 60.9288 118.57 61.1701 118.734 61.2751C118.897 61.3901 119.159 61.4421 119.519 61.431L126.296 61.2217C126.645 61.2109 126.889 61.1633 127.027 61.079C127.174 61.0044 127.277 60.7761 127.336 60.3942C127.385 60.0625 127.47 59.8948 127.59 59.8911C127.65 59.8892 127.696 59.9228 127.728 59.9918C127.77 60.0606 127.794 60.1699 127.798 60.3198C127.807 60.5897 127.808 60.7998 127.803 60.95C127.798 61.1002 127.792 61.2405 127.786 61.3707C127.79 61.5007 127.795 61.6656 127.801 61.8655C127.808 62.0754 127.813 62.2453 127.817 62.3752C127.831 62.5149 127.846 62.6595 127.86 62.8091C127.875 62.9687 127.887 63.1835 127.895 63.4533C127.904 63.7432 127.844 63.8901 127.714 63.8942C127.644 63.8963 127.588 63.858 127.545 63.7793C127.503 63.7006 127.464 63.5767 127.429 63.4077C127.347 63.0401 127.214 62.7791 127.029 62.6247C126.855 62.48 126.623 62.4121 126.333 62.4211L123.379 62.5123C123.319 62.5142 123.28 62.5404 123.261 62.591C123.253 62.6413 123.249 62.6864 123.251 62.7264L123.422 68.2887C123.425 68.3587 123.486 68.3918 123.606 68.3881L126.529 68.2978C126.799 68.2895 127.022 68.2126 127.197 68.0671C127.373 67.9216 127.49 67.6579 127.548 67.2759C127.573 67.105 127.604 66.979 127.641 66.8978C127.679 66.8166 127.733 66.7749 127.803 66.7728C127.933 66.7688 128.002 66.9117 128.011 67.2016C128.019 67.4714 128.021 67.6915 128.016 67.8617C128.012 68.0419 128.007 68.2122 128.002 68.3724C128.007 68.5323 128.013 68.7222 128.02 68.9421C128.025 69.122 128.03 69.262 128.033 69.3619C128.046 69.4616 128.059 69.5762 128.073 69.7058C128.087 69.8355 128.099 70.0352 128.107 70.3051C128.111 70.445 128.094 70.5506 128.057 70.6218C128.029 70.7027 127.985 70.744 127.925 70.7459C127.805 70.7496 127.71 70.5875 127.64 70.2595C127.559 69.8918 127.432 69.6706 127.26 69.5959C127.087 69.5212 126.856 69.4883 126.566 69.4973L119.789 69.7066C119.42 69.718 119.156 69.7711 118.999 69.866C118.842 69.9709 118.734 70.2094 118.676 70.5814C118.626 70.9031 118.551 71.0655 118.451 71.0685C118.391 71.0704 118.345 71.0318 118.312 70.9528C118.27 70.874 118.247 70.7697 118.243 70.6398C118.234 70.3699 118.238 70.1597 118.253 70.0091C118.258 69.8589 118.264 69.7187 118.27 69.5884C118.276 69.4582 118.276 69.2881 118.269 69.0782C118.263 68.8683 118.252 68.6935 118.238 68.5539C118.224 68.4243 118.21 68.2797 118.195 68.12C118.17 67.9607 118.153 67.7461 118.145 67.4763C118.141 67.3463 118.158 67.2408 118.195 67.1596C118.223 67.0787 118.266 67.0373 118.326 67.0355C118.396 67.0333 118.447 67.0667 118.479 67.1358C118.512 67.2148 118.546 67.3388 118.581 67.5078C118.651 67.8258 118.774 68.0722 118.949 68.2468C119.135 68.4312 119.388 68.5184 119.707 68.5085L122.631 68.4182C122.681 68.4167 122.731 68.4151 122.781 68.4136C122.831 68.4121 122.855 68.3863 122.854 68.3363L122.677 62.609C122.675 62.5591 122.619 62.5358 122.509 62.5392L119.661 62.6272C119.351 62.6367 119.085 62.76 118.862 62.997C118.649 63.2337 118.518 63.5229 118.468 63.8646C118.444 64.0354 118.417 64.1563 118.39 64.2272C118.362 64.3081 118.313 64.3496 118.243 64.3517C118.183 64.3536 118.137 64.315 118.105 64.236C118.062 64.1572 118.039 64.0529 118.035 63.923C118.027 63.6531 118.03 63.4279 118.044 63.2474C118.049 63.0771 118.054 62.9119 118.059 62.7517C118.064 62.5914 118.063 62.3964 118.056 62.1665C118.049 61.9566 118.039 61.7768 118.024 61.6272C118.01 61.4876 117.995 61.333 117.98 61.1634C117.955 61.0041 117.938 60.7895 117.93 60.5196Z" fill="#363138"/>
<path d="M118.181 72.7761C118.208 72.6489 118.245 72.5492 118.29 72.4771C118.326 72.403 118.374 72.3721 118.433 72.3844C118.55 72.4092 118.604 72.5892 118.595 72.9244C118.585 73.3107 118.647 73.5742 118.781 73.7148C118.915 73.8554 119.158 73.9628 119.51 74.037L126.145 75.4342C126.487 75.5063 126.735 75.5177 126.889 75.4682C127.05 75.4307 127.204 75.2332 127.351 74.8757C127.477 74.5652 127.609 74.4243 127.746 74.4532C127.805 74.4656 127.836 74.5129 127.839 74.5953C127.852 74.6798 127.845 74.7856 127.818 74.9129C127.762 75.1771 127.714 75.3815 127.673 75.5262C127.633 75.671 127.594 75.8059 127.558 75.931C127.531 76.0583 127.497 76.2197 127.456 76.4154C127.412 76.6209 127.377 76.7873 127.35 76.9145C127.331 77.0535 127.311 77.1975 127.29 77.3463C127.267 77.5049 127.228 77.7164 127.172 77.9806C127.145 78.1078 127.109 78.2074 127.063 78.2795C127.027 78.3537 126.98 78.3846 126.921 78.3722C126.852 78.3578 126.802 78.3063 126.769 78.2177C126.737 78.1291 126.724 77.9986 126.729 77.826C126.737 77.4495 126.669 77.1645 126.526 76.9708C126.391 76.789 126.181 76.6682 125.897 76.6084L120.334 75.4369C120.237 75.4163 120.17 75.4175 120.134 75.4407C120.099 75.4639 120.1 75.5051 120.139 75.5643L124.594 82.4348C124.655 82.5296 124.725 82.5852 124.804 82.6017L124.862 82.6141C125.09 82.6517 125.284 82.6007 125.447 82.4612C125.616 82.3335 125.763 82.1241 125.885 81.8331C126.012 81.5226 126.144 81.3817 126.281 81.4106C126.34 81.4229 126.371 81.4703 126.374 81.5527C126.387 81.6372 126.38 81.743 126.353 81.8702C126.297 82.1344 126.247 82.3487 126.202 82.513C126.155 82.6871 126.11 82.8513 126.068 83.0059C126.035 83.1624 125.995 83.3483 125.95 83.5636C125.913 83.7398 125.884 83.8767 125.864 83.9746C125.851 84.0843 125.836 84.2038 125.819 84.3331C125.8 84.4721 125.762 84.6737 125.707 84.9379C125.68 85.0652 125.644 85.1648 125.598 85.2369C125.562 85.3111 125.514 85.342 125.456 85.3296C125.387 85.3152 125.337 85.2637 125.304 85.1751C125.272 85.0865 125.258 84.9559 125.264 84.7834C125.272 84.4069 125.202 84.1571 125.054 84.034C124.906 83.9109 124.69 83.8195 124.407 83.7597L117.772 82.3625C117.41 82.2863 117.14 82.2806 116.963 82.3454C116.786 82.4103 116.625 82.6166 116.48 82.9642C116.416 83.1244 116.356 83.2395 116.3 83.3095C116.245 83.3796 116.183 83.4074 116.114 83.393C116.055 83.3806 116.025 83.3332 116.021 83.2508C116.009 83.1663 116.016 83.0605 116.042 82.9333C116.098 82.6691 116.152 82.4608 116.205 82.3083C116.245 82.1636 116.285 82.0238 116.324 81.8888C116.36 81.7637 116.4 81.5984 116.443 81.3929C116.487 81.1874 116.518 81.0151 116.537 80.876C116.554 80.7468 116.574 80.6028 116.597 80.4442C116.611 80.2835 116.645 80.0711 116.701 79.8069C116.728 79.6797 116.764 79.58 116.81 79.5079C116.846 79.4337 116.893 79.4028 116.952 79.4152C117.069 79.4399 117.123 79.6199 117.114 79.9552C117.107 80.2807 117.149 80.54 117.242 80.7332C117.332 80.9361 117.519 81.0675 117.802 81.1272L123.644 82.3575C123.811 82.3926 123.855 82.3508 123.778 82.2324L119.312 75.3441C119.265 75.273 119.233 75.2305 119.216 75.2166C119.196 75.2125 119.142 75.2012 119.054 75.1826C118.751 75.1187 118.518 75.1821 118.355 75.3726C118.192 75.5632 118.047 75.8186 117.918 76.1389C117.853 76.2991 117.793 76.4142 117.738 76.4842C117.682 76.5543 117.62 76.5821 117.552 76.5677C117.493 76.5553 117.462 76.5079 117.459 76.4255C117.446 76.3411 117.453 76.2352 117.48 76.108C117.535 75.8438 117.592 75.6257 117.648 75.4537C117.693 75.2894 117.737 75.13 117.78 74.9755C117.822 74.821 117.867 74.6312 117.915 74.4061C117.958 74.2006 117.99 74.0235 118.011 73.8746C118.031 73.7356 118.053 73.5818 118.078 73.4134C118.091 73.2527 118.126 73.0403 118.181 72.7761Z" fill="#363138"/>
<path d="M115.515 83.9816C115.613 83.7627 115.709 83.5864 115.802 83.4528C115.891 83.3283 115.988 83.2348 116.093 83.1723C116.123 83.1531 116.156 83.1406 116.192 83.1347C116.236 83.1328 116.277 83.1401 116.313 83.1565C116.359 83.177 116.389 83.2071 116.404 83.2467C116.429 83.2905 116.433 83.3306 116.416 83.3671C116.326 83.5678 116.293 83.8108 116.319 84.0962C116.349 84.3949 116.445 84.7288 116.608 85.0981C116.771 85.4674 117.005 85.874 117.31 86.318C117.652 86.8008 117.927 87.2975 118.136 87.8081C118.35 88.3319 118.416 88.7947 118.334 89.1964C118.327 89.237 118.337 89.2523 118.363 89.2422C118.386 89.2413 118.42 89.2018 118.466 89.1239C118.687 88.7298 118.988 88.4265 119.368 88.2139C119.745 88.0104 120.141 87.8979 120.556 87.8763C120.972 87.8548 121.343 87.9178 121.672 88.0654C122.301 88.3484 122.733 88.7289 122.968 89.2072C123.202 89.6854 123.285 90.2214 123.215 90.815C123.145 91.4087 122.971 92.0157 122.692 92.6359C122.602 92.8365 122.513 93.0103 122.425 93.1571C122.342 93.3172 122.257 93.4706 122.169 93.6175C122.081 93.7643 121.996 93.929 121.914 94.1114C121.824 94.312 121.75 94.4762 121.692 94.6039C121.644 94.7357 121.592 94.8766 121.535 95.0266C121.479 95.1766 121.395 95.3748 121.284 95.621C121.231 95.7396 121.174 95.8292 121.114 95.8899C121.063 95.9547 121.01 95.9747 120.956 95.9501C120.828 95.8927 120.804 95.7012 120.885 95.3756C120.973 95.0095 120.983 94.7181 120.916 94.5016C120.849 94.285 120.656 94.105 120.337 93.9614L114.153 91.1812C113.834 91.0377 113.558 91.0289 113.326 91.1548C113.094 91.2807 112.87 91.4981 112.655 91.8068C112.464 92.0832 112.315 92.1968 112.205 92.1476C112.151 92.123 112.13 92.0701 112.145 91.9889C112.151 91.9037 112.18 91.8017 112.233 91.6832C112.344 91.4369 112.445 91.2358 112.537 91.0798C112.616 90.9289 112.693 90.7825 112.768 90.6407C112.842 90.4988 112.927 90.323 113.021 90.1133C113.124 89.8853 113.209 89.6826 113.278 89.5052C113.343 89.3369 113.412 89.1595 113.485 88.973C113.544 88.7915 113.629 88.5776 113.74 88.3314C113.793 88.2128 113.85 88.1232 113.91 88.0625C113.961 87.9978 114.014 87.9777 114.069 88.0023C114.133 88.031 114.167 88.09 114.17 88.1794C114.174 88.2688 114.155 88.3971 114.112 88.5645C114.055 88.813 114.033 89.0332 114.046 89.2252C114.054 89.4262 114.108 89.5986 114.208 89.7422C114.308 89.8858 114.453 90.0006 114.645 90.0867L116.957 91.1262C117.185 91.2288 117.329 91.2497 117.389 91.189C117.445 91.1375 117.525 90.9977 117.627 90.7697C117.685 90.642 117.703 90.4913 117.682 90.3176C117.658 90.153 117.639 89.9747 117.627 89.7828C117.605 89.3674 117.446 88.9174 117.148 88.4328C116.851 87.9482 116.551 87.457 116.248 86.9592C116.038 86.6233 115.851 86.2818 115.689 85.9349C115.532 85.6012 115.429 85.2697 115.38 84.9405C115.33 84.6113 115.376 84.2917 115.515 83.9816ZM118.321 90.5061C118.182 90.8162 118.098 91.0748 118.071 91.2818C118.049 91.5021 118.156 91.6655 118.393 91.7721L120.829 92.867C121.193 93.031 121.505 93.045 121.764 92.9091C122.018 92.7822 122.215 92.5637 122.354 92.2537C122.514 91.8979 122.584 91.5236 122.563 91.1305C122.539 90.7466 122.428 90.3954 122.231 90.0767C122.044 89.7622 121.768 89.5229 121.403 89.3588C120.655 89.0226 120.032 88.9565 119.535 89.1604C119.033 89.3735 118.629 89.8221 118.321 90.5061Z" fill="#363138"/>
<path d="M110.12 95.108C110.195 95.0024 110.269 94.9257 110.34 94.8782C110.403 94.8248 110.458 94.8155 110.507 94.8505C110.564 94.8912 110.585 94.9558 110.571 95.0441C110.557 95.1325 110.513 95.2545 110.438 95.4101C110.274 95.7598 110.203 96.0654 110.224 96.327C110.254 96.5944 110.416 96.833 110.708 97.0426L115.44 100.432C115.814 100.7 116.104 100.895 116.311 101.019C116.526 101.148 116.688 101.222 116.799 101.239C116.903 101.265 116.983 101.248 117.038 101.189C117.144 101.093 117.243 100.979 117.336 100.849C117.432 100.733 117.555 100.569 117.707 100.358L118.117 99.7849C118.257 99.5898 118.356 99.3656 118.414 99.1122C118.475 98.8728 118.456 98.6502 118.358 98.4443C118.335 98.3908 118.303 98.3065 118.262 98.1913C118.23 98.082 118.208 97.9745 118.198 97.8687C118.188 97.7629 118.206 97.6775 118.253 97.6124C118.276 97.5799 118.31 97.5672 118.354 97.5742C118.392 97.5894 118.432 97.6115 118.472 97.6406C118.553 97.6988 118.62 97.7774 118.672 97.8763C118.827 98.159 118.976 98.3888 119.12 98.5656C119.266 98.7565 119.453 98.9584 119.682 99.1715C119.809 99.2867 119.87 99.3734 119.865 99.4315C119.854 99.4978 119.837 99.5472 119.814 99.5797C119.791 99.6122 119.707 99.626 119.563 99.6212C119.413 99.6245 119.294 99.6191 119.205 99.605C119.089 99.5956 118.95 99.6616 118.787 99.8032C118.618 99.953 118.472 100.113 118.35 100.284L115.275 104.576C115.072 104.861 114.922 105.104 114.826 105.306C114.731 105.508 114.665 105.695 114.629 105.866C114.607 105.998 114.605 106.113 114.621 106.211C114.631 106.317 114.602 106.419 114.532 106.516C114.514 106.54 114.467 106.538 114.391 106.507C114.322 106.483 114.255 106.447 114.19 106.401C114.149 106.371 114.098 106.323 114.037 106.254C113.97 106.193 113.918 106.144 113.884 106.107C113.755 105.978 113.667 105.878 113.619 105.807C113.566 105.744 113.517 105.691 113.474 105.648C113.432 105.605 113.357 105.546 113.252 105.47L113.105 105.365C113.032 105.313 112.958 105.235 112.884 105.133C112.818 105.036 112.808 104.955 112.855 104.89C112.895 104.834 112.972 104.821 113.085 104.852C113.198 104.884 113.343 104.939 113.521 105.017C113.715 105.107 113.919 105.105 114.133 105.012C114.355 104.926 114.606 104.687 114.885 104.297L115.767 103.065C115.896 102.886 115.967 102.735 115.983 102.61C115.998 102.486 115.917 102.342 115.739 102.178C115.561 102.013 115.249 101.771 114.802 101.451L110.009 98.0182C109.717 97.8085 109.436 97.7366 109.168 97.8026C108.907 97.8743 108.641 98.0402 108.368 98.3002C108.245 98.4209 108.144 98.5022 108.064 98.5439C107.985 98.5856 107.917 98.5861 107.86 98.5454C107.812 98.5104 107.802 98.4546 107.833 98.3779C107.855 98.2954 107.904 98.2013 107.98 98.0957C108.137 97.8762 108.276 97.6991 108.397 97.5644C108.504 97.432 108.608 97.3037 108.71 97.1794C108.811 97.0552 108.929 96.8996 109.063 96.7126C109.208 96.5093 109.332 96.3276 109.435 96.1673C109.531 96.0151 109.634 95.8549 109.742 95.6864C109.837 95.5203 109.962 95.3275 110.12 95.108Z" fill="#363138"/>
<path d="M105.648 101.401C105.745 101.314 105.833 101.255 105.912 101.223C105.985 101.184 106.042 101.187 106.082 101.232C106.162 101.321 106.1 101.498 105.896 101.764C105.66 102.071 105.556 102.32 105.581 102.513C105.607 102.705 105.74 102.935 105.982 103.202L110.526 108.234C110.76 108.494 110.954 108.649 111.107 108.699C111.26 108.763 111.501 108.694 111.83 108.491C112.115 108.315 112.304 108.278 112.398 108.382C112.438 108.427 112.435 108.483 112.389 108.552C112.35 108.628 112.282 108.709 112.186 108.796C111.985 108.977 111.826 109.114 111.708 109.207C111.59 109.301 111.48 109.387 111.376 109.467C111.28 109.554 111.157 109.664 111.009 109.798C110.853 109.939 110.727 110.053 110.63 110.14C110.533 110.242 110.432 110.346 110.328 110.454C110.216 110.569 110.06 110.717 109.859 110.898C109.763 110.985 109.675 111.044 109.595 111.075C109.522 111.114 109.466 111.111 109.426 111.067C109.379 111.015 109.368 110.943 109.394 110.853C109.42 110.762 109.486 110.648 109.592 110.512C109.82 110.212 109.933 109.942 109.931 109.701C109.928 109.474 109.83 109.253 109.635 109.038L105.825 104.819C105.758 104.745 105.703 104.707 105.661 104.705C105.618 104.702 105.595 104.737 105.592 104.807L105.154 112.984C105.149 113.097 105.172 113.183 105.226 113.242L105.266 113.287C105.428 113.451 105.615 113.524 105.829 113.507C106.041 113.503 106.283 113.42 106.553 113.257C106.838 113.08 107.027 113.044 107.121 113.148C107.162 113.192 107.159 113.249 107.113 113.317C107.073 113.393 107.006 113.475 106.909 113.562C106.709 113.743 106.542 113.886 106.409 113.993C106.269 114.106 106.136 114.213 106.011 114.313C105.892 114.42 105.751 114.547 105.588 114.695C105.454 114.815 105.35 114.909 105.276 114.976C105.201 115.057 105.119 115.145 105.029 115.24C104.932 115.341 104.783 115.482 104.582 115.663C104.486 115.75 104.398 115.809 104.319 115.841C104.246 115.879 104.189 115.877 104.149 115.832C104.102 115.78 104.092 115.709 104.117 115.618C104.143 115.527 104.209 115.414 104.315 115.278C104.543 114.978 104.633 114.734 104.586 114.548C104.539 114.361 104.418 114.161 104.224 113.945L99.6797 108.914C99.4317 108.639 99.2169 108.476 99.0355 108.424C98.854 108.372 98.6026 108.445 98.281 108.641C98.1348 108.732 98.0185 108.79 97.9324 108.814C97.8462 108.838 97.7796 108.824 97.7327 108.772C97.6925 108.727 97.6954 108.671 97.7414 108.603C97.7806 108.527 97.8485 108.445 97.945 108.358C98.1453 108.177 98.3116 108.04 98.4438 107.948C98.5618 107.855 98.6761 107.765 98.7867 107.679C98.8899 107.599 99.0194 107.489 99.1753 107.348C99.3311 107.207 99.4576 107.086 99.5548 106.985C99.6446 106.89 99.7455 106.786 99.8576 106.671C99.9629 106.549 100.116 106.398 100.316 106.217C100.413 106.129 100.501 106.07 100.58 106.039C100.653 106 100.709 106.003 100.75 106.048C100.83 106.137 100.768 106.314 100.563 106.58C100.366 106.839 100.248 107.073 100.209 107.284C100.162 107.501 100.236 107.717 100.431 107.932L104.432 112.363C104.546 112.489 104.606 112.482 104.614 112.34L105.052 104.143C105.057 104.058 105.056 104.005 105.05 103.983C105.036 103.968 104.999 103.927 104.939 103.861C104.731 103.631 104.506 103.545 104.262 103.603C104.018 103.662 103.75 103.782 103.458 103.966C103.311 104.057 103.195 104.115 103.109 104.139C103.023 104.163 102.956 104.149 102.909 104.097C102.869 104.053 102.872 103.996 102.918 103.928C102.957 103.852 103.025 103.77 103.121 103.683C103.322 103.502 103.496 103.359 103.643 103.253C103.775 103.146 103.905 103.043 104.03 102.943C104.155 102.844 104.304 102.717 104.474 102.563C104.63 102.422 104.76 102.297 104.865 102.189C104.962 102.088 105.07 101.977 105.19 101.856C105.295 101.733 105.448 101.582 105.648 101.401Z" fill="#363138"/>
<path d="M96.5557 109.241C96.6673 109.174 96.7652 109.133 96.8493 109.118C96.9283 109.094 96.9831 109.108 97.0138 109.16C97.0752 109.263 96.9795 109.425 96.7267 109.645C96.4361 109.9 96.2544 110.142 96.1817 110.371C96.1089 110.601 96.1646 110.87 96.3489 111.18L99.8035 116.979C99.9877 117.288 100.183 117.469 100.388 117.521C100.585 117.578 100.865 117.539 101.227 117.405C101.389 117.344 101.517 117.314 101.611 117.316C101.705 117.318 101.77 117.349 101.806 117.409C101.837 117.461 101.823 117.516 101.764 117.574C101.711 117.641 101.628 117.707 101.517 117.774C101.19 117.968 100.913 118.128 100.684 118.252C100.447 118.382 100.219 118.506 99.9989 118.626C99.7755 118.759 99.5135 118.915 99.2128 119.094C98.9293 119.263 98.6329 119.439 98.3236 119.624C98.0109 119.822 97.7214 120 97.455 120.159C97.168 120.341 96.9258 120.491 96.7282 120.609C96.5271 120.74 96.4094 120.816 96.375 120.837C96.3321 120.862 96.2797 120.882 96.2179 120.896C96.1561 120.909 96.1081 120.897 96.074 120.859C95.8877 120.644 95.7015 120.429 95.5152 120.214C95.3341 120.008 95.1923 119.819 95.09 119.647C95.0439 119.57 95.0347 119.505 95.0623 119.454C95.0813 119.408 95.1123 119.372 95.1552 119.346C95.1982 119.321 95.2334 119.311 95.2608 119.318C95.2933 119.334 95.331 119.358 95.3737 119.391C95.5037 119.511 95.6285 119.623 95.7483 119.726C95.8731 119.838 95.9835 119.906 96.0795 119.93C96.2816 119.996 96.4685 120.007 96.6402 119.963C96.8169 119.928 96.9869 119.861 97.1501 119.764L98.8383 118.758C98.907 118.717 98.9785 118.622 99.0527 118.473C99.1269 118.325 99.1282 118.19 99.0566 118.07L97.4291 115.338C97.383 115.26 97.3206 115.204 97.2418 115.17C97.1596 115.149 97.0884 115.156 97.0282 115.192L95.7524 115.952C95.5033 116.101 95.3571 116.246 95.3138 116.388C95.2755 116.539 95.298 116.753 95.3812 117.029C95.4422 117.249 95.4212 117.389 95.3181 117.451C95.2838 117.471 95.2392 117.474 95.1843 117.461C95.1209 117.452 95.0687 117.413 95.0278 117.344C95.0073 117.31 94.9655 117.23 94.9025 117.105C94.8308 116.984 94.7609 116.857 94.6927 116.723C94.6245 116.589 94.57 116.488 94.529 116.419C94.4779 116.333 94.4088 116.217 94.3218 116.071C94.2313 115.939 94.1477 115.808 94.0709 115.679C93.9855 115.556 93.9326 115.477 93.9122 115.442C93.8763 115.382 93.8542 115.326 93.8458 115.272C93.8288 115.224 93.8461 115.185 93.8976 115.154C94.0265 115.077 94.2072 115.156 94.4397 115.39C94.6089 115.557 94.7647 115.662 94.9069 115.705C95.0491 115.749 95.2061 115.719 95.3779 115.617L96.5764 114.903C96.7224 114.816 96.8213 114.728 96.8731 114.639C96.9213 114.563 96.9019 114.453 96.8149 114.307L95.341 111.832C95.1465 111.506 94.9422 111.319 94.7279 111.272C94.5188 111.234 94.2682 111.302 93.9761 111.476L93.0225 112.044C92.7476 112.208 92.5276 112.356 92.3625 112.489C92.194 112.636 92.0666 112.794 91.9803 112.961C91.8992 113.138 91.8531 113.334 91.8421 113.55C91.8226 113.771 91.8208 114.052 91.8369 114.391C91.8418 114.458 91.8374 114.519 91.8235 114.574C91.8096 114.629 91.7786 114.665 91.7305 114.682C91.6824 114.699 91.6353 114.698 91.589 114.679C91.5479 114.668 91.512 114.637 91.4813 114.586C91.4352 114.508 91.3748 114.358 91.3001 114.135C91.2304 113.92 91.1685 113.69 91.1144 113.442C91.0518 113.2 91.0104 113.004 90.9903 112.853C90.9802 112.777 90.9753 112.71 90.9755 112.652C90.967 112.599 90.9886 112.557 91.0402 112.526C91.4525 112.281 91.8374 112.057 92.1948 111.856C92.5521 111.655 92.8923 111.464 93.2153 111.283C93.5383 111.102 93.857 110.924 94.1714 110.748C94.4772 110.578 94.7933 110.395 95.1198 110.201C95.3088 110.088 95.4694 109.987 95.6018 109.896C95.729 109.797 95.8631 109.7 96.004 109.604C96.1398 109.5 96.3237 109.379 96.5557 109.241Z" fill="#363138"/>
<path d="M92.7071 68.7071C93.0976 68.3166 93.0976 67.6834 92.7071 67.2929L86.3431 60.9289C85.9526 60.5384 85.3195 60.5384 84.9289 60.9289C84.5384 61.3195 84.5384 61.9526 84.9289 62.3431L90.5858 68L84.9289 73.6569C84.5384 74.0474 84.5384 74.6805 84.9289 75.0711C85.3195 75.4616 85.9526 75.4616 86.3431 75.0711L92.7071 68.7071ZM43 69H92V67H43V69Z" fill="#19171A"/>
</svg>
