<svg width="136" height="136" viewBox="0 0 136 136" fill="none" xmlns="http://www.w3.org/2000/svg">
<path d="M65.1331 117.959C65.5321 117.987 65.8732 118.056 66.1562 118.166C66.4293 118.275 66.6817 118.393 66.9135 118.519C67.0098 118.576 67.1097 118.653 67.2132 118.751C67.316 118.858 67.3729 118.977 67.3838 119.108C67.3992 119.32 67.4167 119.572 67.4365 119.864C67.4556 120.166 67.4558 120.452 67.437 120.721C67.4329 120.781 67.3995 120.829 67.3368 120.864C67.2635 120.909 67.192 120.929 67.1221 120.925C67.0623 120.92 66.9578 120.693 66.8088 120.241C66.6354 119.708 66.3699 119.273 66.0123 118.938C65.6541 118.612 65.2704 118.435 64.8614 118.407C64.3327 118.37 63.8901 118.464 63.5335 118.69C63.177 118.916 62.9054 119.218 62.7187 119.596C62.5314 119.984 62.4228 120.392 62.3929 120.821C62.3659 121.21 62.4054 121.579 62.5115 121.927C62.6076 122.275 62.783 122.562 63.0378 122.791C63.2819 123.028 63.6085 123.161 64.0175 123.19C64.0873 123.194 64.1575 123.194 64.228 123.189C64.2986 123.184 64.3741 123.179 64.4546 123.175C64.5351 123.171 64.6309 123.162 64.742 123.15C64.8524 123.147 64.9825 123.152 65.1321 123.162C65.2019 123.167 65.2864 123.178 65.3855 123.195C65.4739 123.221 65.5566 123.257 65.6336 123.302C65.7 123.357 65.73 123.429 65.7238 123.519C65.7148 123.649 65.6383 123.738 65.4945 123.789C65.3407 123.838 65.2139 123.859 65.1142 123.852C64.9745 123.843 64.8651 123.83 64.786 123.814C64.6962 123.808 64.6171 123.793 64.5487 123.768C64.4696 123.752 64.3855 123.736 64.2964 123.72C64.1973 123.703 64.068 123.689 63.9083 123.678C63.619 123.658 63.3834 123.732 63.2013 123.9C63.0185 124.077 62.8825 124.304 62.7932 124.578C62.6933 124.862 62.6333 125.148 62.6131 125.438C62.593 125.727 62.6168 126.034 62.6843 126.36C62.7419 126.685 62.8928 126.966 63.1369 127.203C63.3803 127.451 63.7614 127.592 64.2801 127.629C64.6792 127.656 65.0437 127.531 65.3738 127.254C65.6939 126.975 65.9673 126.503 66.1941 125.837C66.2216 125.729 66.2877 125.643 66.3924 125.58C66.497 125.517 66.5692 125.487 66.6091 125.49C66.649 125.493 66.6808 125.54 66.7045 125.632C66.7282 125.724 66.7376 125.805 66.7328 125.875C66.7147 126.134 66.6838 126.362 66.64 126.56C66.5955 126.767 66.5446 126.994 66.4874 127.241C66.4619 127.319 66.4374 127.383 66.414 127.431C66.3899 127.49 66.3426 127.521 66.272 127.527C66.0997 127.555 65.9259 127.603 65.7508 127.671C65.5756 127.739 65.3955 127.806 65.2104 127.874C65.0153 127.94 64.8162 127.992 64.6133 128.028C64.4096 128.074 64.193 128.089 63.9636 128.073C63.4648 128.038 62.9968 127.92 62.5597 127.719C62.1219 127.529 61.7751 127.254 61.5194 126.895C61.2636 126.537 61.1549 126.083 61.193 125.534C61.2312 124.986 61.3914 124.556 61.6737 124.245C61.9552 123.943 62.3371 123.714 62.8191 123.557C62.8597 123.55 62.8814 123.527 62.8842 123.487C62.8862 123.457 62.868 123.43 62.8295 123.408C62.5365 123.297 62.2362 123.146 61.9288 122.954C61.6107 122.772 61.3534 122.508 61.1568 122.164C60.9595 121.829 60.881 121.373 60.9213 120.794C60.9608 120.225 61.1192 119.75 61.3963 119.369C61.6628 118.996 62.0042 118.699 62.4206 118.477C62.827 118.255 63.2685 118.105 63.745 118.028C64.2215 117.951 64.6842 117.928 65.1331 117.959Z" fill="#C4B0D9"/>
<path d="M60.5199 117.902C60.6461 117.934 60.7433 117.978 60.8114 118.036C60.8819 118.084 60.9099 118.138 60.8955 118.196C60.8788 118.264 60.8256 118.313 60.7359 118.342C60.6342 118.379 60.4996 118.402 60.3323 118.412C60.0607 118.428 59.799 118.487 59.5471 118.589C59.2951 118.692 59.0472 118.904 58.8032 119.225C58.3781 119.779 57.9868 120.301 57.6294 120.789C57.2623 121.275 56.9121 121.756 56.5789 122.23C56.2457 122.704 55.9028 123.196 55.5503 123.706C55.1857 124.224 54.7994 124.788 54.3914 125.398C54.3093 125.522 54.2321 125.647 54.1598 125.773C54.0874 125.9 54.0272 126.039 53.9792 126.192C53.8846 126.2 53.79 126.207 53.6955 126.215C53.6009 126.223 53.5027 126.245 53.401 126.281C53.2992 126.318 53.2194 126.391 53.1616 126.5C53.094 126.607 53.0408 126.677 53.0021 126.708C52.99 126.716 52.9791 126.718 52.9694 126.716C52.95 126.711 52.9378 126.698 52.9329 126.676C52.9231 126.632 52.9205 126.58 52.9251 126.519C52.9201 126.456 52.9151 126.393 52.91 126.33C52.859 125.535 52.8019 124.722 52.7387 123.893C52.6754 123.064 52.6159 122.261 52.5601 121.485C52.4923 120.717 52.4319 120.022 52.379 119.401C52.314 118.788 52.2664 118.292 52.2361 117.914C52.196 117.492 52.1222 117.165 52.0147 116.932C51.9073 116.7 51.7806 116.524 51.6347 116.406C51.4791 116.285 51.309 116.181 51.1244 116.095C50.9666 116.025 50.8572 115.946 50.7963 115.859C50.733 115.782 50.7097 115.709 50.7265 115.641C50.7408 115.583 50.7893 115.554 50.8717 115.553C50.9542 115.553 51.0585 115.569 51.1847 115.6C51.3207 115.633 51.5027 115.688 51.731 115.765C51.9616 115.833 52.2056 115.908 52.4629 115.992C52.7227 116.067 52.9642 116.131 53.1875 116.186C53.372 116.232 53.5613 116.279 53.7555 116.327C53.9497 116.374 54.1305 116.414 54.2979 116.445C54.463 116.486 54.6038 116.52 54.7203 116.549C54.8465 116.58 54.9448 116.62 55.0153 116.668C55.0858 116.716 55.1139 116.77 55.0995 116.828C55.0827 116.896 55.0198 116.942 54.9107 116.967C54.8017 116.991 54.6816 116.998 54.5506 116.986C54.2183 116.956 53.9697 116.982 53.8051 117.065C53.6404 117.148 53.5389 117.267 53.5006 117.422C53.4647 117.568 53.4472 117.785 53.4481 118.074C53.4369 118.37 53.4366 118.684 53.4474 119.016C53.4557 119.358 53.4688 119.66 53.4866 119.922C53.4869 120.004 53.5149 120.057 53.5708 120.082C53.6145 120.113 53.7044 120.145 53.8403 120.179L56.5928 120.858C56.6316 120.868 56.6801 120.859 56.7382 120.832C56.7842 120.812 56.8398 120.754 56.905 120.657C56.9581 120.567 57.045 120.424 57.1656 120.227C57.2839 120.04 57.4057 119.838 57.5312 119.622C57.6566 119.405 57.7664 119.211 57.8604 119.039C57.9545 118.866 58.0075 118.756 58.0194 118.707C58.0721 118.493 58.0339 118.293 57.9048 118.107C57.7733 117.93 57.5982 117.784 57.3795 117.669C57.0807 117.502 56.9445 117.366 56.9708 117.259C56.9852 117.2 57.0348 117.166 57.1196 117.156C57.2021 117.156 57.3064 117.172 57.4327 117.203C57.5589 117.234 57.7421 117.284 57.9825 117.354C58.2228 117.423 58.4789 117.492 58.7507 117.559C59.0711 117.638 59.3854 117.7 59.6936 117.745C60.0017 117.79 60.2772 117.843 60.5199 117.902ZM56.081 121.242L53.8237 120.685C53.6878 120.651 53.6138 120.659 53.6018 120.707C53.597 120.727 53.5971 120.747 53.602 120.769C53.5948 120.798 53.5925 120.829 53.595 120.86L53.8544 124.694C53.8696 124.883 53.8917 124.981 53.9208 124.988C53.9402 124.993 53.9994 124.92 54.0984 124.769L56.3038 121.528C56.3376 121.475 56.3569 121.438 56.3617 121.419C56.3737 121.37 56.3566 121.335 56.3104 121.314C56.2546 121.289 56.1781 121.265 56.081 121.242Z" fill="#C4B0D9"/>
<path d="M50.291 115.384C50.4075 115.442 50.495 115.502 50.5533 115.564C50.6162 115.618 50.6343 115.671 50.6077 115.725C50.5544 115.833 50.3666 115.84 50.0442 115.747C49.6726 115.642 49.3617 115.616 49.1115 115.671C48.8613 115.725 48.6585 115.909 48.5032 116.223L45.4951 122.299C45.3398 122.613 45.2961 122.87 45.364 123.071C45.4229 123.268 45.6071 123.482 45.9166 123.713C46.1858 123.913 46.2893 124.076 46.2271 124.201C46.2005 124.255 46.1469 124.273 46.0664 124.256C45.9814 124.247 45.8806 124.214 45.7641 124.156C45.5221 124.037 45.3361 123.939 45.2062 123.863C45.0672 123.783 44.9372 123.708 44.8162 123.637C44.6951 123.566 44.545 123.486 44.3658 123.397C43.7295 123.082 43.185 122.807 42.7324 122.572C42.2664 122.341 41.7869 122.104 41.294 121.86C40.8011 121.616 40.3194 121.383 39.849 121.161C39.3696 120.935 38.8162 120.666 38.1889 120.356C37.9917 120.258 37.8304 120.178 37.7049 120.116C37.575 120.063 37.4361 120.006 37.2883 119.944C37.1405 119.882 36.9456 119.791 36.7036 119.671C36.5871 119.613 36.4997 119.553 36.4413 119.491C36.3785 119.437 36.3604 119.384 36.387 119.33C36.4491 119.205 36.6413 119.188 36.9637 119.281C37.3264 119.382 37.6171 119.403 37.836 119.344C38.0549 119.285 38.242 119.099 38.3973 118.785L41.4054 112.709C41.5607 112.396 41.5797 112.12 41.4625 111.884C41.3453 111.647 41.1364 111.416 40.8359 111.189C40.5668 110.988 40.4588 110.835 40.5121 110.727C40.5387 110.673 40.5923 110.655 40.6729 110.673C40.7579 110.681 40.8586 110.715 40.9751 110.772C41.2171 110.892 41.4143 111.001 41.5667 111.099C41.7147 111.183 41.8581 111.265 41.997 111.345C42.136 111.425 42.3085 111.516 42.5147 111.618C42.7387 111.729 42.9381 111.822 43.1128 111.897C43.2786 111.968 43.4533 112.044 43.6369 112.123C43.8161 112.19 44.0267 112.283 44.2686 112.403C44.3851 112.46 44.4726 112.52 44.531 112.583C44.5938 112.636 44.6119 112.69 44.5853 112.744C44.5542 112.806 44.494 112.838 44.4045 112.838C44.3151 112.839 44.1875 112.814 44.0219 112.766C43.6502 112.66 43.3394 112.646 43.0892 112.723C42.8347 112.809 42.6341 112.988 42.4876 113.262C41.9061 114.369 41.3449 115.491 40.8038 116.629C40.2537 117.763 39.7014 118.89 39.1468 120.01C39.1246 120.055 39.1247 120.088 39.1472 120.111C39.1607 120.128 39.1808 120.144 39.2077 120.157C39.5752 120.339 39.9023 120.501 40.1891 120.643C40.4624 120.79 40.7224 120.93 40.9689 121.063C41.2154 121.196 41.4865 121.336 41.7822 121.482C42.1317 121.655 42.47 121.817 42.7971 121.968C43.1197 122.128 43.5095 122.309 43.9665 122.513C44.0113 122.535 44.0581 122.497 44.1069 122.399C44.6929 121.305 45.2632 120.198 45.8178 119.078C46.368 117.967 46.9024 116.842 47.4211 115.704C47.5497 115.422 47.5665 115.151 47.4716 114.892C47.3633 114.638 47.1588 114.397 46.8583 114.17C46.7193 114.068 46.6228 113.981 46.5688 113.91C46.5149 113.838 46.5034 113.771 46.5345 113.709C46.5611 113.655 46.6147 113.637 46.6953 113.654C46.7803 113.663 46.881 113.696 46.9975 113.754C47.2395 113.873 47.4367 113.982 47.5891 114.08C47.7371 114.164 47.8805 114.247 48.0194 114.327C48.1584 114.407 48.3309 114.498 48.5371 114.6C48.7611 114.71 48.9605 114.804 49.1352 114.879C49.3009 114.95 49.4757 115.025 49.6593 115.105C49.8385 115.171 50.049 115.264 50.291 115.384Z" fill="#C4B0D9"/>
<path d="M39.7517 110.044C39.8519 110.127 39.9233 110.206 39.9658 110.28C40.0147 110.346 40.0201 110.403 39.9818 110.449C39.9054 110.541 39.7209 110.506 39.4283 110.341C39.0908 110.153 38.8287 110.086 38.642 110.139C38.4553 110.192 38.2472 110.358 38.0178 110.635L33.6975 115.86C33.4745 116.13 33.3492 116.344 33.3217 116.503C33.28 116.663 33.3833 116.892 33.6316 117.188C33.8477 117.444 33.9111 117.626 33.8219 117.734C33.7837 117.781 33.7274 117.786 33.653 117.75C33.5722 117.722 33.4817 117.667 33.3815 117.584C33.1734 117.412 33.0148 117.275 32.9056 117.171C32.7963 117.068 32.6948 116.971 32.601 116.881C32.5008 116.798 32.3736 116.693 32.2195 116.565C32.0576 116.431 31.9266 116.323 31.8264 116.24C31.7122 116.159 31.594 116.074 31.4721 115.986C31.3424 115.892 31.1735 115.759 30.9654 115.587C30.8652 115.504 30.7939 115.425 30.7513 115.351C30.7024 115.285 30.6971 115.229 30.7353 115.182C30.7799 115.128 30.849 115.108 30.9425 115.12C31.036 115.132 31.1578 115.181 31.308 115.266C31.6377 115.448 31.9216 115.521 32.1596 115.484C32.3835 115.449 32.5879 115.319 32.7727 115.096L36.3952 110.714C36.459 110.637 36.4888 110.578 36.4848 110.535C36.4808 110.493 36.4436 110.475 36.3732 110.482L28.2195 111.234C28.1068 111.244 28.025 111.281 27.9741 111.342L27.9358 111.388C27.797 111.572 27.7516 111.768 27.7998 111.977C27.8339 112.187 27.9513 112.413 28.152 112.657C28.3681 112.914 28.4315 113.096 28.3423 113.204C28.3041 113.25 28.2478 113.255 28.1734 113.22C28.0926 113.192 28.0021 113.137 27.9019 113.054C27.6938 112.882 27.5275 112.738 27.4028 112.622C27.2705 112.499 27.1458 112.383 27.0289 112.273C26.9056 112.172 26.7591 112.05 26.5896 111.91C26.4509 111.796 26.343 111.706 26.2659 111.643C26.1748 111.58 26.0759 111.512 25.9693 111.436C25.8551 111.355 25.6939 111.228 25.4858 111.056C25.3856 110.973 25.3143 110.895 25.2717 110.821C25.2228 110.754 25.2175 110.698 25.2557 110.652C25.3003 110.598 25.3694 110.577 25.4629 110.589C25.5564 110.602 25.6782 110.651 25.8284 110.736C26.1581 110.918 26.4118 110.972 26.5895 110.898C26.7672 110.824 26.9485 110.676 27.1332 110.452L31.4535 105.227C31.6893 104.942 31.8196 104.706 31.8445 104.519C31.8694 104.332 31.7616 104.093 31.521 103.804C31.4091 103.672 31.3351 103.566 31.2989 103.484C31.2627 103.402 31.267 103.334 31.3116 103.28C31.3498 103.234 31.4061 103.229 31.4805 103.264C31.5613 103.292 31.6518 103.347 31.752 103.43C31.96 103.602 32.1194 103.747 32.2299 103.864C32.3392 103.968 32.4445 104.068 32.5461 104.165C32.6399 104.255 32.7677 104.367 32.9296 104.501C33.0914 104.635 33.2295 104.743 33.3437 104.824C33.4503 104.899 33.5684 104.984 33.6981 105.078C33.8342 105.165 34.0062 105.294 34.2143 105.466C34.3145 105.549 34.3859 105.627 34.4284 105.702C34.4773 105.768 34.4827 105.824 34.4444 105.87C34.368 105.963 34.1834 105.927 33.8909 105.763C33.606 105.605 33.3567 105.523 33.1428 105.514C32.9213 105.5 32.7181 105.604 32.5333 105.828L28.7291 110.429C28.6208 110.56 28.6371 110.619 28.7778 110.605L36.9527 109.852C37.0372 109.844 37.0896 109.835 37.1101 109.826C37.1228 109.811 37.1579 109.768 37.2152 109.699C37.4128 109.46 37.465 109.224 37.3719 108.992C37.2788 108.759 37.1204 108.511 36.8966 108.248C36.7847 108.117 36.7106 108.01 36.6745 107.928C36.6383 107.847 36.6425 107.779 36.6871 107.725C36.7254 107.679 36.7817 107.673 36.8561 107.709C36.9368 107.737 37.0273 107.792 37.1275 107.875C37.3356 108.047 37.5026 108.198 37.6286 108.328C37.7533 108.444 37.8741 108.557 37.991 108.667C38.1079 108.776 38.255 108.904 38.4323 109.051C38.5941 109.185 38.736 109.296 38.858 109.383C38.9723 109.465 39.0981 109.556 39.2355 109.657C39.3716 109.743 39.5436 109.872 39.7517 110.044Z" fill="#C4B0D9"/>
<path d="M27.6408 98.1101C28.0709 98.6623 28.391 99.2686 28.6011 99.9289C28.8111 100.589 28.8993 101.256 28.8656 101.928C28.8239 102.607 28.6507 103.256 28.3459 103.873C28.0271 104.489 27.5679 105.031 26.9683 105.498C26.3924 105.946 25.7646 106.239 25.085 106.375C24.4054 106.511 23.7182 106.508 23.0235 106.365C22.3287 106.221 21.6707 105.954 21.0495 105.563C20.4143 105.171 19.8601 104.671 19.3869 104.064C19.1473 103.756 18.9563 103.486 18.8141 103.255C18.6718 103.023 18.5476 102.791 18.4413 102.557C18.321 102.321 18.1918 102.041 18.0539 101.717C17.9933 101.575 17.9761 101.455 18.0024 101.358C18.0225 101.254 18.0847 101.155 18.189 101.061C18.3581 100.904 18.54 100.73 18.7346 100.541C18.9213 100.357 19.1654 100.142 19.4669 99.8944C19.516 99.8435 19.5848 99.8342 19.6734 99.8666C19.748 99.8973 19.8051 99.9542 19.8446 100.038C19.878 100.113 19.8605 100.196 19.7921 100.288C19.5538 100.6 19.3681 100.89 19.2349 101.159C19.0939 101.433 19.0323 101.729 19.05 102.044C19.0695 102.346 19.1583 102.663 19.3164 102.997C19.4605 103.328 19.6585 103.656 19.9104 103.979C20.2668 104.437 20.6933 104.789 21.1899 105.036C21.6725 105.281 22.1861 105.42 22.7308 105.452C23.2614 105.482 23.7894 105.42 24.3146 105.264C24.8399 105.108 25.3194 104.862 25.7533 104.524C26.2346 104.149 26.6496 103.705 26.9983 103.193C27.3409 102.672 27.5909 102.123 27.7484 101.544C27.8918 100.963 27.9243 100.386 27.8458 99.8136C27.7534 99.2392 27.5166 98.7075 27.1356 98.2183C26.6932 97.6503 26.1974 97.2823 25.6483 97.1142C25.0991 96.9462 24.4904 96.9133 23.8222 97.0155C23.6766 97.0402 23.5639 97.0012 23.484 96.8987C23.3979 96.7882 23.418 96.6838 23.5443 96.5855C23.6074 96.5364 23.7222 96.4723 23.8888 96.3932C24.0475 96.3203 24.2273 96.25 24.4281 96.1823C24.6148 96.1129 24.7858 96.0558 24.941 96.011C25.0945 95.9802 25.2024 95.9722 25.2647 95.9871C25.3208 95.994 25.4177 96.0453 25.5555 96.1408C25.9012 96.3405 26.2614 96.624 26.6362 96.9912C27.0048 97.3506 27.3397 97.7235 27.6408 98.1101Z" fill="#C4B0D9"/>
<path d="M24.8656 94.7918C24.9242 94.9079 24.9536 95.0107 24.9539 95.1001C24.9632 95.185 24.941 95.241 24.8874 95.268C24.8249 95.2996 24.7533 95.2909 24.6727 95.2419C24.5786 95.1886 24.4732 95.1018 24.3565 94.9814C24.168 94.7853 23.9527 94.625 23.7108 94.5007C23.4689 94.3763 23.1467 94.326 22.7443 94.3497C22.0468 94.3879 21.3962 94.4304 20.7927 94.4772C20.1846 94.5151 19.5922 94.5619 19.0155 94.6175C18.4387 94.6732 17.8419 94.7334 17.225 94.7981C16.5946 94.8585 15.9151 94.9324 15.1864 95.0199C15.0389 95.0383 14.8937 95.0611 14.7506 95.0884C14.6076 95.1158 14.4624 95.161 14.3151 95.2241C14.2478 95.1573 14.1804 95.0904 14.1131 95.0236C14.0458 94.9567 13.9651 94.8966 13.871 94.8433C13.7769 94.7899 13.6695 94.7769 13.5489 94.8041C13.4237 94.8225 13.3365 94.8272 13.2873 94.8185C13.2739 94.814 13.2649 94.8074 13.2604 94.7984C13.2514 94.7806 13.2536 94.7627 13.2669 94.7447C13.2936 94.7089 13.3315 94.673 13.3806 94.637C13.4252 94.5921 13.4697 94.5473 13.5143 94.5024C14.0848 93.9459 14.6642 93.3737 15.2525 92.7858C15.8408 92.1979 16.4113 91.6302 16.9639 91.0827C17.5031 90.5307 17.9911 90.0326 18.4279 89.5884C18.8512 89.1397 19.1965 88.7807 19.4639 88.5115C19.758 88.2064 19.9583 87.9373 20.0649 87.7044C20.1714 87.4715 20.2221 87.2611 20.217 87.0733C20.2073 86.8766 20.1754 86.6799 20.121 86.4833C20.0712 86.318 20.0596 86.1839 20.0861 86.0809C20.1036 85.9825 20.1436 85.9175 20.2061 85.886C20.2597 85.859 20.3134 85.8767 20.3673 85.9391C20.4212 86.0015 20.4774 86.0908 20.536 86.2068C20.599 86.3318 20.6756 86.506 20.7658 86.7293C20.865 86.9481 20.9664 87.1825 21.0702 87.4326C21.1828 87.6782 21.2909 87.9036 21.3945 88.109C21.48 88.2787 21.5679 88.4528 21.6579 88.6313C21.748 88.8099 21.8357 88.9728 21.9212 89.1201C21.9978 89.2719 22.0631 89.4014 22.1171 89.5085C22.1757 89.6246 22.2095 89.7251 22.2188 89.8101C22.228 89.895 22.2058 89.951 22.1523 89.978C22.0898 90.0095 22.0137 89.9919 21.924 89.9251C21.8343 89.8583 21.7513 89.7714 21.6749 89.6644C21.4817 89.3922 21.2999 89.2207 21.1298 89.1497C20.9596 89.0787 20.803 89.0793 20.6602 89.1513C20.5263 89.2189 20.35 89.3469 20.1316 89.5355C19.8996 89.7197 19.6611 89.924 19.4159 90.1485C19.1618 90.3774 18.9411 90.5839 18.7539 90.7679C18.6915 90.8218 18.6693 90.8778 18.6874 90.9358C18.6921 90.9895 18.7259 91.0788 18.789 91.2038L20.0656 93.7351C20.0836 93.7708 20.1217 93.802 20.18 93.8286C20.2248 93.8508 20.3053 93.855 20.4215 93.8412C20.5243 93.823 20.6897 93.7956 20.9176 93.759C21.1366 93.7269 21.3691 93.6881 21.6149 93.6425C21.8607 93.597 22.0797 93.5537 22.2718 93.5128C22.464 93.4719 22.5824 93.4402 22.627 93.4177C22.8235 93.3186 22.9504 93.1594 23.0078 92.9401C23.0562 92.7252 23.0532 92.4972 22.9987 92.2559C22.9304 91.9207 22.9454 91.7283 23.0436 91.6788C23.0972 91.6518 23.1554 91.6672 23.2182 91.7252C23.2721 91.7876 23.3283 91.8768 23.3869 91.9929C23.4454 92.109 23.5265 92.2809 23.6301 92.5086C23.7338 92.7363 23.8487 92.9752 23.9747 93.2252C24.1233 93.5198 24.2808 93.7988 24.4472 94.0621C24.6136 94.3254 24.7531 94.5686 24.8656 94.7918ZM19.4412 93.5964L18.3943 91.5205C18.3312 91.3955 18.2774 91.3442 18.2328 91.3667C18.2149 91.3757 18.1993 91.3892 18.1859 91.4072C18.1592 91.4207 18.1346 91.4386 18.1123 91.4611L15.3713 94.1539C15.2376 94.2885 15.1775 94.3692 15.191 94.396C15.2 94.4138 15.2939 94.4113 15.4727 94.3883L19.3687 93.9522C19.4313 93.943 19.4715 93.9339 19.4893 93.9249C19.534 93.9024 19.5495 93.8666 19.5359 93.8174C19.5178 93.7594 19.4863 93.6857 19.4412 93.5964Z" fill="#C4B0D9"/>
<path d="M19.6196 83.1307C19.6536 83.2562 19.6666 83.3614 19.6586 83.4465C19.6602 83.5289 19.632 83.578 19.5741 83.5937C19.5066 83.612 19.443 83.5878 19.3835 83.521C19.324 83.4543 19.2575 83.3428 19.1841 83.1866C19.0171 82.8381 18.8254 82.5896 18.609 82.441C18.383 82.295 18.0962 82.2691 17.7488 82.3633L12.1314 83.8856C11.6874 84.0059 11.3522 84.1071 11.1258 84.1892C10.8897 84.2739 10.73 84.3534 10.6465 84.4278C10.5605 84.4926 10.5231 84.5649 10.5343 84.6447C10.542 84.7877 10.5668 84.9364 10.6086 85.0908C10.6382 85.2382 10.687 85.4374 10.755 85.6884L10.9394 86.3688C11.0022 86.6005 11.1132 86.819 11.2725 87.0245C11.4195 87.223 11.6039 87.3491 11.8257 87.403C11.8818 87.4189 11.9673 87.4475 12.0821 87.4889C12.1873 87.5329 12.2841 87.5844 12.3726 87.6433C12.4611 87.7022 12.5158 87.7703 12.5368 87.8475C12.5472 87.8861 12.5358 87.9203 12.5024 87.95C12.4664 87.9702 12.4243 87.9867 12.376 87.9998C12.2795 88.026 12.1764 88.028 12.0668 88.0059C11.7503 87.9466 11.478 87.9168 11.25 87.9164C11.0097 87.909 10.7347 87.9266 10.425 87.969C10.2557 87.9942 10.1501 87.9866 10.108 87.9462C10.0634 87.8961 10.0358 87.8518 10.0254 87.8132C10.0149 87.7746 10.0571 87.701 10.152 87.5924C10.2443 87.4741 10.3238 87.3852 10.3906 87.3257C10.4714 87.2416 10.5085 87.0917 10.5018 86.8759C10.4925 86.6505 10.4604 86.4364 10.4055 86.2338L9.02444 81.1376C8.93289 80.7998 8.83904 80.5299 8.74289 80.328C8.64674 80.1261 8.54396 79.9571 8.43455 79.821C8.34525 79.7209 8.25766 79.6462 8.17179 79.597C8.0833 79.538 8.02337 79.4507 7.99198 79.3349C7.98413 79.3059 8.0162 79.2713 8.08818 79.2311C8.15052 79.1935 8.22029 79.1642 8.2975 79.1433C8.34576 79.1302 8.41594 79.1215 8.50804 79.1173C8.59752 79.1034 8.6677 79.0948 8.71858 79.0913C8.90016 79.0732 9.03348 79.0682 9.11854 79.0762C9.20099 79.0746 9.27247 79.0707 9.333 79.0647C9.39353 79.0587 9.48653 79.0386 9.612 79.0046L9.78574 78.9575C9.8726 78.934 9.97918 78.9258 10.1055 78.9331C10.2221 78.9429 10.2909 78.9864 10.3118 79.0636C10.3301 79.1312 10.2914 79.1987 10.1957 79.2661C10.1 79.3334 9.96568 79.4113 9.79275 79.4996C9.60053 79.5931 9.47266 79.7521 9.40915 79.9765C9.33599 80.2036 9.36218 80.5487 9.48773 81.012L9.88399 82.4743C9.94153 82.6866 10.0136 82.838 10.1003 82.9285C10.187 83.019 10.3501 83.0473 10.5896 83.0135C10.8291 82.9797 11.2143 82.8908 11.7451 82.747L17.4349 81.2051C17.7824 81.1109 18.0155 80.939 18.1343 80.6892C18.2435 80.442 18.2834 80.1307 18.2542 79.7553C18.2387 79.5834 18.2398 79.4536 18.2575 79.3659C18.2752 79.2782 18.3178 79.2252 18.3853 79.2069C18.4432 79.1912 18.4923 79.2194 18.5325 79.2914C18.5824 79.3607 18.6244 79.4581 18.6584 79.5836C18.729 79.8442 18.7782 80.064 18.806 80.243C18.8408 80.4097 18.8743 80.5715 18.9065 80.7286C18.9387 80.8856 18.9849 81.0751 19.045 81.2971C19.1104 81.5384 19.1728 81.7495 19.2321 81.9302C19.2889 82.1014 19.3482 82.2821 19.4102 82.4726C19.4792 82.6507 19.549 82.8701 19.6196 83.1307Z" fill="#C4B0D9"/>
<path d="M17.7749 75.7469C17.7859 75.8764 17.7798 75.9823 17.7567 76.0646C17.7436 76.146 17.7071 76.1892 17.6473 76.1943C17.5278 76.2045 17.4241 76.0477 17.3364 75.724C17.2344 75.3513 17.0952 75.0721 16.9189 74.8864C16.7425 74.7006 16.47 74.6234 16.1013 74.6548L9.39054 75.2256C9.03183 75.2561 8.7841 75.3524 8.64736 75.5146C8.51061 75.6768 8.42346 75.9501 8.38592 76.3347C8.3541 76.6686 8.26844 76.8415 8.12895 76.8534C8.06916 76.8584 8.02592 76.822 7.99921 76.744C7.96254 76.6668 7.93869 76.5634 7.92767 76.4339C7.90479 76.1649 7.89113 75.9452 7.88669 75.775C7.8814 75.5948 7.87695 75.4246 7.87336 75.2643C7.8598 75.1049 7.84327 74.9106 7.82378 74.6814C7.80514 74.4622 7.78988 74.2828 7.77802 74.1433C7.75619 74.0047 7.73351 73.8561 7.70999 73.6975C7.68647 73.5389 7.66326 73.3251 7.64038 73.0561C7.62936 72.9266 7.63541 72.8207 7.65852 72.7384C7.67167 72.657 7.70814 72.6138 7.76792 72.6087C7.83767 72.6027 7.90084 72.6375 7.95744 72.713C8.01404 72.7885 8.06449 72.9096 8.10879 73.0765C8.2099 73.4392 8.34281 73.7039 8.50752 73.8705C8.67139 74.0272 8.92769 74.0907 9.27644 74.0611L11.7724 73.8488C12.0016 73.8293 12.1094 73.7398 12.0958 73.5804C12.0941 73.5605 12.0925 73.5405 12.0908 73.5206C12.0791 73.5015 12.0674 73.4824 12.0558 73.4634C12.0049 73.3372 11.9377 73.1372 11.8542 72.8633C11.7707 72.5894 11.7158 72.298 11.6895 71.9891C11.6124 71.0824 11.7947 70.3342 12.2363 69.7447C12.6679 69.156 13.3172 68.8248 14.1841 68.751C14.7321 68.7044 15.1732 68.7572 15.5073 68.9095C15.8405 69.0517 16.102 69.2352 16.2917 69.46C16.4806 69.6747 16.6375 69.8671 16.7624 70.0372C16.9671 70.3208 17.1263 70.6586 17.2399 71.0503C17.3535 71.4421 17.4315 71.8871 17.4739 72.3853C17.4815 72.475 17.4867 72.595 17.4895 72.7453C17.4914 72.8856 17.4954 73.0509 17.5015 73.2411C17.5068 73.4213 17.5179 73.611 17.5349 73.8103C17.5569 74.0693 17.5806 74.2881 17.6058 74.4666C17.631 74.6451 17.6571 74.8336 17.684 75.032C17.72 75.2197 17.7503 75.4579 17.7749 75.7469ZM16.9928 72.2155C16.9589 71.8169 16.8723 71.4479 16.733 71.1085C16.583 70.76 16.3342 70.4901 15.9867 70.2988C15.6285 70.0985 15.1155 70.0267 14.4479 70.0835C14.0793 70.1148 13.7655 70.2017 13.5067 70.3442C13.2378 70.4875 13.0259 70.651 12.871 70.8348C12.7052 71.0095 12.5929 71.1646 12.5342 71.3C12.4655 71.4364 12.3997 71.6075 12.337 71.8136C12.2734 72.0097 12.2577 72.2971 12.2899 72.6757C12.3009 72.8052 12.3302 72.9733 12.3779 73.18C12.4248 73.3768 12.4715 73.5133 12.5181 73.5896C12.554 73.6568 12.608 73.7024 12.6803 73.7264C12.7526 73.7503 12.8286 73.7589 12.9083 73.7522L15.9573 73.4928C16.0868 73.4818 16.2251 73.455 16.372 73.4124C16.5089 73.3706 16.6184 73.3011 16.7005 73.2038C16.7734 73.1173 16.8471 72.9806 16.9215 72.7936C16.9851 72.5975 17.0089 72.4048 16.9928 72.2155Z" fill="#C4B0D9"/>
<path d="M17.7326 62.107C17.6652 62.8037 17.4808 63.4641 17.1793 64.0879C16.8779 64.7118 16.4836 65.2564 15.9966 65.7217C15.4996 66.186 14.9281 66.5376 14.2821 66.7766C13.6271 67.0046 12.9214 67.082 12.1649 67.0089C11.4383 66.9386 10.7814 66.7194 10.1941 66.3511C9.60679 65.9829 9.1102 65.5079 8.70431 64.9261C8.29842 64.3444 8.00427 63.698 7.82184 62.9872C7.63042 62.2654 7.57177 61.5213 7.64588 60.7549C7.68342 60.3667 7.73011 60.0397 7.78596 59.7738C7.84181 59.5079 7.91162 59.2535 7.99541 59.0104C8.0702 58.7564 8.16875 58.4646 8.29106 58.1348C8.34531 57.9894 8.41513 57.8906 8.50054 57.8386C8.5869 57.7766 8.70024 57.7474 8.84056 57.7509C9.07141 57.7532 9.32266 57.7523 9.59429 57.7485C9.85597 57.7436 10.1814 57.755 10.5705 57.7826C10.6412 57.7794 10.6975 57.82 10.7396 57.9044C10.7727 57.9779 10.7749 58.0585 10.7464 58.1462C10.7188 58.2239 10.6488 58.2724 10.5364 58.2917C10.1485 58.3546 9.81396 58.4378 9.5327 58.5412C9.24149 58.6437 8.99379 58.8156 8.7896 59.0571C8.59633 59.2896 8.44255 59.5811 8.32828 59.9317C8.20501 60.2715 8.12364 60.6454 8.08418 61.0535C8.02835 61.6308 8.09582 62.1798 8.28658 62.7006C8.46835 63.2104 8.74596 63.6643 9.11941 64.0621C9.48386 64.4489 9.91028 64.7665 10.3987 65.0146C10.887 65.2628 11.405 65.4133 11.9524 65.4663C12.5596 65.525 13.1659 65.4882 13.7715 65.3558C14.378 65.2135 14.9375 64.9863 15.4499 64.6742C15.9533 64.3512 16.3734 63.9548 16.7102 63.485C17.038 63.0043 17.2317 62.4554 17.2914 61.8383C17.3607 61.1216 17.2537 60.5135 16.9705 60.0139C16.6873 59.5143 16.2679 59.0719 15.7124 58.6867C15.5897 58.6045 15.5347 58.4987 15.5472 58.3693C15.5606 58.2299 15.647 58.168 15.8063 58.1834C15.8859 58.1911 16.0134 58.2235 16.1887 58.2806C16.354 58.3368 16.5329 58.4094 16.7252 58.4983C16.9086 58.5763 17.072 58.6524 17.2155 58.7265C17.3481 58.8097 17.432 58.8781 17.467 58.9317C17.5029 58.9754 17.5381 59.0792 17.5725 59.2433C17.6861 59.626 17.7528 60.0795 17.7724 60.6039C17.793 61.1182 17.7797 61.6193 17.7326 62.107Z" fill="#C4B0D9"/>
<path d="M18.3057 57.368C18.2359 57.5977 18.1634 57.7847 18.0882 57.929C18.0159 58.0638 17.9317 58.1689 17.8357 58.2442C17.8078 58.2671 17.7766 58.2838 17.7421 58.2942C17.698 58.3017 17.6569 58.2996 17.6186 58.288C17.5707 58.2735 17.5368 58.2475 17.5168 58.2101C17.4873 58.1698 17.4783 58.1304 17.49 58.0922C17.5539 57.8817 17.5552 57.6365 17.4939 57.3566C17.426 57.0642 17.2877 56.7452 17.0792 56.3997C16.8706 56.0542 16.587 55.6806 16.2282 55.2789C15.8274 54.8437 15.4909 54.3861 15.2186 53.9062C14.9397 53.4139 14.8153 52.9633 14.8455 52.5544C14.8475 52.5132 14.8361 52.4993 14.8111 52.5126C14.7891 52.5163 14.7602 52.5598 14.7245 52.643C14.5554 53.062 14.2956 53.4011 13.9451 53.6604C13.5975 53.9102 13.2191 54.0722 12.8098 54.1464C12.4006 54.2206 12.0237 54.2054 11.6793 54.1008C11.019 53.9002 10.5422 53.5777 10.2487 53.1332C9.95528 52.6887 9.80527 52.1676 9.79873 51.5699C9.79219 50.9722 9.88775 50.348 10.0854 49.6974C10.1494 49.4869 10.2156 49.3032 10.2842 49.1464C10.346 48.977 10.4113 48.8139 10.4798 48.6571C10.5484 48.5003 10.6117 48.3261 10.6699 48.1348C10.7338 47.9243 10.7861 47.7521 10.8268 47.6181C10.8579 47.4812 10.892 47.3348 10.9289 47.1788C10.9659 47.0228 11.0236 46.8156 11.102 46.5573C11.1398 46.4329 11.1847 46.3368 11.2367 46.269C11.2791 46.1983 11.329 46.1716 11.3864 46.189C11.5203 46.2297 11.568 46.4167 11.5295 46.7499C11.489 47.1242 11.5157 47.4146 11.6098 47.6208C11.7039 47.8271 11.9184 47.9811 12.2533 48.0828L18.7406 50.0536C19.0755 50.1553 19.35 50.129 19.5641 49.9746C19.7782 49.8202 19.9726 49.5761 20.1471 49.2424C20.3004 48.9441 20.4345 48.8124 20.5493 48.8473C20.6067 48.8647 20.6334 48.9146 20.6293 48.997C20.6347 49.0822 20.6185 49.1871 20.5808 49.3115C20.5023 49.5698 20.4273 49.7822 20.3558 49.9486C20.2969 50.1083 20.2393 50.2633 20.1833 50.4135C20.1272 50.5637 20.0657 50.7488 19.9989 50.9689C19.9262 51.2081 19.867 51.42 19.8214 51.6047C19.7786 51.7799 19.733 51.9646 19.6844 52.1589C19.6483 52.3465 19.591 52.5694 19.5125 52.8278C19.4747 52.9522 19.4299 53.0483 19.3779 53.1161C19.3355 53.1868 19.2856 53.2135 19.2282 53.196C19.1612 53.1757 19.1202 53.1214 19.1052 53.0333C19.0902 52.9451 19.093 52.8153 19.1137 52.6439C19.1386 52.3902 19.1326 52.1689 19.0959 51.9801C19.0621 51.7817 18.9866 51.6176 18.8692 51.4879C18.7518 51.3582 18.5927 51.2628 18.3918 51.2018L15.9662 50.4649C15.727 50.3923 15.5814 50.3898 15.5295 50.4577C15.4804 50.5159 15.4196 50.6647 15.3469 50.9039C15.3062 51.0378 15.3071 51.1896 15.3496 51.3593C15.395 51.5194 15.4361 51.6939 15.4728 51.8827C15.547 52.292 15.7625 52.718 16.1192 53.1608C16.4759 53.6036 16.8359 54.0526 17.1993 54.5079C17.4511 54.8143 17.6794 55.1293 17.8842 55.4528C18.0823 55.7638 18.2268 56.0795 18.3177 56.3997C18.4085 56.7199 18.4045 57.0427 18.3057 57.368ZM14.692 51.2536C14.7908 50.9283 14.8406 50.6612 14.8413 50.4524C14.8354 50.2311 14.708 50.0827 14.4592 50.0071L11.9045 49.231C11.5218 49.1147 11.2109 49.1405 10.9718 49.3082C10.7356 49.4664 10.5681 49.7082 10.4693 50.0335C10.3559 50.4066 10.3345 50.7868 10.405 51.174C10.4784 51.5517 10.6329 51.886 10.8684 52.177C11.0944 52.4652 11.3988 52.6674 11.7815 52.7837C12.5661 53.022 13.1921 53.0084 13.6595 52.7428C14.1298 52.4676 14.474 51.9712 14.692 51.2536Z" fill="#C4B0D9"/>
<path d="M24.4301 41.25C24.3505 41.3528 24.2705 41.4237 24.1899 41.4625C24.1173 41.5074 24.0572 41.5115 24.0097 41.4749C23.9306 41.4137 23.9652 41.2382 24.1134 40.9483C24.2904 40.6049 24.3493 40.3407 24.29 40.1558C24.2368 39.963 24.0678 39.7565 23.783 39.5363L18.4189 35.3897C18.142 35.1756 17.9237 35.0574 17.764 35.0351C17.6025 34.9987 17.3779 35.1095 17.0901 35.3673C16.8408 35.5917 16.6686 35.6672 16.5737 35.5938C16.5262 35.5571 16.512 35.5019 16.5311 35.4281C16.5423 35.3483 16.5937 35.249 16.6855 35.1304C16.8506 34.9167 16.983 34.7537 17.0827 34.6411C17.1823 34.5285 17.2758 34.4239 17.3633 34.3272C17.4428 34.2243 17.5437 34.0938 17.666 33.9355C17.7944 33.7694 17.8984 33.6349 17.9779 33.532C18.0556 33.4152 18.1364 33.2943 18.2202 33.1695C18.3102 33.0368 18.4377 32.8637 18.6029 32.6501C18.7802 32.4206 18.9203 32.3457 19.0232 32.4252C19.0786 32.468 19.0976 32.5333 19.0803 32.621C19.063 32.7088 19.0143 32.8291 18.934 32.9819C18.7631 33.3175 18.7 33.6036 18.7445 33.8403C18.7873 34.0629 18.9234 34.2629 19.1528 34.4403L21.4907 36.2476C21.5382 36.2843 21.5851 36.2889 21.6315 36.2616C21.67 36.2282 21.7015 36.1956 21.7259 36.164L25.1295 31.7612C25.1723 31.7058 25.1463 31.6414 25.0513 31.568L22.7372 29.779C22.5235 29.6139 22.3027 29.5317 22.0747 29.5324C21.8467 29.533 21.5887 29.6623 21.301 29.9201C21.1732 30.0363 21.0691 30.1138 20.9885 30.1526C20.908 30.1914 20.84 30.1894 20.7846 30.1466C20.6817 30.0671 20.719 29.9126 20.8964 29.6832C21.0615 29.4696 21.2 29.2986 21.3119 29.1702C21.4299 29.0339 21.5418 28.9055 21.6475 28.7851C21.7454 28.6585 21.8616 28.5081 21.9962 28.3341C22.1062 28.1917 22.1919 28.0809 22.253 28.0018C22.3063 27.9166 22.3687 27.8195 22.4403 27.7105C22.5119 27.6015 22.6303 27.4402 22.7954 27.2266C22.881 27.1159 22.9611 27.045 23.0355 27.0141C23.1082 26.9692 23.1682 26.965 23.2157 27.0017C23.3107 27.0751 23.2809 27.2607 23.1266 27.5585C22.9557 27.894 22.913 28.1454 22.9986 28.3127C23.0841 28.48 23.2416 28.6523 23.4711 28.8297L28.8352 32.9763C29.1279 33.2026 29.3651 33.3291 29.5467 33.3557C29.7345 33.3745 29.9692 33.2589 30.2509 33.009C30.494 32.7925 30.6552 32.7148 30.7343 32.776C30.7818 32.8127 30.7929 32.8719 30.7677 32.9535C30.7504 33.0413 30.702 33.1366 30.6225 33.2394C30.4574 33.453 30.3211 33.6131 30.2135 33.7195C30.1138 33.8321 30.0203 33.9367 29.9329 34.0334C29.8455 34.1302 29.7375 34.2616 29.6091 34.4278C29.4807 34.5939 29.3776 34.7354 29.2999 34.8523C29.2283 34.9613 29.1475 35.0821 29.0576 35.2148C28.9755 35.3536 28.8519 35.5298 28.6868 35.7435C28.6073 35.8463 28.5273 35.9171 28.4467 35.956C28.374 36.0009 28.314 36.005 28.2665 35.9683C28.2111 35.9255 28.193 35.8673 28.212 35.7935C28.2372 35.7119 28.2899 35.5946 28.3702 35.4418C28.5184 35.1519 28.5803 34.8838 28.5559 34.6374C28.5297 34.377 28.39 34.149 28.1369 33.9532L25.8227 32.1643C25.7831 32.1337 25.7436 32.1031 25.704 32.0726C25.6645 32.042 25.6294 32.0465 25.5988 32.086L22.0943 36.6194C22.0638 36.659 22.092 36.7124 22.179 36.7797L24.4338 38.5227C24.6791 38.7123 24.963 38.7865 25.2857 38.7452C25.6004 38.6978 25.8855 38.5579 26.1409 38.3256C26.2686 38.2094 26.3657 38.1329 26.4323 38.0958C26.5049 38.0509 26.569 38.0498 26.6243 38.0926C26.6718 38.1293 26.6829 38.1885 26.6577 38.2701C26.6405 38.3579 26.5921 38.4532 26.5126 38.556C26.3474 38.7697 26.2019 38.9416 26.076 39.0717C25.9641 39.2001 25.8553 39.3245 25.7495 39.445C25.6437 39.5655 25.5205 39.7167 25.3799 39.8987C25.2514 40.0648 25.1453 40.2103 25.0615 40.3351C24.9838 40.4519 24.8969 40.5807 24.8008 40.7213C24.7188 40.8601 24.5952 41.0363 24.4301 41.25Z" fill="#C4B0D9"/>
<path d="M31.4376 32.3278C31.338 32.4114 31.2447 32.4636 31.1577 32.4843C31.0772 32.5128 31.0176 32.504 30.979 32.4581C30.934 32.4044 30.9261 32.3328 30.9552 32.243C30.9856 32.1392 31.046 32.0168 31.1364 31.8756C31.2842 31.6472 31.3909 31.401 31.4566 31.137C31.5223 30.873 31.4975 30.5479 31.3822 30.1616C31.1853 29.4914 30.9949 28.8678 30.8112 28.291C30.635 27.7078 30.4539 27.1418 30.2676 26.5932C30.0814 26.0445 29.8861 25.4773 29.6818 24.8916C29.4787 24.2918 29.2512 23.6473 28.9991 22.958C28.9475 22.8187 28.8919 22.6825 28.8326 22.5495C28.7732 22.4166 28.696 22.2856 28.6008 22.1566C28.6504 22.0758 28.7001 21.9949 28.7497 21.9141C28.7994 21.8333 28.8394 21.7409 28.8698 21.6371C28.9002 21.5333 28.8883 21.4258 28.8341 21.3146C28.7876 21.197 28.763 21.1132 28.7603 21.0633C28.7615 21.0492 28.766 21.0389 28.7736 21.0325C28.7889 21.0196 28.8069 21.0176 28.8274 21.0265C28.8684 21.0443 28.912 21.073 28.9583 21.1125C29.0122 21.1456 29.066 21.1787 29.1199 21.2118C29.7923 21.6397 30.482 22.0727 31.189 22.5107C31.896 22.9488 32.5792 23.3741 33.2387 23.7867C33.8995 24.1852 34.4961 24.5461 35.0286 24.8695C35.5623 25.1788 35.9908 25.4328 36.3141 25.6315C36.6785 25.8479 36.9862 25.9813 37.2373 26.0316C37.4885 26.082 37.7048 26.0832 37.8865 26.0352C38.0758 25.9807 38.2599 25.9046 38.4388 25.8067C38.5883 25.7204 38.7162 25.6783 38.8225 25.6805C38.9224 25.675 38.9948 25.6991 39.0398 25.7527C39.0784 25.7987 39.0734 25.8551 39.025 25.9218C38.9766 25.9886 38.9026 26.0637 38.803 26.1473C38.6957 26.2373 38.5438 26.3517 38.3471 26.4907C38.1568 26.6373 37.9518 26.7897 37.7321 26.948C37.5189 27.1139 37.3241 27.2707 37.148 27.4186C37.0024 27.5407 36.853 27.6661 36.6998 27.7946C36.5466 27.9232 36.4081 28.0459 36.2843 28.1629C36.1541 28.2721 36.043 28.3653 35.9511 28.4425C35.8515 28.526 35.7614 28.582 35.6809 28.6105C35.6003 28.6389 35.5407 28.6302 35.5022 28.5842C35.4572 28.5306 35.4569 28.4525 35.5014 28.3499C35.5458 28.2473 35.6114 28.1466 35.6982 28.0477C35.9188 27.7973 36.0442 27.5811 36.0743 27.3992C36.1044 27.2173 36.068 27.065 35.9652 26.9425C35.8688 26.8276 35.7038 26.6854 35.4701 26.5159C35.2378 26.3323 34.9843 26.1469 34.7096 25.9596C34.4286 25.7646 34.177 25.5971 33.955 25.4571C33.8883 25.4086 33.8287 25.3999 33.7763 25.4308C33.7252 25.4476 33.646 25.501 33.5387 25.591L31.367 27.4133C31.3364 27.4391 31.3148 27.4833 31.3022 27.5461C31.2908 27.5948 31.3052 27.6741 31.3453 27.7841C31.3866 27.88 31.4511 28.0347 31.5389 28.2482C31.6203 28.4541 31.7113 28.6714 31.8119 28.9003C31.9126 29.1291 32.0048 29.3324 32.0887 29.5101C32.1725 29.6877 32.2305 29.7957 32.2626 29.834C32.404 30.0026 32.5881 30.0896 32.8147 30.0953C33.0349 30.0932 33.2562 30.0381 33.4787 29.9298C33.7893 29.7866 33.98 29.7571 34.0507 29.8414C34.0892 29.8873 34.0875 29.9475 34.0455 30.0219C33.9971 30.0887 33.9231 30.1638 33.8235 30.2474C33.7239 30.331 33.5752 30.4493 33.3772 30.6023C33.1793 30.7553 32.9731 30.9219 32.7586 31.1018C32.5058 31.314 32.2703 31.5311 32.0521 31.7534C31.834 31.9756 31.6291 32.1671 31.4376 32.3278ZM31.3591 26.7738L33.1401 25.2793C33.2474 25.1893 33.2849 25.1252 33.2528 25.0869C33.2399 25.0715 33.2232 25.0594 33.2027 25.0505C33.1834 25.0276 33.1603 25.0078 33.1334 24.9912L29.8845 22.9396C29.7228 22.8403 29.6305 22.8003 29.6075 22.8196C29.5922 22.8325 29.6162 22.9233 29.6795 23.0921L30.9962 26.7847C31.0194 26.8435 31.0375 26.8806 31.0503 26.8959C31.0824 26.9342 31.1209 26.9411 31.1656 26.9166C31.218 26.8857 31.2825 26.8381 31.3591 26.7738Z" fill="#C4B0D9"/>
<path d="M45.8531 21.9299C45.7304 21.9728 45.6263 21.9933 45.5409 21.9914C45.4588 21.999 45.4078 21.9744 45.388 21.9178C45.3484 21.8045 45.4744 21.6651 45.7661 21.4995C46.1017 21.308 46.3375 21.1037 46.4734 20.8866C46.6094 20.6696 46.6196 20.3959 46.5041 20.0655L44.2659 13.6656C44.1504 13.3352 43.9971 13.124 43.806 13.0319C43.6243 12.9365 43.3426 12.9185 42.9608 12.9779C42.6295 13.0302 42.4407 12.9902 42.3945 12.8581C42.3747 12.8015 42.3992 12.7505 42.4681 12.7052C42.5337 12.6505 42.6279 12.6017 42.7506 12.5587C43.0055 12.4696 43.2054 12.405 43.3503 12.3649C43.5046 12.3216 43.6495 12.2815 43.7849 12.2447C43.9204 12.2079 44.0825 12.1565 44.2713 12.0905C44.9415 11.8561 45.519 11.6595 46.0037 11.5006C46.4945 11.3289 46.9995 11.1523 47.5187 10.9707C48.0379 10.7892 48.5412 10.6078 49.0288 10.4267C49.5258 10.2423 50.1046 10.0346 50.7654 9.80353C50.9731 9.7309 51.143 9.67148 51.2751 9.62527C51.404 9.56961 51.5423 9.51066 51.69 9.4484C51.8377 9.38614 52.039 9.31045 52.2939 9.22132C52.4166 9.1784 52.5207 9.1579 52.6061 9.15981C52.6882 9.15228 52.7392 9.17684 52.759 9.23347C52.8052 9.36562 52.6824 9.51449 52.3907 9.68006C52.0646 9.86828 51.846 10.0612 51.7351 10.2589C51.6241 10.4567 51.6264 10.7207 51.742 11.0511L53.9801 17.451C54.0957 17.7814 54.2789 17.9874 54.53 18.0691C54.781 18.1509 55.0927 18.1637 55.4651 18.1076C55.7964 18.0553 55.9819 18.0858 56.0215 18.1991C56.0413 18.2557 56.0167 18.3067 55.9478 18.352C55.8822 18.4067 55.7881 18.4555 55.6653 18.4984C55.4105 18.5875 55.1948 18.6524 55.0183 18.6929C54.8545 18.7396 54.6955 18.7846 54.5411 18.828C54.3868 18.8714 54.2011 18.931 53.984 19.007C53.748 19.0895 53.542 19.1668 53.3659 19.239C53.1993 19.3079 53.0233 19.38 52.8378 19.4555C52.665 19.5371 52.4512 19.6224 52.1964 19.7116C52.0736 19.7545 51.9696 19.775 51.8842 19.7731C51.802 19.7806 51.7511 19.7561 51.7313 19.6994C51.7082 19.6333 51.7278 19.5682 51.7901 19.5041C51.8524 19.4399 51.9588 19.3656 52.1094 19.2812C52.445 19.0896 52.6727 18.8776 52.7927 18.6449C52.9093 18.4029 52.9212 18.1339 52.8283 17.8379C52.444 16.6481 52.0344 15.4618 51.5996 14.279C51.1742 13.093 50.7552 11.91 50.3425 10.7301C50.326 10.6829 50.302 10.6595 50.2704 10.66C50.2482 10.6571 50.2229 10.6606 50.1946 10.6706C49.8076 10.8059 49.4631 10.9264 49.161 11.032C48.8651 11.1249 48.5833 11.2129 48.3157 11.2959C48.0481 11.3788 47.7585 11.4748 47.447 11.5837C47.0789 11.7125 46.7266 11.841 46.3901 11.9693C46.0502 12.0881 45.6476 12.2395 45.1823 12.4234C45.1351 12.4399 45.1296 12.5001 45.1659 12.604C45.5375 13.7876 45.9296 14.9695 46.3423 16.1494C46.7516 17.3199 47.1815 18.4885 47.6319 19.6552C47.7436 19.9445 47.9253 20.1458 48.1768 20.2592C48.4344 20.3598 48.7495 20.382 49.1218 20.326C49.2922 20.2982 49.4217 20.2899 49.5105 20.3013C49.5992 20.3126 49.6551 20.3513 49.6782 20.4174C49.698 20.474 49.6735 20.525 49.6045 20.5703C49.5389 20.625 49.4448 20.6738 49.3221 20.7168C49.0672 20.8059 48.8515 20.8707 48.675 20.9113C48.5112 20.9579 48.3522 21.003 48.1978 21.0464C48.0435 21.0897 47.8578 21.1494 47.6407 21.2253C47.4047 21.3078 47.1987 21.3852 47.0226 21.4573C46.856 21.5262 46.68 21.5984 46.4945 21.6738C46.3217 21.7554 46.1079 21.8408 45.8531 21.9299Z" fill="#C4B0D9"/>
<path d="M57.0068 18.2965C56.8781 18.3145 56.772 18.3142 56.6886 18.2955C56.6066 18.2868 56.5615 18.2527 56.5532 18.1933C56.5366 18.0744 56.6876 17.9625 57.0061 17.8574C57.3728 17.7356 57.6293 17.5837 57.7755 17.4017C57.9317 17.2183 57.9842 16.9435 57.933 16.577L57.058 10.3078C56.9958 9.86209 56.8887 9.5287 56.7367 9.30759C56.5945 9.0851 56.3305 8.96546 55.9444 8.94866C55.7719 8.94244 55.6426 8.92011 55.5565 8.88165C55.4703 8.84318 55.4224 8.78929 55.4127 8.71996C55.4044 8.66054 55.4385 8.61539 55.515 8.58453C55.5901 8.54375 55.692 8.51438 55.8207 8.49641C56.0881 8.45909 56.2862 8.43144 56.415 8.41347C56.5536 8.39412 56.6831 8.3811 56.8033 8.37442C56.9222 8.35783 57.0806 8.33571 57.2787 8.30807C57.4768 8.28042 57.6742 8.24782 57.8709 8.21027C58.0761 8.16143 58.2671 8.11962 58.444 8.08484C58.6195 8.04015 58.7766 8.00813 58.9153 7.98877C60.0443 7.83119 60.983 7.93745 61.7314 8.30756C62.4896 8.67628 62.9268 9.27661 63.0429 10.1085C63.1272 10.7127 63.0865 11.2889 62.9207 11.837C62.7535 12.3753 62.4437 12.8325 61.9914 13.2087C61.5489 13.5834 60.9464 13.824 60.1838 13.9305C59.9659 13.9609 59.7934 13.9547 59.6662 13.9118C59.5476 13.8577 59.4842 13.8009 59.4759 13.7415C59.4703 13.7019 59.4889 13.6539 59.5315 13.5974C59.584 13.5396 59.635 13.5073 59.6845 13.5003C59.7341 13.4934 59.809 13.488 59.9095 13.4841C60.0198 13.4788 60.174 13.4623 60.3721 13.4347C60.9663 13.3517 61.3774 13.0419 61.6054 12.5053C61.8433 11.9672 61.9015 11.2624 61.7798 10.3909C61.6692 9.59854 61.3549 9.04669 60.8369 8.73531C60.3175 8.41402 59.6963 8.30383 58.9733 8.40474C58.696 8.44345 58.4751 8.52476 58.3107 8.64868C58.1449 8.7627 58.0778 8.93361 58.1096 9.1614L59.0987 16.2477C59.1485 16.6043 59.2628 16.8811 59.4418 17.0783C59.6208 17.2754 59.8983 17.3831 60.2744 17.4013C60.447 17.4075 60.5756 17.4249 60.6604 17.4534C60.7451 17.482 60.7923 17.5309 60.802 17.6002C60.8103 17.6597 60.7762 17.7048 60.6997 17.7357C60.6247 17.7764 60.5227 17.8058 60.394 17.8238C60.1266 17.8611 59.9172 17.8802 59.7659 17.8812C59.6245 17.8807 59.4936 17.8838 59.3734 17.8905C59.2617 17.8859 59.1118 17.8967 58.9236 17.923C58.676 17.9576 58.4545 17.9986 58.2592 18.046C58.0724 18.0822 57.8814 18.124 57.6861 18.1714C57.5006 18.2175 57.2742 18.2592 57.0068 18.2965Z" fill="#C4B0D9"/>
<path d="M70.1216 17.4902C69.4625 17.4546 68.8396 17.3057 68.2529 17.0437C67.6668 16.7716 67.1556 16.4085 66.7195 15.9543C66.284 15.4901 65.9476 14.9512 65.7104 14.3375C65.4737 13.7138 65.3753 13.0325 65.4153 12.2935C65.452 11.6145 65.5969 10.9714 65.8501 10.3642C66.1038 9.747 66.4586 9.20537 66.9144 8.7393C67.3702 8.27323 67.9255 7.91269 68.5802 7.65767C69.2349 7.40265 69.9767 7.29754 70.8055 7.34236C71.4645 7.378 72.0871 7.53184 72.6733 7.80388C73.26 8.06595 73.7711 8.42907 74.2067 8.89327C74.6428 9.34748 74.9792 9.88643 75.2159 10.5101C75.4531 11.1238 75.5517 11.8001 75.5118 12.5391C75.4756 13.2081 75.3306 13.8512 75.0769 14.4684C74.8233 15.0856 74.4685 15.6272 74.0127 16.0933C73.5568 16.5594 73.0016 16.9199 72.3468 17.1749C71.6921 17.4299 70.9503 17.5351 70.1216 17.4902ZM70.3786 16.9033C71.1475 16.9448 71.7952 16.8196 72.3217 16.5276C72.8488 16.2256 73.2528 15.7918 73.5338 15.2262C73.8253 14.6511 73.9921 13.9741 74.0342 13.1952C74.0714 12.5062 74.0266 11.8529 73.8998 11.2351C73.773 10.6174 73.5622 10.0702 73.2675 9.59358C72.9834 9.10753 72.6136 8.722 72.1584 8.437C71.7031 8.15201 71.1609 7.9925 70.5318 7.95848C69.7829 7.91799 69.1452 8.04374 68.6187 8.33573C68.0921 8.62773 67.6834 9.05628 67.3924 9.6214C67.1021 10.1765 66.9358 10.8435 66.8937 11.6224C66.8559 12.3214 66.8954 12.9795 67.0123 13.5967C67.1391 14.2144 67.3446 14.7663 67.6288 15.2524C67.9229 15.739 68.2974 16.1298 68.7521 16.4247C69.2074 16.7097 69.7495 16.8692 70.3786 16.9033Z" fill="#C4B0D9"/>
<path d="M76.3963 17.9189C76.2701 17.8878 76.1718 17.8481 76.1013 17.7998C76.0284 17.7612 75.9991 17.7128 76.0135 17.6545C76.0422 17.538 76.224 17.4902 76.5588 17.511C76.9445 17.534 77.2536 17.4918 77.4861 17.3844C77.7186 17.2769 77.8767 17.0533 77.9606 16.7135L79.5844 10.1308C79.6682 9.79098 79.6552 9.53029 79.5455 9.34873C79.4455 9.16957 79.2195 9.0005 78.8673 8.84153C78.5612 8.70424 78.425 8.56763 78.4585 8.43171C78.4729 8.37345 78.5213 8.3442 78.6038 8.34394C78.6886 8.33397 78.7942 8.34456 78.9204 8.37569C79.1825 8.44035 79.3949 8.4979 79.5576 8.54832C79.73 8.60114 79.8926 8.65157 80.0456 8.6996C80.2009 8.73791 80.3902 8.78462 80.6135 8.8397L84.2253 9.73064C84.2447 9.73543 84.3345 9.74728 84.4946 9.76618C84.6668 9.77777 84.7724 9.78835 84.8112 9.79793C84.8598 9.80991 84.8865 9.84741 84.8916 9.91046C84.9087 9.96619 84.9137 10.0086 84.9065 10.0377C84.8396 10.3508 84.7944 10.6178 84.7708 10.8385C84.757 11.0617 84.7201 11.2947 84.6602 11.5374C84.6363 11.6345 84.5928 11.7062 84.5299 11.7524C84.4694 11.789 84.4197 11.8025 84.3809 11.7929C84.3323 11.781 84.2763 11.7156 84.2129 11.597C84.1592 11.4808 84.1322 11.3814 84.1319 11.2989C84.1413 11.1776 84.136 11.0321 84.116 10.8624C84.1082 10.6854 84.047 10.5158 83.9325 10.3537C83.8277 10.1939 83.6297 10.0781 83.3384 10.0063L81.4161 9.53206C81.2899 9.50092 81.1747 9.52918 81.0707 9.61681C80.9667 9.70445 80.8991 9.81138 80.868 9.9376L80.2393 12.4862C80.1818 12.7192 80.1472 12.9012 80.1355 13.0322C80.1238 13.1632 80.1568 13.2383 80.2344 13.2575C80.2539 13.2623 80.2684 13.2659 80.2781 13.2683C80.2878 13.2707 80.2988 13.2682 80.3109 13.2609C80.5 13.2457 80.7219 13.2438 80.9766 13.2552C81.2434 13.2592 81.5613 13.3067 81.9302 13.3977C82.8137 13.6156 83.4602 14.0223 83.8695 14.6177C84.2812 15.2033 84.3829 15.9185 84.1745 16.7632C84.0428 17.2971 83.8512 17.6979 83.5998 17.9655C83.3581 18.2355 83.1004 18.4243 82.8267 18.5318C82.5627 18.6418 82.3301 18.7286 82.129 18.7923C81.7946 18.8952 81.4237 18.9376 81.0161 18.9195C80.6086 18.9014 80.1621 18.8324 79.6767 18.7127C79.5796 18.6887 79.4364 18.6431 79.247 18.5758C79.0576 18.5084 78.8488 18.4363 78.6206 18.3594C78.3923 18.2825 78.1714 18.2178 77.9578 18.1651C77.7539 18.1148 77.5865 18.0838 77.4555 18.072C77.3245 18.0603 77.1789 18.045 77.0188 18.0261C76.866 18.0193 76.6585 17.9836 76.3963 17.9189ZM80.0279 18.1659C80.4065 18.2593 80.7897 18.2508 81.1774 18.1404C81.5748 18.0325 81.9259 17.841 82.2307 17.566C82.5378 17.2812 82.7429 16.9301 82.8458 16.5126C82.9392 16.134 82.9528 15.8077 82.8864 15.5339C82.8225 15.2503 82.7271 15.0105 82.6004 14.8144C82.4737 14.6184 82.3507 14.4696 82.2316 14.3681C82.1245 14.2593 81.9495 14.1337 81.7065 13.9914C81.4756 13.8418 81.1757 13.7214 80.8068 13.6304C80.5932 13.5777 80.3943 13.5699 80.2101 13.6068C80.038 13.6365 79.9268 13.7532 79.8765 13.9571L79.1616 16.8552C79.0801 17.1853 79.1138 17.4666 79.2624 17.6989C79.4135 17.9216 79.6686 18.0772 80.0279 18.1659Z" fill="#C4B0D9"/>
<path d="M84.1805 19.7268C84.0629 19.6713 83.9765 19.6083 83.9212 19.538C83.8617 19.4767 83.8447 19.419 83.8704 19.3647C83.9131 19.2743 84.0919 19.2702 84.4069 19.3526C84.7804 19.4516 85.051 19.4522 85.2188 19.3545C85.3957 19.261 85.5609 19.0515 85.7146 18.726L88.6094 12.595C88.7588 12.2785 88.8273 12.0399 88.8147 11.8792C88.8155 11.7136 88.659 11.5181 88.3452 11.2925C88.0724 11.0974 87.9616 10.9456 88.0129 10.837C88.0385 10.7828 88.0894 10.757 88.1655 10.7598C88.2459 10.7535 88.3539 10.7824 88.4895 10.8464C88.7337 10.9617 88.9214 11.0559 89.0528 11.129C89.1842 11.2021 89.3065 11.2709 89.4198 11.3354C89.5373 11.3909 89.6865 11.4614 89.8674 11.5468C90.0573 11.6364 90.211 11.709 90.3286 11.7645C90.4594 11.8153 90.5948 11.8681 90.7347 11.9231C90.8837 11.9824 91.0802 12.0697 91.3244 12.185C91.5866 12.3088 91.69 12.4295 91.6345 12.547C91.6046 12.6103 91.5449 12.643 91.4555 12.645C91.3661 12.647 91.2381 12.6253 91.0716 12.5798C90.7071 12.4851 90.4141 12.485 90.1926 12.5795C89.9844 12.6692 89.8183 12.8451 89.6945 13.1074L88.4329 15.7795C88.4072 15.8338 88.4128 15.8806 88.4495 15.92C88.4904 15.9504 88.529 15.9742 88.5651 15.9912L93.5974 18.3673C93.6607 18.3971 93.718 18.3578 93.7692 18.2493L95.018 15.6043C95.1333 15.3602 95.1661 15.1268 95.1163 14.9043C95.0666 14.6817 94.8849 14.4577 94.5711 14.2322C94.4302 14.1324 94.3321 14.0474 94.2769 13.9771C94.2216 13.9068 94.2089 13.84 94.2388 13.7767C94.2943 13.6591 94.4532 13.6622 94.7154 13.7861C94.9596 13.9013 95.1564 13.9998 95.3058 14.0814C95.4643 14.1673 95.6138 14.2489 95.7542 14.3263C95.8989 14.3946 96.0707 14.4757 96.2696 14.5697C96.4324 14.6465 96.559 14.7063 96.6494 14.749C96.7441 14.7826 96.8524 14.8227 96.9742 14.8691C97.096 14.9156 97.279 14.9965 97.5232 15.1118C97.6498 15.1715 97.7362 15.2344 97.7824 15.3005C97.8419 15.3618 97.8589 15.4196 97.8333 15.4738C97.782 15.5823 97.5944 15.5933 97.2704 15.5066C96.9059 15.412 96.6512 15.4244 96.5063 15.544C96.3614 15.6635 96.227 15.8544 96.1032 16.1167L93.2084 22.2476C93.0504 22.5822 92.978 22.8411 92.991 23.0242C93.0132 23.2116 93.1766 23.4159 93.4812 23.6372C93.745 23.828 93.8555 23.9687 93.8128 24.0591C93.7872 24.1134 93.7318 24.137 93.6467 24.13C93.5573 24.132 93.4538 24.1052 93.3362 24.0497C93.0921 23.9344 92.9064 23.8357 92.7793 23.7536C92.648 23.6805 92.5256 23.6117 92.4123 23.5472C92.2991 23.4826 92.1475 23.4055 91.9576 23.3158C91.7677 23.2262 91.6073 23.156 91.4764 23.1053C91.3546 23.0588 91.2192 23.0059 91.0703 22.9467C90.917 22.8964 90.7183 22.8137 90.4742 22.6984C90.3566 22.6429 90.2702 22.58 90.215 22.5097C90.1554 22.4484 90.1385 22.3906 90.1641 22.3363C90.194 22.273 90.247 22.2428 90.3231 22.2455C90.4082 22.2526 90.5341 22.2788 90.7006 22.3243C91.0156 22.4066 91.2908 22.4094 91.5261 22.3325C91.7748 22.2509 91.9674 22.0653 92.1041 21.776L93.3529 19.131C93.3743 19.0858 93.3956 19.0406 93.417 18.9953C93.4383 18.9501 93.4264 18.9169 93.3812 18.8955L88.1997 16.449C88.1545 16.4277 88.1084 16.4667 88.0614 16.5662L86.8446 19.1434C86.7122 19.4237 86.7009 19.717 86.8107 20.0231C86.9248 20.3203 87.1227 20.5686 87.4045 20.768C87.5455 20.8677 87.6412 20.9461 87.6917 21.0031C87.7512 21.0644 87.766 21.1267 87.7361 21.19C87.7105 21.2442 87.6551 21.2678 87.57 21.2608C87.4806 21.2628 87.3771 21.2361 87.2595 21.1806C87.0154 21.0653 86.8162 20.9602 86.6619 20.8652C86.5125 20.7836 86.3675 20.7041 86.2271 20.6268C86.0867 20.5494 85.9125 20.4616 85.7045 20.3634C85.5146 20.2738 85.3497 20.2014 85.2098 20.1464C85.079 20.0957 84.9345 20.0386 84.7765 19.975C84.6233 19.9248 84.4246 19.842 84.1805 19.7268Z" fill="#C4B0D9"/>
<path d="M98.3732 27.8634C97.8539 27.4559 97.4293 26.9765 97.0993 26.4252C96.7755 25.8659 96.5653 25.2752 96.4689 24.6529C96.3787 24.0228 96.4126 23.3884 96.5706 22.7497C96.7348 22.1031 97.0453 21.4888 97.5021 20.9066C97.9219 20.3717 98.4097 19.9283 98.9656 19.5763C99.5276 19.2165 100.129 18.9766 100.77 18.8566C101.411 18.7366 102.072 18.7601 102.755 18.9271C103.437 19.094 104.105 19.4337 104.758 19.9461C105.277 20.3536 105.699 20.8369 106.022 21.3961C106.352 21.9475 106.563 22.5382 106.653 23.1683C106.749 23.7906 106.715 24.425 106.551 25.0716C106.393 25.7103 106.086 26.3207 105.629 26.9028C105.215 27.4299 104.727 27.8734 104.165 28.2331C103.603 28.5929 103.002 28.8328 102.361 28.9529C101.721 29.0729 101.059 29.0494 100.376 28.8824C99.6938 28.7155 99.0261 28.3758 98.3732 27.8634ZM98.9206 27.5303C99.5263 28.0056 100.129 28.2749 100.727 28.338C101.332 28.3932 101.912 28.2699 102.467 27.9679C103.036 27.6643 103.561 27.2057 104.042 26.5921C104.468 26.0492 104.807 25.4885 105.057 24.9099C105.308 24.3312 105.45 23.7622 105.482 23.2027C105.528 22.6416 105.447 22.1137 105.237 21.619C105.028 21.1243 104.676 20.6825 104.18 20.2936C103.59 19.8305 102.996 19.5675 102.397 19.5044C101.798 19.4413 101.218 19.5576 100.655 19.8534C100.098 20.1413 99.5795 20.592 99.098 21.2056C98.6658 21.7563 98.3204 22.3179 98.0619 22.8904C97.8111 23.469 97.6626 24.0389 97.6164 24.6C97.5779 25.1673 97.6603 25.7023 97.8633 26.2048C98.0725 26.6995 98.425 27.1413 98.9206 27.5303Z" fill="#C4B0D9"/>
<path d="M103.394 31.9246C103.309 31.8265 103.251 31.7375 103.221 31.6575C103.184 31.584 103.187 31.5276 103.233 31.4882C103.323 31.4094 103.499 31.4747 103.761 31.6842C104.064 31.9248 104.334 32.0605 104.573 32.0912C104.812 32.1219 105.067 32.0191 105.339 31.7827L110.43 27.3504C110.701 27.114 110.844 26.89 110.859 26.6784C110.88 26.4743 110.792 26.206 110.596 25.8734C110.507 25.7255 110.455 25.605 110.44 25.5118C110.425 25.4186 110.444 25.3491 110.497 25.3031C110.542 25.2637 110.599 25.2676 110.666 25.3148C110.741 25.3554 110.822 25.4248 110.907 25.5228C111.156 25.8094 111.363 26.0541 111.526 26.2567C111.696 26.4669 111.859 26.6696 112.016 26.8647C112.186 27.0608 112.387 27.2908 112.616 27.5548C112.833 27.8037 113.06 28.0639 113.296 28.3354C113.546 28.6079 113.773 28.8611 113.977 29.0949C114.208 29.3447 114.399 29.5564 114.55 29.7299C114.715 29.9043 114.811 30.0066 114.837 30.0368C114.87 30.0745 114.898 30.1225 114.923 30.1809C114.947 30.2393 114.943 30.2887 114.912 30.3291C114.734 30.5506 114.556 30.7722 114.377 30.9938C114.206 31.2088 114.046 31.3819 113.895 31.5133C113.827 31.5724 113.765 31.5929 113.71 31.5749C113.661 31.5644 113.62 31.5403 113.587 31.5026C113.554 31.4649 113.539 31.4319 113.541 31.4037C113.55 31.3689 113.567 31.3276 113.592 31.2797C113.687 31.1303 113.775 30.9876 113.856 30.8514C113.943 30.7086 113.991 30.5878 113.998 30.4891C114.026 30.2784 114.004 30.0926 113.93 29.9315C113.863 29.7639 113.768 29.6085 113.643 29.4652L112.353 27.9831C112.3 27.9228 112.194 27.8694 112.034 27.8229C111.874 27.7764 111.742 27.7991 111.636 27.891L109.238 29.9791C109.17 30.0382 109.126 30.1096 109.106 30.1933C109.1 30.2779 109.12 30.3467 109.166 30.3994L110.141 31.5195C110.332 31.7382 110.501 31.8562 110.648 31.8735C110.804 31.8842 111.01 31.8241 111.267 31.693C111.472 31.5938 111.614 31.5894 111.693 31.6799C111.719 31.7101 111.731 31.7534 111.727 31.8098C111.729 31.8738 111.7 31.9321 111.64 31.9846C111.61 32.0109 111.539 32.0662 111.427 32.1506C111.321 32.2425 111.208 32.3339 111.089 32.4249C110.969 32.5159 110.879 32.5876 110.819 32.6401C110.743 32.7058 110.641 32.7944 110.513 32.9061C110.399 33.0187 110.285 33.1242 110.172 33.2227C110.066 33.3287 109.997 33.3949 109.967 33.4212C109.914 33.4671 109.863 33.499 109.812 33.5167C109.768 33.542 109.726 33.532 109.686 33.4868C109.588 33.3737 109.633 33.1819 109.822 32.9114C109.956 32.7151 110.032 32.5432 110.049 32.3955C110.066 32.2479 110.009 32.0986 109.878 31.9478L108.962 30.8956C108.85 30.7674 108.746 30.6858 108.649 30.6507C108.566 30.6167 108.461 30.6554 108.333 30.7671L106.161 32.6582C105.874 32.9077 105.727 33.142 105.719 33.3612C105.718 33.5738 105.829 33.8083 106.053 34.0648L106.782 34.9019C106.992 35.1433 107.177 35.3333 107.338 35.472C107.512 35.6116 107.69 35.709 107.87 35.764C108.058 35.8124 108.26 35.8228 108.474 35.7951C108.695 35.775 108.971 35.7268 109.303 35.6504C109.368 35.6337 109.428 35.6272 109.485 35.6311C109.541 35.635 109.582 35.6591 109.607 35.7034C109.633 35.7477 109.64 35.7943 109.63 35.8432C109.627 35.8855 109.603 35.9263 109.557 35.9657C109.489 36.0248 109.352 36.111 109.146 36.2244C108.947 36.3311 108.731 36.4331 108.498 36.5304C108.271 36.6352 108.085 36.7109 107.94 36.7576C107.867 36.7809 107.802 36.7977 107.745 36.8079C107.694 36.8256 107.649 36.8119 107.609 36.7666C107.294 36.4046 107.006 36.0657 106.744 35.7499C106.483 35.4341 106.234 35.1334 105.999 34.8478C105.763 34.5622 105.531 34.2803 105.302 34.0022C105.08 33.7317 104.844 33.4531 104.594 33.1665C104.45 33.0006 104.321 32.8606 104.209 32.7465C104.089 32.6389 103.969 32.5243 103.85 32.4027C103.723 32.2876 103.571 32.1282 103.394 31.9246Z" fill="#C4B0D9"/>
<path d="M113.242 46.3294C113.079 45.964 112.98 45.6305 112.944 45.3289C112.912 45.0365 112.898 44.7583 112.901 44.4943C112.906 44.3827 112.927 44.2583 112.965 44.1212C113.011 43.98 113.09 43.8739 113.201 43.8027C113.38 43.6899 113.594 43.5563 113.843 43.4018C114.101 43.2433 114.353 43.1091 114.6 42.9993C114.655 42.9749 114.713 42.982 114.773 43.0205C114.848 43.0641 114.899 43.1179 114.927 43.1819C114.952 43.2367 114.8 43.4358 114.471 43.7791C114.081 44.1825 113.822 44.6207 113.693 45.094C113.574 45.5631 113.597 45.985 113.764 46.3595C113.98 46.8437 114.271 47.1903 114.637 47.3993C115.004 47.6082 115.398 47.7065 115.819 47.6941C116.25 47.6776 116.662 47.5819 117.054 47.407C117.411 47.2484 117.718 47.0406 117.975 46.7836C118.237 46.5357 118.409 46.2457 118.491 45.9136C118.587 45.5866 118.551 45.2359 118.384 44.8613C118.356 44.7973 118.323 44.7354 118.285 44.6755C118.247 44.6157 118.208 44.5512 118.166 44.4822C118.124 44.4132 118.072 44.3325 118.009 44.2401C117.955 44.1437 117.898 44.027 117.837 43.8899C117.808 43.826 117.778 43.7463 117.747 43.6509C117.728 43.5605 117.721 43.4707 117.725 43.3813C117.742 43.297 117.792 43.2366 117.874 43.2C117.993 43.1471 118.108 43.1724 118.22 43.2759C118.336 43.3886 118.414 43.4906 118.455 43.5819C118.512 43.7098 118.552 43.8123 118.575 43.8895C118.612 43.9717 118.635 44.0489 118.646 44.121C118.669 44.1981 118.694 44.2798 118.722 44.3661C118.753 44.4615 118.802 44.5823 118.867 44.7285C118.985 44.9935 119.16 45.167 119.394 45.2491C119.637 45.3271 119.9 45.3412 120.185 45.2913C120.482 45.2464 120.763 45.165 121.028 45.0471C121.293 44.9292 121.553 44.764 121.809 44.5517C122.069 44.3485 122.247 44.0834 122.342 43.7564C122.446 43.4253 122.393 43.0222 122.181 42.5472C122.018 42.1817 121.737 41.9184 121.337 41.7572C120.941 41.6051 120.396 41.5851 119.701 41.6972C119.593 41.7237 119.486 41.7055 119.381 41.6426C119.277 41.5797 119.216 41.53 119.2 41.4934C119.184 41.4569 119.211 41.4066 119.281 41.3426C119.351 41.2786 119.418 41.2324 119.482 41.2039C119.719 41.0982 119.935 41.0183 120.13 40.9644C120.334 40.9064 120.559 40.8449 120.803 40.7797C120.885 40.7655 120.952 40.7573 121.006 40.7553C121.069 40.7491 121.119 40.776 121.157 40.8359C121.262 40.9749 121.386 41.1058 121.529 41.2286C121.671 41.3514 121.815 41.4787 121.961 41.6106C122.112 41.7517 122.25 41.9034 122.377 42.0658C122.513 42.2241 122.628 42.4083 122.722 42.6184C122.925 43.0752 123.041 43.5438 123.068 44.024C123.105 44.5002 123.025 44.9353 122.829 45.3294C122.632 45.7234 122.282 46.0323 121.78 46.256C121.277 46.4796 120.822 46.5398 120.415 46.4365C120.017 46.3291 119.636 46.0993 119.271 45.7472C119.246 45.7147 119.215 45.7066 119.178 45.7229C119.151 45.7351 119.136 45.7635 119.134 45.8082C119.174 46.1189 119.181 46.4549 119.156 46.8164C119.144 47.183 119.032 47.5338 118.82 47.869C118.617 48.2001 118.251 48.4836 117.721 48.7195C117.2 48.9513 116.706 49.0343 116.239 48.9686C115.785 48.9079 115.363 48.7457 114.972 48.4819C114.585 48.2273 114.245 47.9077 113.954 47.523C113.662 47.1384 113.425 46.7405 113.242 46.3294Z" fill="#C4B0D9"/>
<path d="M115.368 50.438C115.336 50.3119 115.33 50.2052 115.35 50.1179C115.359 50.033 115.393 49.9832 115.451 49.9686C115.519 49.9516 115.587 49.9758 115.655 50.0413C115.735 50.114 115.819 50.2218 115.906 50.3649C116.047 50.5976 116.222 50.8012 116.431 50.9757C116.639 51.1502 116.943 51.27 117.34 51.3353C118.029 51.4512 118.673 51.5526 119.272 51.6396C119.874 51.7362 120.462 51.8207 121.037 51.893C121.612 51.9654 122.207 52.0378 122.823 52.1101C123.452 52.1897 124.131 52.2669 124.861 52.3416C125.009 52.356 125.156 52.3656 125.301 52.3704C125.447 52.3751 125.598 52.3629 125.756 52.3337C125.807 52.4137 125.858 52.4937 125.909 52.5737C125.96 52.6537 126.025 52.7301 126.105 52.8028C126.186 52.8755 126.287 52.9118 126.411 52.9117C126.537 52.9213 126.623 52.9358 126.669 52.9552C126.682 52.9624 126.689 52.9709 126.691 52.9806C126.696 53 126.69 53.017 126.673 53.0316C126.639 53.0607 126.594 53.0874 126.539 53.1117C126.485 53.1457 126.432 53.1797 126.379 53.2137C125.7 53.6313 125.009 54.0623 124.306 54.5066C123.603 54.9509 122.921 55.3794 122.262 55.7922C121.615 56.2122 121.029 56.5909 120.506 56.9284C119.994 57.2732 119.578 57.5475 119.258 57.7515C118.904 57.9845 118.65 58.203 118.495 58.4068C118.34 58.6107 118.244 58.8047 118.208 58.9891C118.174 59.1832 118.162 59.382 118.172 59.5858C118.184 59.758 118.166 59.8914 118.118 59.986C118.079 60.0782 118.025 60.1328 117.958 60.1498C117.899 60.1644 117.851 60.1353 117.812 60.0626C117.773 59.9899 117.738 59.8904 117.706 59.7643C117.672 59.6285 117.636 59.4418 117.597 59.2042C117.548 58.9689 117.501 58.7179 117.454 58.4512C117.398 58.1869 117.342 57.9431 117.287 57.72C117.24 57.5357 117.193 57.3466 117.144 57.1526C117.096 56.9586 117.046 56.7804 116.995 56.6179C116.953 56.453 116.918 56.3124 116.889 56.196C116.857 56.0699 116.846 55.9644 116.856 55.8795C116.866 55.7946 116.9 55.7449 116.958 55.7303C117.026 55.7132 117.096 55.7471 117.169 55.832C117.242 55.9168 117.304 56.0199 117.355 56.1411C117.483 56.449 117.623 56.6563 117.773 56.7629C117.924 56.8695 118.077 56.9034 118.232 56.8645C118.377 56.828 118.577 56.7418 118.832 56.6058C119.099 56.477 119.376 56.3301 119.665 56.165C119.963 55.9975 120.224 55.8445 120.447 55.7061C120.519 55.6672 120.553 55.6175 120.548 55.5569C120.556 55.5035 120.542 55.4089 120.508 55.2731L119.819 52.5232C119.809 52.4844 119.779 52.4456 119.728 52.4069C119.689 52.3754 119.611 52.3536 119.495 52.3415C119.391 52.3368 119.223 52.3272 118.993 52.3128C118.772 52.2959 118.537 52.2828 118.287 52.2732C118.037 52.2637 117.814 52.2578 117.618 52.2555C117.421 52.2532 117.299 52.2581 117.25 52.2703C117.037 52.3238 116.878 52.4512 116.774 52.6526C116.679 52.8516 116.632 53.0747 116.632 53.3221C116.625 53.6641 116.568 53.8484 116.462 53.8752C116.404 53.8898 116.35 53.8619 116.302 53.7916C116.263 53.7189 116.228 53.6195 116.196 53.4934C116.164 53.3673 116.123 53.1818 116.072 52.9368C116.021 52.6919 115.961 52.4337 115.893 52.1621C115.813 51.842 115.72 51.5352 115.616 51.2418C115.511 50.9484 115.429 50.6805 115.368 50.438ZM120.397 52.7957L120.963 55.0509C120.997 55.1867 121.038 55.2485 121.087 55.2363C121.106 55.2315 121.124 55.2218 121.141 55.2072C121.17 55.1999 121.198 55.1878 121.225 55.1708L124.49 53.1458C124.65 53.0438 124.727 52.9783 124.719 52.9492C124.715 52.9298 124.622 52.9117 124.443 52.8948L120.546 52.4645C120.483 52.4597 120.442 52.4597 120.423 52.4646C120.374 52.4768 120.351 52.5083 120.354 52.5592C120.358 52.6199 120.373 52.6987 120.397 52.7957Z" fill="#C4B0D9"/>
<path d="M117.93 60.5197C117.926 60.3898 117.943 60.2842 117.98 60.203C118.008 60.1221 118.051 60.0808 118.111 60.0789C118.211 60.0758 118.296 60.2333 118.366 60.5513C118.448 60.9289 118.57 61.1703 118.734 61.2753C118.897 61.3903 119.159 61.4422 119.519 61.4311L126.296 61.2218C126.645 61.211 126.889 61.1634 127.026 61.0792C127.174 61.0046 127.277 60.7763 127.336 60.3943C127.385 60.0626 127.47 59.8949 127.59 59.8912C127.65 59.8893 127.696 59.9229 127.728 59.992C127.77 60.0607 127.794 60.17 127.798 60.32C127.807 60.5898 127.808 60.7999 127.803 60.9501C127.798 61.1004 127.792 61.2406 127.786 61.3709C127.79 61.5008 127.795 61.6657 127.801 61.8656C127.808 62.0755 127.813 62.2454 127.817 62.3754C127.831 62.515 127.846 62.6596 127.86 62.8092C127.875 62.9689 127.887 63.1836 127.895 63.4535C127.904 63.7433 127.844 63.8903 127.714 63.8943C127.644 63.8964 127.588 63.8582 127.545 63.7794C127.503 63.7007 127.464 63.5768 127.429 63.4079C127.347 63.0402 127.214 62.7792 127.029 62.6248C126.855 62.4801 126.622 62.4123 126.333 62.4212L123.379 62.5124C123.319 62.5143 123.28 62.5405 123.261 62.5911C123.253 62.6414 123.249 62.6865 123.251 62.7265L123.422 68.2889C123.425 68.3588 123.486 68.392 123.606 68.3883L126.529 68.298C126.799 68.2896 127.022 68.2127 127.197 68.0672C127.373 67.9217 127.49 67.658 127.548 67.276C127.573 67.1052 127.604 66.9791 127.641 66.8979C127.679 66.8167 127.733 66.7751 127.803 66.7729C127.933 66.7689 128.002 66.9118 128.011 67.2017C128.019 67.4716 128.021 67.6916 128.016 67.8618C128.012 68.0421 128.007 68.2123 128.002 68.3725C128.007 68.5324 128.013 68.7223 128.02 68.9422C128.025 69.1222 128.03 69.2621 128.033 69.362C128.046 69.4617 128.059 69.5763 128.073 69.7059C128.087 69.8356 128.099 70.0353 128.107 70.3052C128.111 70.4451 128.094 70.5507 128.057 70.6219C128.029 70.7028 127.985 70.7442 127.925 70.746C127.805 70.7497 127.71 70.5876 127.64 70.2596C127.559 69.8919 127.432 69.6707 127.26 69.596C127.087 69.5213 126.856 69.4884 126.566 69.4974L119.789 69.7067C119.42 69.7181 119.156 69.7713 118.999 69.8662C118.842 69.9711 118.734 70.2095 118.676 70.5815C118.626 70.9032 118.551 71.0656 118.451 71.0687C118.391 71.0705 118.345 71.0319 118.312 70.9529C118.27 70.8742 118.246 70.7698 118.242 70.6399C118.234 70.37 118.238 70.1598 118.253 70.0093C118.258 69.859 118.264 69.7188 118.27 69.5885C118.276 69.4583 118.276 69.2882 118.269 69.0783C118.263 68.8684 118.252 68.6937 118.238 68.554C118.224 68.4244 118.21 68.2798 118.195 68.1202C118.17 67.9609 118.153 67.7463 118.145 67.4764C118.141 67.3465 118.157 67.2409 118.195 67.1597C118.223 67.0788 118.266 67.0374 118.326 67.0356C118.396 67.0334 118.447 67.0669 118.479 67.1359C118.512 67.2149 118.546 67.339 118.581 67.5079C118.651 67.8259 118.773 68.0723 118.949 68.2469C119.135 68.4313 119.388 68.5185 119.707 68.5087L122.631 68.4184C122.681 68.4168 122.731 68.4153 122.781 68.4137C122.831 68.4122 122.855 68.3864 122.854 68.3364L122.677 62.6092C122.675 62.5592 122.619 62.5359 122.509 62.5393L119.661 62.6273C119.351 62.6369 119.085 62.7601 118.862 62.9971C118.649 63.2338 118.518 63.523 118.468 63.8647C118.444 64.0355 118.417 64.1564 118.39 64.2273C118.362 64.3082 118.313 64.3497 118.243 64.3519C118.183 64.3537 118.137 64.3151 118.105 64.2361C118.062 64.1574 118.039 64.053 118.035 63.9231C118.027 63.6532 118.03 63.428 118.044 63.2475C118.049 63.0773 118.054 62.912 118.059 62.7518C118.064 62.5916 118.063 62.3965 118.056 62.1666C118.049 61.9567 118.039 61.777 118.024 61.6273C118.01 61.4877 117.995 61.3331 117.98 61.1635C117.955 61.0042 117.938 60.7896 117.93 60.5197Z" fill="#C4B0D9"/>
<path d="M118.181 72.7761C118.208 72.6489 118.245 72.5492 118.29 72.4771C118.326 72.403 118.374 72.3721 118.433 72.3844C118.55 72.4092 118.604 72.5892 118.595 72.9244C118.585 73.3107 118.647 73.5742 118.781 73.7148C118.915 73.8554 119.158 73.9628 119.51 74.037L126.145 75.4342C126.487 75.5063 126.735 75.5177 126.889 75.4682C127.05 75.4307 127.204 75.2332 127.351 74.8757C127.477 74.5652 127.609 74.4243 127.746 74.4532C127.805 74.4656 127.836 74.5129 127.839 74.5953C127.852 74.6798 127.845 74.7856 127.818 74.9129C127.762 75.1771 127.714 75.3815 127.673 75.5262C127.633 75.671 127.594 75.8059 127.558 75.931C127.531 76.0583 127.497 76.2197 127.456 76.4154C127.412 76.6209 127.377 76.7873 127.35 76.9145C127.331 77.0535 127.311 77.1975 127.29 77.3463C127.267 77.5049 127.228 77.7164 127.172 77.9806C127.145 78.1078 127.109 78.2074 127.063 78.2795C127.027 78.3537 126.979 78.3846 126.921 78.3722C126.852 78.3578 126.802 78.3063 126.769 78.2177C126.737 78.1291 126.724 77.9986 126.729 77.826C126.737 77.4495 126.669 77.1645 126.526 76.9708C126.391 76.789 126.181 76.6682 125.897 76.6084L120.334 75.4369C120.236 75.4163 120.17 75.4175 120.134 75.4407C120.099 75.4639 120.1 75.5051 120.139 75.5643L124.594 82.4348C124.655 82.5296 124.725 82.5852 124.804 82.6017L124.862 82.6141C125.09 82.6517 125.284 82.6007 125.446 82.4612C125.616 82.3335 125.763 82.1241 125.885 81.8331C126.012 81.5226 126.144 81.3817 126.281 81.4106C126.34 81.4229 126.37 81.4703 126.374 81.5527C126.386 81.6372 126.379 81.743 126.353 81.8702C126.297 82.1344 126.247 82.3487 126.202 82.513C126.155 82.6871 126.11 82.8513 126.068 83.0059C126.035 83.1624 125.995 83.3483 125.95 83.5636C125.913 83.7398 125.884 83.8767 125.864 83.9746C125.851 84.0843 125.836 84.2038 125.819 84.3331C125.8 84.4721 125.762 84.6737 125.707 84.9379C125.68 85.0652 125.644 85.1648 125.598 85.2369C125.562 85.3111 125.514 85.342 125.456 85.3296C125.387 85.3152 125.337 85.2637 125.304 85.1751C125.272 85.0865 125.258 84.9559 125.264 84.7834C125.272 84.4069 125.202 84.1571 125.054 84.034C124.906 83.9109 124.69 83.8195 124.407 83.7597L117.772 82.3625C117.41 82.2863 117.14 82.2806 116.963 82.3454C116.786 82.4103 116.625 82.6166 116.48 82.9642C116.416 83.1244 116.356 83.2395 116.3 83.3095C116.245 83.3796 116.183 83.4074 116.114 83.393C116.055 83.3806 116.025 83.3332 116.021 83.2508C116.009 83.1663 116.016 83.0605 116.042 82.9333C116.098 82.6691 116.152 82.4608 116.205 82.3083C116.245 82.1636 116.285 82.0238 116.324 81.8888C116.36 81.7637 116.4 81.5984 116.443 81.3929C116.487 81.1874 116.518 81.0151 116.537 80.876C116.554 80.7468 116.574 80.6028 116.597 80.4442C116.611 80.2835 116.645 80.0711 116.701 79.8069C116.728 79.6797 116.764 79.58 116.81 79.5079C116.846 79.4337 116.893 79.4028 116.952 79.4152C117.069 79.4399 117.123 79.6199 117.114 79.9552C117.107 80.2807 117.149 80.54 117.241 80.7332C117.332 80.9361 117.519 81.0675 117.802 81.1272L123.644 82.3575C123.81 82.3926 123.855 82.3508 123.778 82.2324L119.311 75.3441C119.265 75.273 119.233 75.2305 119.216 75.2166C119.196 75.2125 119.142 75.2012 119.054 75.1826C118.751 75.1187 118.518 75.1821 118.355 75.3726C118.192 75.5632 118.047 75.8186 117.918 76.1389C117.853 76.2991 117.793 76.4142 117.738 76.4842C117.682 76.5543 117.62 76.5821 117.552 76.5677C117.493 76.5553 117.462 76.5079 117.459 76.4255C117.446 76.3411 117.453 76.2352 117.48 76.108C117.535 75.8438 117.592 75.6257 117.648 75.4537C117.693 75.2894 117.737 75.13 117.78 74.9755C117.822 74.821 117.867 74.6312 117.915 74.4061C117.958 74.2006 117.99 74.0235 118.011 73.8746C118.03 73.7356 118.053 73.5818 118.078 73.4134C118.091 73.2527 118.126 73.0403 118.181 72.7761Z" fill="#C4B0D9"/>
<path d="M115.515 83.9817C115.613 83.7628 115.709 83.5866 115.802 83.4529C115.891 83.3284 115.988 83.2349 116.093 83.1724C116.123 83.1533 116.156 83.1407 116.192 83.1348C116.236 83.1329 116.277 83.1402 116.313 83.1566C116.359 83.1771 116.389 83.2072 116.404 83.2469C116.429 83.2906 116.432 83.3308 116.416 83.3672C116.326 83.5679 116.293 83.8109 116.319 84.0964C116.349 84.395 116.445 84.729 116.608 85.0982C116.771 85.4675 117.005 85.8741 117.31 86.3181C117.652 86.8009 117.927 87.2976 118.136 87.8082C118.35 88.332 118.416 88.7948 118.334 89.1965C118.327 89.2371 118.337 89.2524 118.363 89.2423C118.386 89.2414 118.42 89.202 118.466 89.124C118.687 88.73 118.988 88.4266 119.368 88.214C119.745 88.0106 120.141 87.898 120.556 87.8765C120.971 87.8549 121.343 87.9179 121.672 88.0655C122.301 88.3485 122.733 88.7291 122.967 89.2073C123.202 89.6855 123.284 90.2215 123.215 90.8152C123.145 91.4088 122.971 92.0158 122.692 92.636C122.602 92.8366 122.513 93.0104 122.425 93.1572C122.342 93.3173 122.257 93.4708 122.169 93.6176C122.081 93.7645 121.996 93.9291 121.914 94.1115C121.824 94.3122 121.75 94.4763 121.692 94.604C121.644 94.7358 121.592 94.8767 121.535 95.0267C121.479 95.1768 121.395 95.3749 121.284 95.6212C121.231 95.7397 121.174 95.8294 121.114 95.89C121.063 95.9548 121.01 95.9749 120.955 95.9503C120.828 95.8928 120.804 95.7013 120.885 95.3758C120.973 95.0096 120.983 94.7182 120.916 94.5017C120.849 94.2851 120.656 94.1051 120.337 93.9616L114.153 91.1813C113.834 91.0378 113.558 91.029 113.326 91.1549C113.094 91.2809 112.87 91.4982 112.654 91.8069C112.464 92.0833 112.315 92.1969 112.205 92.1477C112.151 92.1231 112.13 92.0702 112.145 91.989C112.15 91.9038 112.18 91.8019 112.233 91.6833C112.344 91.437 112.445 91.2359 112.537 91.08C112.616 90.929 112.693 90.7826 112.768 90.6408C112.842 90.499 112.927 90.3232 113.021 90.1134C113.124 89.8854 113.209 89.6827 113.278 89.5053C113.343 89.337 113.412 89.1596 113.485 88.9731C113.544 88.7916 113.629 88.5777 113.74 88.3315C113.793 88.2129 113.85 88.1233 113.91 88.0626C113.961 87.9979 114.014 87.9778 114.069 88.0024C114.133 88.0311 114.167 88.0901 114.17 88.1795C114.174 88.2689 114.155 88.3972 114.112 88.5646C114.055 88.8131 114.033 89.0333 114.045 89.2253C114.054 89.4264 114.108 89.5987 114.208 89.7423C114.308 89.8859 114.453 90.0007 114.645 90.0869L116.957 91.1264C117.185 91.2289 117.329 91.2498 117.389 91.1892C117.445 91.1376 117.525 90.9978 117.627 90.7698C117.684 90.6421 117.703 90.4914 117.682 90.3177C117.658 90.1531 117.639 89.9748 117.627 89.7829C117.605 89.3675 117.446 88.9175 117.148 88.4329C116.851 87.9484 116.551 87.4572 116.248 86.9594C116.038 86.6234 115.851 86.2819 115.689 85.935C115.532 85.6013 115.429 85.2698 115.38 84.9406C115.33 84.6115 115.375 84.2918 115.515 83.9817ZM118.321 90.5063C118.182 90.8164 118.098 91.0749 118.071 91.2819C118.049 91.5022 118.156 91.6656 118.393 91.7722L120.829 92.8671C121.193 93.0311 121.505 93.0451 121.764 92.9092C122.018 92.7823 122.215 92.5639 122.354 92.2538C122.514 91.8981 122.584 91.5237 122.563 91.1307C122.538 90.7468 122.428 90.3955 122.231 90.0768C122.044 89.7623 121.767 89.523 121.403 89.359C120.655 89.0227 120.032 88.9566 119.535 89.1606C119.033 89.3737 118.629 89.8222 118.321 90.5063Z" fill="#C4B0D9"/>
<path d="M110.12 95.1082C110.195 95.0025 110.269 94.9258 110.34 94.8783C110.402 94.8249 110.458 94.8157 110.507 94.8506C110.564 94.8914 110.585 94.9559 110.571 95.0442C110.557 95.1326 110.513 95.2546 110.438 95.4102C110.274 95.7599 110.203 96.0656 110.224 96.3272C110.254 96.5946 110.415 96.8331 110.708 97.0427L115.44 100.432C115.814 100.7 116.104 100.895 116.311 101.019C116.526 101.148 116.688 101.222 116.799 101.239C116.903 101.265 116.983 101.248 117.038 101.189C117.143 101.093 117.243 100.979 117.336 100.849C117.432 100.733 117.555 100.57 117.706 100.358L118.117 99.785C118.257 99.5899 118.356 99.3657 118.414 99.1124C118.475 98.873 118.456 98.6503 118.358 98.4444C118.335 98.3909 118.303 98.3066 118.262 98.1915C118.23 98.0822 118.208 97.9746 118.198 97.8688C118.188 97.763 118.206 97.6776 118.252 97.6125C118.276 97.58 118.309 97.5673 118.354 97.5743C118.392 97.5895 118.431 97.6116 118.472 97.6407C118.553 97.699 118.62 97.7775 118.672 97.8764C118.827 98.1591 118.976 98.3889 119.12 98.5658C119.266 98.7566 119.453 98.9586 119.682 99.1716C119.809 99.2868 119.869 99.3735 119.865 99.4316C119.854 99.4979 119.837 99.5473 119.814 99.5798C119.791 99.6123 119.707 99.6262 119.563 99.6213C119.413 99.6246 119.294 99.6192 119.205 99.6051C119.089 99.5957 118.95 99.6618 118.787 99.8034C118.618 99.9531 118.472 100.113 118.35 100.284L115.275 104.576C115.072 104.861 114.922 105.104 114.826 105.306C114.731 105.509 114.665 105.695 114.628 105.866C114.607 105.998 114.605 106.114 114.621 106.211C114.631 106.317 114.602 106.419 114.532 106.516C114.514 106.541 114.467 106.538 114.39 106.507C114.322 106.483 114.255 106.447 114.19 106.401C114.149 106.372 114.098 106.323 114.037 106.254C113.969 106.193 113.918 106.145 113.884 106.107C113.755 105.978 113.666 105.878 113.619 105.807C113.566 105.744 113.517 105.691 113.474 105.648C113.431 105.605 113.357 105.546 113.251 105.47L113.105 105.365C113.032 105.313 112.958 105.235 112.884 105.133C112.818 105.036 112.808 104.956 112.855 104.891C112.895 104.834 112.972 104.821 113.085 104.853C113.198 104.884 113.343 104.939 113.521 105.017C113.715 105.107 113.919 105.105 114.133 105.013C114.355 104.926 114.606 104.687 114.885 104.297L115.767 103.065C115.895 102.886 115.967 102.735 115.982 102.61C115.998 102.486 115.917 102.342 115.739 102.178C115.561 102.014 115.249 101.771 114.802 101.451L110.009 98.0183C109.717 97.8086 109.436 97.7368 109.167 97.8027C108.907 97.8744 108.641 98.0403 108.368 98.3003C108.245 98.421 108.144 98.5023 108.064 98.544C107.985 98.5858 107.917 98.5863 107.86 98.5455C107.812 98.5106 107.802 98.4547 107.833 98.3781C107.855 98.2956 107.904 98.2015 107.98 98.0958C108.137 97.8763 108.276 97.6992 108.397 97.5645C108.504 97.4321 108.608 97.3038 108.71 97.1796C108.811 97.0553 108.929 96.8997 109.063 96.7127C109.208 96.5095 109.332 96.3277 109.435 96.1674C109.531 96.0153 109.634 95.855 109.742 95.6866C109.837 95.5205 109.962 95.3277 110.12 95.1082Z" fill="#C4B0D9"/>
<path d="M105.648 101.401C105.745 101.314 105.833 101.255 105.912 101.223C105.985 101.184 106.042 101.187 106.082 101.232C106.162 101.321 106.1 101.498 105.895 101.764C105.66 102.071 105.556 102.32 105.581 102.513C105.607 102.705 105.74 102.935 105.982 103.202L110.526 108.234C110.76 108.494 110.954 108.649 111.107 108.699C111.26 108.763 111.501 108.694 111.83 108.491C112.115 108.315 112.304 108.278 112.398 108.382C112.438 108.427 112.435 108.483 112.389 108.552C112.35 108.628 112.282 108.709 112.186 108.796C111.985 108.977 111.826 109.114 111.708 109.207C111.59 109.301 111.479 109.387 111.376 109.467C111.28 109.554 111.157 109.664 111.009 109.798C110.853 109.939 110.727 110.053 110.63 110.14C110.533 110.242 110.432 110.346 110.328 110.454C110.216 110.569 110.059 110.717 109.859 110.898C109.763 110.985 109.675 111.044 109.595 111.075C109.522 111.114 109.466 111.111 109.426 111.067C109.379 111.015 109.368 110.943 109.394 110.853C109.42 110.762 109.486 110.648 109.592 110.512C109.82 110.212 109.933 109.942 109.931 109.701C109.928 109.474 109.829 109.253 109.635 109.038L105.825 104.819C105.758 104.745 105.703 104.707 105.661 104.705C105.618 104.702 105.595 104.737 105.592 104.807L105.154 112.984C105.148 113.097 105.172 113.183 105.226 113.242L105.266 113.287C105.428 113.451 105.615 113.524 105.829 113.507C106.041 113.503 106.283 113.42 106.553 113.257C106.838 113.08 107.027 113.044 107.121 113.148C107.161 113.192 107.159 113.249 107.113 113.317C107.073 113.393 107.005 113.475 106.909 113.562C106.709 113.743 106.542 113.886 106.409 113.993C106.269 114.106 106.136 114.213 106.011 114.313C105.892 114.42 105.751 114.547 105.588 114.695C105.454 114.815 105.35 114.909 105.276 114.976C105.201 115.057 105.119 115.145 105.029 115.24C104.932 115.341 104.783 115.482 104.582 115.663C104.486 115.75 104.398 115.809 104.318 115.841C104.246 115.879 104.189 115.877 104.149 115.832C104.102 115.78 104.092 115.709 104.117 115.618C104.143 115.527 104.209 115.414 104.315 115.278C104.543 114.978 104.633 114.734 104.586 114.548C104.539 114.361 104.418 114.161 104.224 113.945L99.6796 108.914C99.4316 108.639 99.2169 108.476 99.0354 108.424C98.854 108.372 98.6025 108.445 98.281 108.641C98.1347 108.732 98.0185 108.79 97.9323 108.814C97.8461 108.838 97.7796 108.824 97.7327 108.772C97.6924 108.727 97.6953 108.671 97.7413 108.603C97.7806 108.527 97.8484 108.445 97.9449 108.358C98.1453 108.177 98.3116 108.04 98.4437 107.948C98.5617 107.855 98.676 107.765 98.7866 107.679C98.8898 107.599 99.0193 107.489 99.1752 107.348C99.331 107.207 99.4576 107.086 99.5548 106.985C99.6445 106.89 99.7455 106.786 99.8575 106.671C99.9628 106.549 100.116 106.398 100.316 106.217C100.413 106.129 100.501 106.07 100.58 106.039C100.653 106 100.709 106.003 100.75 106.048C100.83 106.137 100.768 106.314 100.563 106.58C100.366 106.839 100.248 107.073 100.209 107.284C100.162 107.501 100.236 107.717 100.431 107.932L104.432 112.363C104.546 112.489 104.606 112.482 104.613 112.34L105.052 104.143C105.056 104.058 105.056 104.005 105.05 103.983C105.036 103.968 104.999 103.927 104.939 103.861C104.731 103.631 104.506 103.545 104.262 103.603C104.018 103.662 103.75 103.782 103.457 103.966C103.311 104.057 103.195 104.115 103.109 104.139C103.023 104.163 102.956 104.149 102.909 104.097C102.869 104.053 102.872 103.996 102.918 103.928C102.957 103.852 103.025 103.77 103.121 103.683C103.322 103.502 103.495 103.359 103.642 103.253C103.775 103.146 103.904 103.043 104.03 102.943C104.155 102.844 104.303 102.717 104.474 102.563C104.63 102.422 104.76 102.297 104.865 102.189C104.962 102.088 105.07 101.977 105.19 101.856C105.295 101.733 105.448 101.582 105.648 101.401Z" fill="#C4B0D9"/>
<path d="M96.5556 109.241C96.6673 109.174 96.7652 109.133 96.8493 109.118C96.9282 109.094 96.9831 109.108 97.0138 109.16C97.0752 109.263 96.9795 109.425 96.7267 109.645C96.436 109.9 96.2543 110.142 96.1816 110.371C96.1088 110.601 96.1646 110.87 96.3488 111.18L99.8034 116.979C99.9876 117.288 100.183 117.469 100.388 117.521C100.585 117.578 100.865 117.539 101.227 117.405C101.389 117.344 101.516 117.314 101.611 117.316C101.705 117.318 101.77 117.349 101.806 117.409C101.837 117.461 101.823 117.516 101.764 117.574C101.711 117.641 101.628 117.707 101.517 117.774C101.19 117.968 100.913 118.128 100.684 118.252C100.447 118.382 100.219 118.506 99.9989 118.626C99.7755 118.759 99.5135 118.915 99.2128 119.094C98.9293 119.263 98.6329 119.439 98.3236 119.624C98.0108 119.822 97.7213 120 97.455 120.159C97.168 120.341 96.9257 120.491 96.7281 120.609C96.527 120.74 96.4093 120.816 96.375 120.837C96.332 120.862 96.2796 120.882 96.2178 120.896C96.1561 120.909 96.1081 120.897 96.0739 120.859C95.8876 120.644 95.7014 120.429 95.5151 120.214C95.334 120.008 95.1922 119.819 95.0899 119.647C95.0438 119.57 95.0346 119.505 95.0622 119.454C95.0812 119.408 95.1122 119.372 95.1552 119.346C95.1981 119.321 95.2333 119.311 95.2607 119.318C95.2932 119.334 95.3309 119.358 95.3737 119.391C95.5036 119.511 95.6285 119.623 95.7482 119.726C95.873 119.838 95.9834 119.906 96.0794 119.93C96.2816 119.996 96.4685 120.007 96.6401 119.963C96.8169 119.928 96.9869 119.861 97.1501 119.764L98.8382 118.758C98.907 118.717 98.9784 118.622 99.0527 118.473C99.1269 118.325 99.1282 118.19 99.0565 118.07L97.429 115.338C97.383 115.26 97.3205 115.204 97.2418 115.17C97.1595 115.149 97.0883 115.156 97.0282 115.192L95.7524 115.952C95.5032 116.101 95.357 116.246 95.3137 116.388C95.2755 116.539 95.298 116.753 95.3811 117.029C95.4422 117.249 95.4211 117.389 95.3181 117.451C95.2837 117.471 95.2391 117.474 95.1843 117.461C95.1208 117.452 95.0686 117.413 95.0277 117.344C95.0072 117.31 94.9655 117.23 94.9024 117.105C94.8308 116.984 94.7608 116.857 94.6927 116.723C94.6245 116.589 94.5699 116.488 94.529 116.419C94.4778 116.333 94.4087 116.217 94.3217 116.071C94.2312 115.939 94.1476 115.808 94.0708 115.679C93.9855 115.556 93.9326 115.477 93.9121 115.442C93.8763 115.382 93.8542 115.326 93.8457 115.272C93.8287 115.224 93.846 115.185 93.8976 115.154C94.0264 115.077 94.2071 115.156 94.4396 115.39C94.6089 115.557 94.7646 115.662 94.9068 115.705C95.049 115.749 95.206 115.719 95.3779 115.617L96.5763 114.903C96.7224 114.816 96.8213 114.728 96.873 114.639C96.9213 114.563 96.9019 114.453 96.8149 114.307L95.3409 111.832C95.1464 111.506 94.9421 111.319 94.7279 111.272C94.5188 111.234 94.2682 111.302 93.9761 111.476L93.0224 112.044C92.7475 112.208 92.5275 112.356 92.3625 112.489C92.1939 112.636 92.0665 112.794 91.9803 112.961C91.8991 113.138 91.853 113.334 91.8421 113.55C91.8225 113.771 91.8208 114.052 91.8368 114.391C91.8418 114.458 91.8373 114.519 91.8234 114.574C91.8095 114.629 91.7785 114.665 91.7304 114.682C91.6824 114.699 91.6352 114.698 91.589 114.679C91.5478 114.668 91.5119 114.637 91.4812 114.586C91.4352 114.508 91.3747 114.358 91.3 114.135C91.2304 113.92 91.1685 113.69 91.1144 113.442C91.0517 113.2 91.0103 113.004 90.9902 112.853C90.9801 112.777 90.9752 112.71 90.9754 112.652C90.967 112.599 90.9886 112.557 91.0401 112.526C91.4525 112.281 91.8373 112.057 92.1947 111.856C92.552 111.655 92.8922 111.464 93.2152 111.283C93.5382 111.102 93.8569 110.924 94.1713 110.748C94.4771 110.578 94.7932 110.395 95.1197 110.201C95.3087 110.088 95.4694 109.987 95.6017 109.896C95.7289 109.797 95.863 109.7 96.0039 109.604C96.1398 109.5 96.3236 109.379 96.5556 109.241Z" fill="#C4B0D9"/>
<path d="M92.7071 68.7071C93.0976 68.3166 93.0976 67.6834 92.7071 67.2929L86.3431 60.9289C85.9526 60.5384 85.3195 60.5384 84.9289 60.9289C84.5384 61.3195 84.5384 61.9526 84.9289 62.3431L90.5858 68L84.9289 73.6569C84.5384 74.0474 84.5384 74.6805 84.9289 75.0711C85.3195 75.4616 85.9526 75.4616 86.3431 75.0711L92.7071 68.7071ZM43 69H92V67H43V69Z" fill="#C4B0D9"/>
</svg>
